STARTFONT 2.1
FONT -FontForge-Public Sans-Bold-R-Normal-Sans--32-720-32-32-P-179-ISO10646-1
SIZE 72 32 32
FONTBOUNDINGBOX 47 44 -5 -8
COMMENT "Generated by fontforge, http://fontforge.sourceforge.net"
COMMENT "Copyright 2015 The Public Sans Project Authors (https://github.com/uswds/public-sans)"
STARTPROPERTIES 40
FOUNDRY "FontForge"
FAMILY_NAME "Public Sans"
WEIGHT_NAME "Bold"
SLANT "R"
SETWIDTH_NAME "Normal"
ADD_STYLE_NAME "Sans"
PIXEL_SIZE 32
POINT_SIZE 720
RESOLUTION_X 32
RESOLUTION_Y 32
SPACING "P"
AVERAGE_WIDTH 179
CHARSET_REGISTRY "ISO10646"
CHARSET_ENCODING "1"
FONTNAME_REGISTRY ""
CHARSET_COLLECTIONS "ISO8859-2 ISO8859-9 ISO8859-4 ISO10646-1"
FONT_NAME "PublicSans-Bold"
FACE_NAME "Public Sans Bold"
COPYRIGHT "Copyright 2015 The Public Sans Project Authors (https://github.com/uswds/public-sans)"
FONT_VERSION "2.001"
FONT_ASCENT 26
FONT_DESCENT 6
UNDERLINE_POSITION -7
UNDERLINE_THICKNESS 3
X_HEIGHT 16
CAP_HEIGHT 22
DEFAULT_CHAR 644
RAW_ASCENT 800
RAW_DESCENT 200
NORM_SPACE 7
RELATIVE_WEIGHT 70
RELATIVE_SETWIDTH 50
SUPERSCRIPT_X 0
SUPERSCRIPT_Y 11
SUPERSCRIPT_SIZE 19
SUBSCRIPT_X 0
SUBSCRIPT_Y 2
SUBSCRIPT_SIZE 19
AVG_LOWERCASE_WIDTH 174
AVG_UPPERCASE_WIDTH 221
ENDPROPERTIES
CHARS 645
STARTCHAR uni0000
ENCODING 0
SWIDTH 26 0
DWIDTH 1 0
BBX 1 1 0 0
BITMAP
00
ENDCHAR
STARTCHAR CR
ENCODING 13
SWIDTH 238 0
DWIDTH 8 0
BBX 1 1 0 0
BITMAP
00
ENDCHAR
STARTCHAR space
ENCODING 32
SWIDTH 225 0
DWIDTH 7 0
BBX 1 1 0 0
BITMAP
00
ENDCHAR
STARTCHAR exclam
ENCODING 33
SWIDTH 282 0
DWIDTH 9 0
BBX 5 23 2 0
BITMAP
F8
F8
F8
F8
F8
F8
F8
F8
F0
F0
F0
70
70
70
70
70
00
00
F8
F8
F8
F8
F8
ENDCHAR
STARTCHAR quotedbl
ENCODING 34
SWIDTH 479 0
DWIDTH 15 0
BBX 12 9 2 14
BITMAP
F9F0
F1E0
F1E0
F1E0
F1E0
70E0
70E0
70E0
60C0
ENDCHAR
STARTCHAR numbersign
ENCODING 35
SWIDTH 616 0
DWIDTH 20 0
BBX 18 23 1 0
BITMAP
030600
030E00
070E00
070E00
070E00
070C00
060C00
7FFFC0
7FFFC0
0E1C00
0E1C00
0E1800
0E1800
FFFF80
FFFF80
FFFF80
1C3800
1C3800
1C3000
183000
183000
187000
387000
ENDCHAR
STARTCHAR dollar
ENCODING 36
SWIDTH 680 0
DWIDTH 22 0
BBX 18 29 2 -3
BITMAP
01E000
01E000
01E000
07FC00
1FFE00
3FFF00
7F1F80
7C0FC0
F807C0
F807C0
FC0000
FF0000
7FE000
3FFE00
1FFF00
0FFF80
00FFC0
000FC0
0007C0
F007C0
F807C0
FC0FC0
7F3FC0
7FFF80
3FFF00
0FFC00
01E000
01E000
01E000
ENDCHAR
STARTCHAR percent
ENCODING 37
SWIDTH 939 0
DWIDTH 30 0
BBX 27 23 1 0
BITMAP
1F800E00
3FE01C00
78E03800
70F03000
70707000
F070E000
F070C000
7071C000
70F38000
78E30000
3FE70E00
1FCE3F80
060C7FC0
001CF1E0
0038E0E0
0030E0E0
0070E0E0
00E0E0E0
00C0E0E0
01C0E1E0
038071C0
03007FC0
07001F00
ENDCHAR
STARTCHAR ampersand
ENCODING 38
SWIDTH 783 0
DWIDTH 25 0
BBX 23 23 1 0
BITMAP
03FE00
07FF00
0FCF80
0F0780
0F0780
0F0780
0F8780
0FCF00
07FE00
03FC00
03F87C
0FF87C
1FFC78
3F7E78
7C3FF0
7C1FF0
7C0FE0
FC07C0
7C07E0
7FBFF0
7FFFF8
3FFCF8
0FF07E
ENDCHAR
STARTCHAR quotesingle
ENCODING 39
SWIDTH 261 0
DWIDTH 8 0
BBX 5 9 2 14
BITMAP
F8
F0
F0
F0
F0
70
70
70
60
ENDCHAR
STARTCHAR parenleft
ENCODING 40
SWIDTH 333 0
DWIDTH 11 0
BBX 8 29 2 -5
BITMAP
0F
0E
1E
1C
3C
3C
78
78
78
F8
F0
F0
F0
F0
F0
F0
F0
F0
F0
F8
78
78
78
3C
3C
1C
1E
0E
0F
ENDCHAR
STARTCHAR parenright
ENCODING 41
SWIDTH 336 0
DWIDTH 11 0
BBX 8 29 0 -5
BITMAP
F0
70
78
3C
3C
1C
1E
1E
1E
0F
0F
0F
0F
0F
0F
0F
0F
0F
0F
0F
1E
1E
1E
1C
3C
38
78
70
F0
ENDCHAR
STARTCHAR asterisk
ENCODING 42
SWIDTH 473 0
DWIDTH 15 0
BBX 13 13 1 10
BITMAP
0700
0700
0700
4710
FFF8
FFF8
1FC0
0F80
1DC0
3DE0
78F0
3060
1040
ENDCHAR
STARTCHAR plus
ENCODING 43
SWIDTH 588 0
DWIDTH 19 0
BBX 15 15 2 4
BITMAP
0380
0380
0380
0380
0380
0380
FFFE
FFFE
FFFE
0380
0380
0380
0380
0380
0380
ENDCHAR
STARTCHAR comma
ENCODING 44
SWIDTH 277 0
DWIDTH 9 0
BBX 5 9 1 -4
BITMAP
78
78
78
78
78
38
30
70
E0
ENDCHAR
STARTCHAR hyphen
ENCODING 45
SWIDTH 393 0
DWIDTH 13 0
BBX 9 3 2 7
BITMAP
FF80
FF80
FF80
ENDCHAR
STARTCHAR period
ENCODING 46
SWIDTH 269 0
DWIDTH 9 0
BBX 5 5 2 0
BITMAP
F8
F8
F8
F8
F8
ENDCHAR
STARTCHAR slash
ENCODING 47
SWIDTH 381 0
DWIDTH 12 0
BBX 12 24 0 -1
BITMAP
00F0
00E0
00E0
01C0
01C0
01C0
0380
0380
0380
0700
0700
0F00
0E00
0E00
1E00
1C00
1C00
3C00
3800
3800
7800
7000
7000
F000
ENDCHAR
STARTCHAR zero
ENCODING 48
SWIDTH 644 0
DWIDTH 21 0
BBX 18 23 1 0
BITMAP
07F800
0FFE00
1FFF00
3F3F00
3E0F80
7C0F80
7C07C0
7C07C0
7807C0
F807C0
F807C0
F807C0
F807C0
F807C0
7807C0
7C07C0
7C07C0
7C0F80
3E0F80
3FFF00
1FFF00
0FFE00
07F800
ENDCHAR
STARTCHAR one
ENCODING 49
SWIDTH 428 0
DWIDTH 14 0
BBX 9 23 1 0
BITMAP
0380
0780
0F80
FF80
FF80
FF80
0F80
0F80
0F80
0F80
0F80
0F80
0F80
0F80
0F80
0F80
0F80
0F80
0F80
0F80
0F80
0F80
0F80
ENDCHAR
STARTCHAR two
ENCODING 50
SWIDTH 635 0
DWIDTH 20 0
BBX 18 23 1 0
BITMAP
07FC00
1FFF00
3FFF80
7FBF80
7C0FC0
7807C0
F807C0
0007C0
000FC0
001F80
007F80
00FF00
03FC00
0FF800
1FE000
3F8000
7E0000
7C0000
7C0000
7FFFC0
7FFFC0
7FFFC0
7FFFC0
ENDCHAR
STARTCHAR three
ENCODING 51
SWIDTH 665 0
DWIDTH 21 0
BBX 19 23 1 0
BITMAP
07FE00
1FFF00
3FFF80
7E1FC0
7C07C0
7807C0
7807C0
0007C0
000FC0
01FF80
01FE00
01FF00
01FF80
000FC0
0007E0
0003E0
F803E0
7803E0
7C07E0
7FBFC0
3FFF80
1FFF00
07FC00
ENDCHAR
STARTCHAR four
ENCODING 52
SWIDTH 656 0
DWIDTH 21 0
BBX 19 23 1 0
BITMAP
003F00
003F00
007F00
00FF00
01FF00
01FF00
03DF00
07DF00
0F9F00
0F1F00
1E1F00
3E1F00
3C1F00
781F00
FFFFE0
FFFFE0
FFFFE0
FFFFE0
001F00
001F00
001F00
001F00
001F00
ENDCHAR
STARTCHAR five
ENCODING 53
SWIDTH 675 0
DWIDTH 22 0
BBX 19 23 1 0
BITMAP
1FFFC0
1FFFC0
1FFFC0
3FFFC0
3C0000
3C0000
3C0000
3C0000
3CFE00
3FFF00
3FFF80
3FFFC0
0E07E0
0003E0
0003E0
0003E0
1803E0
F803E0
7C07E0
7FBFC0
3FFF80
0FFF00
03FE00
ENDCHAR
STARTCHAR six
ENCODING 54
SWIDTH 660 0
DWIDTH 21 0
BBX 19 23 1 0
BITMAP
03FC00
0FFF00
1FFF80
1F8FC0
3E07C0
7C03C0
7C0000
7C0000
7C7000
7DFE00
FFFF80
FFFFC0
FF0FC0
FC07C0
7C03E0
7C03E0
7C03E0
7C07C0
3E07C0
3F1FC0
1FFF80
0FFF00
03FC00
ENDCHAR
STARTCHAR seven
ENCODING 55
SWIDTH 626 0
DWIDTH 20 0
BBX 18 23 1 0
BITMAP
FFFFC0
FFFFC0
FFFFC0
FFFFC0
000F80
001F00
001F00
003E00
003E00
007C00
007C00
00F800
00F800
01F000
01F000
03E000
03E000
03E000
07C000
07C000
07C000
07C000
07C000
ENDCHAR
STARTCHAR eight
ENCODING 56
SWIDTH 671 0
DWIDTH 21 0
BBX 19 23 1 0
BITMAP
07FC00
1FFF00
3FFF80
3E0FC0
3C07C0
7C07C0
7C07C0
3C07C0
3E0F80
1FFF80
0FFF00
0FFF00
3FFF80
7E0FC0
7C07E0
FC03E0
F803E0
FC03E0
7C07E0
7F0FC0
3FFFC0
1FFF80
07FE00
ENDCHAR
STARTCHAR nine
ENCODING 57
SWIDTH 659 0
DWIDTH 21 0
BBX 19 23 1 0
BITMAP
07F800
1FFE00
3FFF00
7F1F80
7C0F80
7C07C0
FC07C0
FC07C0
7C07E0
7C07E0
7E1FE0
3FFFE0
3FFFE0
0FFBE0
03C3C0
0003C0
8007C0
7807C0
7C0F80
7F3F80
3FFF00
1FFE00
07F800
ENDCHAR
STARTCHAR colon
ENCODING 58
SWIDTH 269 0
DWIDTH 9 0
BBX 5 16 2 0
BITMAP
F8
F8
F8
F8
F8
00
00
00
00
00
00
F8
F8
F8
F8
F8
ENDCHAR
STARTCHAR semicolon
ENCODING 59
SWIDTH 278 0
DWIDTH 9 0
BBX 5 21 2 -5
BITMAP
F8
F8
F8
F8
F8
00
00
00
00
00
00
F8
F8
F8
F8
F8
70
70
60
C0
C0
ENDCHAR
STARTCHAR less
ENCODING 60
SWIDTH 577 0
DWIDTH 18 0
BBX 15 16 2 3
BITMAP
0002
000E
007E
03FE
0FFC
7FF0
FF80
FC00
FC00
FF80
7FF0
0FFC
03FE
007E
000E
0002
ENDCHAR
STARTCHAR equal
ENCODING 61
SWIDTH 588 0
DWIDTH 19 0
BBX 15 10 2 6
BITMAP
FFFE
FFFE
FFFE
0000
0000
0000
0000
FFFE
FFFE
FFFE
ENDCHAR
STARTCHAR greater
ENCODING 62
SWIDTH 577 0
DWIDTH 18 0
BBX 15 16 2 3
BITMAP
8000
E000
F800
FF00
FFE0
1FF8
07FE
00FE
00FE
03FE
1FF8
FFE0
FF00
F800
E000
8000
ENDCHAR
STARTCHAR question
ENCODING 63
SWIDTH 534 0
DWIDTH 17 0
BBX 16 23 0 0
BITMAP
0FF8
1FFC
3FFE
7C1F
F81F
101F
001F
001F
003E
007C
00F8
01F0
01E0
03C0
03C0
03C0
0000
0000
07E0
07E0
07E0
07E0
07E0
ENDCHAR
STARTCHAR at
ENCODING 64
SWIDTH 827 0
DWIDTH 26 0
BBX 24 25 1 -4
BITMAP
000E00
01FFE0
03FFF0
0F807C
1E001C
3C000E
383C0F
70FEE7
71FFC7
71E3C7
E3C3C7
E381C7
E381C7
E383C7
E3838F
E3C7DE
71FFFC
71FDF8
387800
3C0000
1E0020
0F80F0
07FFF0
01FFC0
000800
ENDCHAR
STARTCHAR A
ENCODING 65
SWIDTH 726 0
DWIDTH 23 0
BBX 21 23 1 0
BITMAP
00F800
00FC00
01FC00
01FC00
03FE00
03DE00
03DE00
07CF00
078F00
078F80
0F8780
0F0780
0F07C0
1F03C0
1FFFC0
1FFFE0
3FFFE0
3FFFE0
7C01F0
7C01F0
7800F0
F800F8
F80078
ENDCHAR
STARTCHAR B
ENCODING 66
SWIDTH 684 0
DWIDTH 22 0
BBX 17 23 3 0
BITMAP
FFF800
FFFE00
FFFF00
F0FF00
F00F80
F00F80
F00F80
F00F80
F00F00
FFFF00
FFFC00
FFFC00
FFFF00
F01F80
F00F80
F00780
F00780
F00F80
F00F80
FFFF80
FFFF00
FFFE00
FFF800
ENDCHAR
STARTCHAR C
ENCODING 67
SWIDTH 718 0
DWIDTH 23 0
BBX 19 23 2 0
BITMAP
07FC00
0FFF00
3FFF80
3F9FC0
7E07E0
7C03E0
F803E0
F801E0
F80000
F80000
F80000
F80000
F80000
F80000
F80000
F803E0
F803E0
7C03E0
7E07C0
3FFFC0
1FFF80
0FFF00
03FC00
ENDCHAR
STARTCHAR D
ENCODING 68
SWIDTH 720 0
DWIDTH 23 0
BBX 19 23 3 0
BITMAP
FFE000
FFFC00
FFFE00
FFFF00
F03F80
F00F80
F007C0
F007C0
F007C0
F003C0
F003C0
F003E0
F003C0
F007C0
F007C0
F007C0
F00FC0
F01F80
F03F80
FFFF00
FFFE00
FFF800
FFE000
ENDCHAR
STARTCHAR E
ENCODING 69
SWIDTH 634 0
DWIDTH 20 0
BBX 16 23 3 0
BITMAP
FFFE
FFFE
FFFE
FFFE
F000
F000
F000
F000
F000
FFFC
FFFC
FFFC
FFFC
F000
F000
F000
F000
F000
F000
FFFF
FFFF
FFFF
FFFF
ENDCHAR
STARTCHAR F
ENCODING 70
SWIDTH 613 0
DWIDTH 20 0
BBX 15 23 3 0
BITMAP
FFFE
FFFE
FFFE
FFFE
F000
F000
F000
F000
F000
F000
FFFC
FFFC
FFFC
F000
F000
F000
F000
F000
F000
F000
F000
F000
F000
ENDCHAR
STARTCHAR G
ENCODING 71
SWIDTH 759 0
DWIDTH 24 0
BBX 20 23 2 0
BITMAP
03FE00
0FFF00
1FFF80
3FFFC0
7E07E0
7C03E0
FC03F0
F801F0
F80000
F80000
F80000
F83FF0
F83FF0
F83FF0
F801F0
F801F0
FC01F0
7C03F0
7F07F0
3FFFF0
1FFF70
0FFE70
03FC70
ENDCHAR
STARTCHAR H
ENCODING 72
SWIDTH 770 0
DWIDTH 25 0
BBX 19 23 3 0
BITMAP
F003E0
F003E0
F003E0
F003E0
F003E0
F003E0
F003E0
F003E0
F003E0
FFFFE0
FFFFE0
FFFFE0
FFFFE0
F003E0
F003E0
F003E0
F003E0
F003E0
F003E0
F003E0
F003E0
F003E0
F003E0
ENDCHAR
STARTCHAR I
ENCODING 73
SWIDTH 307 0
DWIDTH 10 0
BBX 4 23 3 0
BITMAP
F0
F0
F0
F0
F0
F0
F0
F0
F0
F0
F0
F0
F0
F0
F0
F0
F0
F0
F0
F0
F0
F0
F0
ENDCHAR
STARTCHAR J
ENCODING 74
SWIDTH 402 0
DWIDTH 13 0
BBX 10 23 1 0
BITMAP
07C0
07C0
07C0
07C0
07C0
07C0
07C0
07C0
07C0
07C0
07C0
07C0
07C0
07C0
07C0
07C0
07C0
07C0
0FC0
FFC0
FF80
FF80
FF00
ENDCHAR
STARTCHAR K
ENCODING 75
SWIDTH 717 0
DWIDTH 23 0
BBX 19 23 3 0
BITMAP
F00FC0
F00F80
F01F00
F03E00
F07E00
F0FC00
F0F800
F1F000
F3E000
F7F000
FFF000
FFF800
FFF800
FE7C00
FC7C00
F83E00
F03E00
F01F00
F01F80
F00F80
F007C0
F007C0
F003E0
ENDCHAR
STARTCHAR L
ENCODING 76
SWIDTH 577 0
DWIDTH 18 0
BBX 14 23 3 0
BITMAP
F000
F000
F000
F000
F000
F000
F000
F000
F000
F000
F000
F000
F000
F000
F000
F000
F000
F000
F000
FFFC
FFFC
FFFC
FFFC
ENDCHAR
STARTCHAR M
ENCODING 77
SWIDTH 917 0
DWIDTH 29 0
BBX 24 23 3 0
BITMAP
FE007F
FE00FF
FE00FF
FF00FF
FF00FF
FF01FF
F781FF
F781DF
F783DF
F383DF
F3C39F
F3C79F
F1C79F
F1E79F
F1EF1F
F1EF1F
F0FF1F
F0FE1F
F0FE1F
F07E1F
F07C1F
F07C1F
F03C1F
ENDCHAR
STARTCHAR N
ENCODING 78
SWIDTH 782 0
DWIDTH 25 0
BBX 19 23 3 0
BITMAP
F801E0
F801E0
FC01E0
FE01E0
FE01E0
FF01E0
FF81E0
F7C1E0
F7C1E0
F3E1E0
F1F1E0
F1F1E0
F0F9E0
F07DE0
F07DE0
F03FE0
F01FE0
F01FE0
F00FE0
F007E0
F007E0
F003E0
F001E0
ENDCHAR
STARTCHAR O
ENCODING 79
SWIDTH 760 0
DWIDTH 24 0
BBX 21 23 2 0
BITMAP
03FE00
0FFF80
1FFFC0
3F9FE0
7E07E0
7C03F0
FC01F0
F801F0
F801F8
F800F8
F800F8
F800F8
F800F8
F800F8
F801F8
F801F0
FC01F0
7C03F0
7E07E0
3FFFC0
1FFFC0
0FFF00
03FE00
ENDCHAR
STARTCHAR P
ENCODING 80
SWIDTH 652 0
DWIDTH 21 0
BBX 17 23 3 0
BITMAP
FFF000
FFFC00
FFFE00
F07F00
F01F00
F00F80
F00780
F00780
F00F80
F00F80
F01F00
FFFF00
FFFE00
FFFC00
FFE000
F00000
F00000
F00000
F00000
F00000
F00000
F00000
F00000
ENDCHAR
STARTCHAR Q
ENCODING 81
SWIDTH 773 0
DWIDTH 25 0
BBX 21 27 2 -4
BITMAP
07FE00
0FFF80
1FFFC0
3FDFE0
7E07E0
7C03F0
F801F0
F801F0
F801F8
F800F8
F800F8
F800F8
F800F8
F800F8
F801F8
F801F0
F801F0
7C03F0
7E07E0
3FFFC0
1FFFC0
0FFF80
03FFC0
0007F8
0003F8
0001F8
000078
ENDCHAR
STARTCHAR R
ENCODING 82
SWIDTH 696 0
DWIDTH 22 0
BBX 18 23 3 0
BITMAP
FFF800
FFFE00
FFFF00
F07F80
F00F80
F00F80
F00780
F00780
F00F80
F01F80
FFFF00
FFFF00
FFFE00
FFF800
F07C00
F03C00
F03E00
F03E00
F01F00
F01F00
F00F00
F00F80
F00FC0
ENDCHAR
STARTCHAR S
ENCODING 83
SWIDTH 692 0
DWIDTH 22 0
BBX 19 23 2 0
BITMAP
07FC00
1FFF00
3FFF80
7E1FC0
7C07C0
F807C0
F803C0
FC0000
FE0000
7FF000
3FFE00
1FFF80
0FFF80
00FFC0
000FC0
0003E0
F003E0
F803C0
FC07C0
7F9FC0
7FFF80
1FFF00
07FC00
ENDCHAR
STARTCHAR T
ENCODING 84
SWIDTH 616 0
DWIDTH 20 0
BBX 18 23 1 0
BITMAP
FFFFC0
FFFFC0
FFFFC0
FFFFC0
01E000
01E000
01E000
01E000
01E000
01E000
01E000
01E000
01E000
01E000
01E000
01E000
01E000
01E000
01E000
01E000
01E000
01E000
01E000
ENDCHAR
STARTCHAR U
ENCODING 85
SWIDTH 724 0
DWIDTH 23 0
BBX 18 23 3 0
BITMAP
F007C0
F007C0
F007C0
F007C0
F007C0
F007C0
F007C0
F007C0
F007C0
F007C0
F007C0
F007C0
F007C0
F007C0
F007C0
F807C0
F807C0
F807C0
FC0F80
7FFF80
7FFF00
3FFE00
0FFC00
ENDCHAR
STARTCHAR V
ENCODING 86
SWIDTH 703 0
DWIDTH 23 0
BBX 21 23 1 0
BITMAP
F000F8
F800F0
7801F0
7801F0
7C01E0
3C03E0
3C03E0
3E03C0
1E07C0
1E07C0
1F0780
0F0F80
0F0F80
0F8F00
079F00
07DF00
07DE00
03FE00
03FC00
03FC00
01FC00
01F800
01F800
ENDCHAR
STARTCHAR W
ENCODING 87
SWIDTH 968 0
DWIDTH 31 0
BBX 29 23 1 0
BITMAP
F0070078
F80F80F8
F80F80F8
780F80F0
781F80F0
7C1FC1F0
3C1FC1E0
3C1FC1E0
3E3DE3E0
3E3DE3E0
1E3DE3C0
1E38E3C0
1F78F7C0
0F78F780
0F78F780
0FF07F80
07F07F00
07F07F00
07E03F00
07E03F00
03E03E00
03E03E00
03C01E00
ENDCHAR
STARTCHAR X
ENCODING 88
SWIDTH 717 0
DWIDTH 23 0
BBX 21 23 1 0
BITMAP
FC01F0
7E03E0
3F07C0
1F07C0
1F8F80
0F8F00
0FDF00
07FE00
03FC00
03FC00
01F800
01F800
01FC00
03FE00
07FE00
07DF00
0F9F80
1F0F80
1F0FC0
3E07E0
7C03E0
7C03F0
F801F8
ENDCHAR
STARTCHAR Y
ENCODING 89
SWIDTH 667 0
DWIDTH 21 0
BBX 21 23 0 0
BITMAP
FC00F8
7C01F0
3E03E0
3E03E0
1F07C0
0F87C0
0F8F80
07CF00
07DF00
03FE00
01FE00
01FC00
00F800
00F800
00F800
00F800
00F800
00F800
00F800
00F800
00F800
00F800
00F800
ENDCHAR
STARTCHAR Z
ENCODING 90
SWIDTH 669 0
DWIDTH 21 0
BBX 18 23 2 0
BITMAP
7FFFC0
7FFFC0
7FFFC0
7FFF80
001F00
003F00
003E00
007C00
00FC00
01F800
01F000
03F000
07E000
07C000
0F8000
1F8000
1F0000
3E0000
7E0000
7FFFC0
FFFFC0
FFFFC0
FFFFC0
ENDCHAR
STARTCHAR bracketleft
ENCODING 91
SWIDTH 337 0
DWIDTH 11 0
BBX 8 28 2 -5
BITMAP
FF
FF
FF
F0
F0
F0
F0
F0
F0
F0
F0
F0
F0
F0
F0
F0
F0
F0
F0
F0
F0
F0
F0
F0
F0
FF
FF
FF
ENDCHAR
STARTCHAR backslash
ENCODING 92
SWIDTH 381 0
DWIDTH 12 0
BBX 12 24 0 -1
BITMAP
F000
7000
7800
3800
3800
3C00
1C00
1C00
1E00
0E00
0E00
0F00
0700
0700
0780
0380
0380
03C0
01C0
01C0
01E0
00E0
00E0
00F0
ENDCHAR
STARTCHAR bracketright
ENCODING 93
SWIDTH 337 0
DWIDTH 11 0
BBX 7 28 1 -5
BITMAP
FE
FE
FE
0E
0E
0E
0E
0E
0E
0E
0E
0E
0E
0E
0E
0E
0E
0E
0E
0E
0E
0E
0E
0E
0E
FE
FE
FE
ENDCHAR
STARTCHAR asciicircum
ENCODING 94
SWIDTH 484 0
DWIDTH 15 0
BBX 13 13 1 4
BITMAP
0200
0700
0780
0F80
0F80
1DC0
1DC0
3CE0
38E0
38F0
7070
7070
E038
ENDCHAR
STARTCHAR underscore
ENCODING 95
SWIDTH 553 0
DWIDTH 18 0
BBX 14 3 2 -4
BITMAP
FFFC
FFFC
FFFC
ENDCHAR
STARTCHAR grave
ENCODING 96
SWIDTH 264 0
DWIDTH 8 0
BBX 8 5 0 18
BITMAP
F8
3C
1E
0F
07
ENDCHAR
STARTCHAR a
ENCODING 97
SWIDTH 566 0
DWIDTH 18 0
BBX 15 17 1 0
BITMAP
07E0
1FFC
3FFE
7E7E
781E
001E
001E
0FFE
3FFE
7E1E
781E
F81E
F81E
F83E
7FFE
7FDE
1F9E
ENDCHAR
STARTCHAR b
ENCODING 98
SWIDTH 608 0
DWIDTH 19 0
BBX 16 24 2 0
BITMAP
F800
F800
F800
F800
F800
F800
F800
F9F0
FBFC
FFFE
FFFE
FC3F
F81F
F81F
F80F
F80F
F80F
F80F
F81F
F81F
FC3E
FFFE
F7FC
E3F8
ENDCHAR
STARTCHAR c
ENCODING 99
SWIDTH 547 0
DWIDTH 18 0
BBX 15 17 1 0
BITMAP
03E0
0FF8
3FFC
3FFC
7C3E
781E
F800
F800
F800
F800
F800
781E
7C1E
7E3E
3FFC
1FF8
0FF0
ENDCHAR
STARTCHAR d
ENCODING 100
SWIDTH 608 0
DWIDTH 19 0
BBX 16 24 1 0
BITMAP
000F
000F
000F
000F
000F
000F
000F
078F
1FEF
3FFF
7FFF
7C1F
781F
F80F
F80F
F80F
F80F
F80F
F81F
7C1F
7E3F
3FF7
3FF7
0FC7
ENDCHAR
STARTCHAR e
ENCODING 101
SWIDTH 576 0
DWIDTH 18 0
BBX 16 17 1 0
BITMAP
03E0
0FF8
1FFC
3F7E
7C1E
781F
780F
FFFF
FFFF
FFFF
F800
7800
7C1F
7E3F
3FFE
1FFC
07F0
ENDCHAR
STARTCHAR f
ENCODING 102
SWIDTH 396 0
DWIDTH 13 0
BBX 11 23 1 0
BITMAP
07E0
0FE0
1FE0
1F00
1E00
1E00
FFE0
FFE0
FFE0
FFE0
1F00
1F00
1F00
1F00
1F00
1F00
1F00
1F00
1F00
1F00
1F00
1F00
1F00
ENDCHAR
STARTCHAR g
ENCODING 103
SWIDTH 628 0
DWIDTH 20 0
BBX 18 22 1 -5
BITMAP
03E0C0
1FFFC0
3FFFC0
7C1F00
7C1F00
7C1F00
7C1F00
7C1E00
3FFE00
1FFC00
1FE000
780000
7FF000
7FFE00
3FFF80
3FFF80
780F80
F007C0
F00780
FC0F80
7FFF00
3FFC00
ENDCHAR
STARTCHAR h
ENCODING 104
SWIDTH 592 0
DWIDTH 19 0
BBX 15 24 2 0
BITMAP
F800
F800
F800
F800
F800
F800
F800
F860
FBF8
FFFC
FFFE
FC3E
F83E
F83E
F83E
F83E
F83E
F83E
F83E
F83E
F83E
F83E
F83E
F83E
ENDCHAR
STARTCHAR i
ENCODING 105
SWIDTH 267 0
DWIDTH 9 0
BBX 5 23 2 0
BITMAP
F8
F8
F8
F8
00
00
F8
F8
F8
F8
F8
F8
F8
F8
F8
F8
F8
F8
F8
F8
F8
F8
F8
ENDCHAR
STARTCHAR j
ENCODING 106
SWIDTH 288 0
DWIDTH 9 0
BBX 8 28 -1 -5
BITMAP
1F
1F
1F
1F
00
00
0F
0F
0F
0F
0F
0F
0F
0F
0F
0F
0F
0F
0F
0F
0F
0F
0F
1F
3F
FF
FE
FC
ENDCHAR
STARTCHAR k
ENCODING 107
SWIDTH 579 0
DWIDTH 19 0
BBX 16 24 2 0
BITMAP
F800
F800
F800
F800
F800
F800
F800
F81F
F83E
F87C
F8F8
F9F0
FBE0
FFC0
FFC0
FFE0
FFE0
FDF0
F8F8
F878
F87C
F83C
F83E
F81F
ENDCHAR
STARTCHAR l
ENCODING 108
SWIDTH 329 0
DWIDTH 11 0
BBX 7 24 2 0
BITMAP
F8
F8
F8
F8
F8
F8
F8
F8
F8
F8
F8
F8
F8
F8
F8
F8
F8
F8
F8
F8
F8
FE
7E
3E
ENDCHAR
STARTCHAR m
ENCODING 109
SWIDTH 895 0
DWIDTH 29 0
BBX 25 17 2 0
BITMAP
F8F07800
FBF8FE00
FFFDFF00
FFFFFF00
FC7F1F80
F83E0F80
F83E0F80
F83E0F80
F83E0F80
F83E0F80
F83E0F80
F83E0F80
F83E0F80
F83E0F80
F83E0F80
F83E0F80
F83E0F80
ENDCHAR
STARTCHAR n
ENCODING 110
SWIDTH 593 0
DWIDTH 19 0
BBX 15 17 2 0
BITMAP
F8E0
FBF8
FFFC
FFFE
FC7E
F83E
F81E
F81E
F81E
F81E
F81E
F81E
F81E
F81E
F81E
F81E
F81E
ENDCHAR
STARTCHAR o
ENCODING 111
SWIDTH 575 0
DWIDTH 18 0
BBX 16 17 1 0
BITMAP
03E0
0FF8
3FFC
3FFE
7C3E
781F
F81F
F80F
F80F
F80F
F81F
781F
7C1F
7E3E
3FFC
1FFC
0FF0
ENDCHAR
STARTCHAR p
ENCODING 112
SWIDTH 607 0
DWIDTH 19 0
BBX 16 22 2 -5
BITMAP
F8F0
FBFC
FFFE
FFFE
FC3F
F81F
F80F
F80F
F80F
F80F
F80F
F81F
FC1F
FE3E
FFFE
FFFC
F9F8
F800
F800
F800
F800
F800
ENDCHAR
STARTCHAR q
ENCODING 113
SWIDTH 607 0
DWIDTH 19 0
BBX 16 22 1 -5
BITMAP
0F8F
1FEF
3FEF
7FFF
7C1F
F81F
F81F
F80F
F80F
F80F
F80F
F81F
7C1F
7E3F
3FFF
3FEF
0FCF
000F
000F
000F
000F
000F
ENDCHAR
STARTCHAR r
ENCODING 114
SWIDTH 412 0
DWIDTH 13 0
BBX 10 17 2 0
BITMAP
F8C0
FBC0
FFC0
FFC0
FFC0
FC00
F800
F800
F800
F800
F800
F800
F800
F800
F800
F800
F800
ENDCHAR
STARTCHAR s
ENCODING 115
SWIDTH 527 0
DWIDTH 17 0
BBX 15 17 1 0
BITMAP
07E0
1FF8
3FFC
7E7C
783C
7800
7E00
7FE0
3FF8
0FFC
01FC
003E
F81E
783C
7FFC
3FF8
0FF0
ENDCHAR
STARTCHAR t
ENCODING 116
SWIDTH 416 0
DWIDTH 13 0
BBX 11 22 1 0
BITMAP
0E00
0E00
1E00
1E00
1E00
FFE0
FFE0
FFE0
FFE0
1E00
1E00
1E00
1E00
1E00
1E00
1E00
1E00
1E00
1F00
1FE0
1FE0
0FE0
ENDCHAR
STARTCHAR u
ENCODING 117
SWIDTH 595 0
DWIDTH 19 0
BBX 15 17 2 0
BITMAP
F03E
F03E
F03E
F03E
F03E
F03E
F03E
F03E
F03E
F03E
F03E
F03E
F83E
FC7E
FFFE
7FDE
1F9E
ENDCHAR
STARTCHAR v
ENCODING 118
SWIDTH 520 0
DWIDTH 17 0
BBX 16 17 0 0
BITMAP
F80F
780F
781E
3C1E
3C1E
3C3C
1E3C
1E3C
1E78
0F78
0F70
07F0
07F0
07E0
03E0
03E0
03C0
ENDCHAR
STARTCHAR w
ENCODING 119
SWIDTH 788 0
DWIDTH 25 0
BBX 24 17 1 0
BITMAP
F0380F
F03C1E
F07C1E
F87C1E
787C3C
78FE3C
78FE3C
3CEE78
3CEF78
3DEF78
1FC770
1FC7F0
1FC7F0
0FC3E0
0F83E0
0F83E0
0783E0
ENDCHAR
STARTCHAR x
ENCODING 120
SWIDTH 588 0
DWIDTH 19 0
BBX 17 17 1 0
BITMAP
F80F80
7C1F00
3E3E00
3E3E00
1F7C00
0FF800
07F000
07F000
03E000
07F000
0FF000
0FF800
1F7C00
3E3E00
7C1E00
7C1F00
F80F80
ENDCHAR
STARTCHAR y
ENCODING 121
SWIDTH 563 0
DWIDTH 18 0
BBX 18 22 0 -5
BITMAP
F807C0
780780
7C0F80
3C0F00
3E0F00
3E1F00
1E1E00
1F3E00
0F3C00
0F3C00
07FC00
07F800
07F800
03F000
03F000
01F000
01E000
03E000
07C000
7FC000
7F8000
7F0000
ENDCHAR
STARTCHAR z
ENCODING 122
SWIDTH 496 0
DWIDTH 16 0
BBX 14 17 1 0
BITMAP
FFFC
FFFC
FFFC
FFFC
00F8
01F0
03E0
07C0
07C0
0F80
1F00
3E00
7E00
7C00
FFFC
FFFC
FFFC
ENDCHAR
STARTCHAR braceleft
ENCODING 123
SWIDTH 384 0
DWIDTH 12 0
BBX 11 28 0 -5
BITMAP
03E0
07E0
0FE0
0F00
0F00
0F00
0F00
0F00
0F00
0F00
0F00
0F00
3E00
F800
FC00
1E00
0F00
0F00
0F00
0F00
0F00
0F00
0F00
0F00
0F00
0FE0
07E0
03E0
ENDCHAR
STARTCHAR bar
ENCODING 124
SWIDTH 268 0
DWIDTH 9 0
BBX 3 31 3 -5
BITMAP
E0
E0
E0
E0
E0
E0
E0
E0
E0
E0
E0
E0
E0
E0
E0
E0
E0
E0
E0
E0
E0
E0
E0
E0
E0
E0
E0
E0
E0
E0
E0
ENDCHAR
STARTCHAR braceright
ENCODING 125
SWIDTH 384 0
DWIDTH 12 0
BBX 11 28 0 -5
BITMAP
FC00
FE00
FF00
0F00
0F00
0F00
0F00
0F00
0F00
0F00
0F00
0F00
07C0
03E0
07E0
0F80
0F00
0F00
0F00
0F00
0F00
0F00
0F00
0F00
0F00
FF00
FE00
FC00
ENDCHAR
STARTCHAR asciitilde
ENCODING 126
SWIDTH 612 0
DWIDTH 20 0
BBX 16 5 2 9
BITMAP
1E02
7F8F
FFFE
E1FC
4078
ENDCHAR
STARTCHAR uni00A0
ENCODING 160
SWIDTH 225 0
DWIDTH 7 0
BBX 1 1 0 0
BITMAP
00
ENDCHAR
STARTCHAR exclamdown
ENCODING 161
SWIDTH 282 0
DWIDTH 9 0
BBX 5 22 2 -5
BITMAP
F8
F8
F8
F8
F8
00
00
00
70
70
70
70
F0
F0
F0
F8
F8
F8
F8
F8
F8
F8
ENDCHAR
STARTCHAR cent
ENCODING 162
SWIDTH 561 0
DWIDTH 18 0
BBX 15 23 2 0
BITMAP
0380
0380
0380
0FE0
3FF8
7FF8
7C7C
F83C
F01E
F000
F000
F000
F000
F002
F81C
783C
7FFC
3FF8
1FF0
07C0
0380
0380
0380
ENDCHAR
STARTCHAR sterling
ENCODING 163
SWIDTH 648 0
DWIDTH 21 0
BBX 18 23 1 0
BITMAP
07FC00
0FFE00
1FFF00
1F9F80
3F0F00
3F0000
3F0000
3F0000
3F0000
1F0000
FFF800
FFF800
1F8000
1F8000
1F8000
1F0000
1F0000
1F03C0
1E07C0
FFFFC0
FFFF80
FFFF00
FFFC00
ENDCHAR
STARTCHAR currency
ENCODING 164
SWIDTH 578 0
DWIDTH 19 0
BBX 16 16 1 4
BITMAP
2000
6086
FFFF
7FFE
3FFC
3C1C
781E
700E
700E
700E
381E
3C3C
3FFC
7FFE
F7EF
6004
ENDCHAR
STARTCHAR yen
ENCODING 165
SWIDTH 659 0
DWIDTH 21 0
BBX 21 23 0 0
BITMAP
FC00F8
7E01F0
7E01F0
3F03E0
1F83C0
1F87C0
0FC780
0FCF80
07FF00
03FE00
03FE00
01FC00
1FFFC0
1FFFC0
00F800
00F800
00F800
1FFFC0
1FFFC0
00F800
00F800
00F800
00F800
ENDCHAR
STARTCHAR brokenbar
ENCODING 166
SWIDTH 268 0
DWIDTH 9 0
BBX 3 31 3 -5
BITMAP
E0
E0
E0
E0
E0
E0
E0
E0
E0
E0
E0
E0
E0
00
00
00
00
00
E0
E0
E0
E0
E0
E0
E0
E0
E0
E0
E0
E0
E0
ENDCHAR
STARTCHAR section
ENCODING 167
SWIDTH 512 0
DWIDTH 16 0
BBX 14 25 1 -2
BITMAP
1FE0
3FF0
7EFC
7838
F800
7C00
7F00
3FE0
1FF0
7FF8
78FC
F03C
F03C
F83C
7E78
7FF0
1FF0
07F8
01FC
007C
203C
F03C
FCFC
7FF8
1FF0
ENDCHAR
STARTCHAR dieresis
ENCODING 168
SWIDTH 381 0
DWIDTH 12 0
BBX 12 4 0 19
BITMAP
F8F0
F8F0
F8F0
F8F0
ENDCHAR
STARTCHAR copyright
ENCODING 169
SWIDTH 830 0
DWIDTH 27 0
BBX 24 23 1 0
BITMAP
01FF80
03FFE0
0F81F0
1E0078
1C003C
387E1C
70FF0E
71E78E
63C3C7
E3C007
E3C007
E3C007
E3C007
E3C107
71C1C7
71F78E
70FF0E
383E1C
1C003C
1E0078
0FC3F0
03FFC0
00FF80
ENDCHAR
STARTCHAR ordfeminine
ENCODING 170
SWIDTH 406 0
DWIDTH 13 0
BBX 10 10 1 13
BITMAP
3F80
7FC0
21C0
01C0
3FC0
79C0
E1C0
E1C0
7FC0
7DC0
ENDCHAR
STARTCHAR guillemotleft
ENCODING 171
SWIDTH 499 0
DWIDTH 16 0
BBX 12 12 2 2
BITMAP
1C70
38E0
38E0
71C0
F1C0
E3C0
F3C0
71C0
71C0
38E0
3860
1C70
ENDCHAR
STARTCHAR logicalnot
ENCODING 172
SWIDTH 588 0
DWIDTH 19 0
BBX 15 8 2 5
BITMAP
FFFE
FFFE
FFFE
001E
001E
001E
001E
001E
ENDCHAR
STARTCHAR uni00AD
ENCODING 173
SWIDTH 393 0
DWIDTH 13 0
BBX 9 3 2 7
BITMAP
FF80
FF80
FF80
ENDCHAR
STARTCHAR registered
ENCODING 174
SWIDTH 552 0
DWIDTH 18 0
BBX 15 14 1 9
BITMAP
0FE0
1E78
301C
678C
67E6
C666
C7E6
C7C6
C6C6
6646
666C
301C
1EF8
0FE0
ENDCHAR
STARTCHAR macron
ENCODING 175
SWIDTH 393 0
DWIDTH 13 0
BBX 11 3 1 19
BITMAP
FFE0
FFE0
FFE0
ENDCHAR
STARTCHAR degree
ENCODING 176
SWIDTH 474 0
DWIDTH 15 0
BBX 11 11 2 16
BITMAP
0E00
3F80
7FC0
F1C0
E0E0
E0E0
E0E0
E1E0
7FC0
3F80
1F00
ENDCHAR
STARTCHAR plusminus
ENCODING 177
SWIDTH 588 0
DWIDTH 19 0
BBX 15 21 2 1
BITMAP
0380
0380
0380
0380
0380
0380
FFFE
FFFE
FFFE
0380
0380
0380
0380
0380
0380
0000
0000
FFFE
FFFE
FFFE
FFFE
ENDCHAR
STARTCHAR uni00B2
ENCODING 178
SWIDTH 392 0
DWIDTH 13 0
BBX 11 14 1 12
BITMAP
3F80
7FC0
F1C0
E1E0
E1E0
01C0
07C0
1F80
3E00
7800
F000
E000
FFE0
FFE0
ENDCHAR
STARTCHAR uni00B3
ENCODING 179
SWIDTH 425 0
DWIDTH 14 0
BBX 12 15 1 11
BITMAP
3FC0
7FE0
F1E0
E0E0
00E0
03E0
0F80
0FC0
01E0
00F0
E0F0
F0E0
7FE0
3FC0
0400
ENDCHAR
STARTCHAR acute
ENCODING 180
SWIDTH 264 0
DWIDTH 8 0
BBX 8 5 0 18
BITMAP
1F
3E
3C
78
F0
ENDCHAR
STARTCHAR uni00B5
ENCODING 181
SWIDTH 604 0
DWIDTH 19 0
BBX 15 22 2 -5
BITMAP
F83E
F83E
F83E
F83E
F83E
F83E
F83E
F83E
F83E
F83E
F83E
F83E
FC7E
FFFE
FFDE
FF9E
F81E
F800
F800
F800
F800
F800
ENDCHAR
STARTCHAR paragraph
ENCODING 182
SWIDTH 599 0
DWIDTH 19 0
BBX 16 26 1 -3
BITMAP
0FFF
1FFF
3FFF
7FCC
7FCC
FFCC
FFCC
FFCC
FFCC
7FCC
7FCC
3FCC
0FCC
01CC
01CC
01CC
01CC
01CC
01CC
01CC
01CC
01CC
01CC
01CC
01CC
01CC
ENDCHAR
STARTCHAR periodcentered
ENCODING 183
SWIDTH 259 0
DWIDTH 8 0
BBX 4 5 2 9
BITMAP
F0
F0
F0
F0
F0
ENDCHAR
STARTCHAR cedilla
ENCODING 184
SWIDTH 273 0
DWIDTH 9 0
BBX 8 7 0 -7
BITMAP
18
18
3E
07
47
FF
3C
ENDCHAR
STARTCHAR uni00B9
ENCODING 185
SWIDTH 256 0
DWIDTH 8 0
BBX 5 14 1 12
BITMAP
18
38
F8
F8
38
38
38
38
38
38
38
38
38
38
ENDCHAR
STARTCHAR ordmasculine
ENCODING 186
SWIDTH 403 0
DWIDTH 13 0
BBX 11 10 1 13
BITMAP
3F80
7FC0
71C0
E1E0
E0E0
E0E0
F1E0
71C0
7FC0
3F00
ENDCHAR
STARTCHAR guillemotright
ENCODING 187
SWIDTH 511 0
DWIDTH 16 0
BBX 12 12 2 2
BITMAP
E380
71C0
71C0
38E0
38E0
3CF0
3CF0
38E0
78E0
71C0
6180
E380
ENDCHAR
STARTCHAR onequarter
ENCODING 188
SWIDTH 831 0
DWIDTH 27 0
BBX 25 23 1 0
BITMAP
18003800
38007000
F800E000
F800C000
3801C000
38038000
38030000
38070000
380E0E00
380C1E00
381C3E00
38387E00
38306E00
3870EE00
00E1CE00
00C38E00
01C30E00
0387FF80
0307FF80
0707FF80
0E000E00
0C000E00
1C000E00
ENDCHAR
STARTCHAR onehalf
ENCODING 189
SWIDTH 901 0
DWIDTH 29 0
BBX 27 23 1 0
BITMAP
18003800
38007000
F800E000
F800C000
3801C000
38038000
38030000
38070000
380E0E00
380C3FC0
381C7FC0
3838F1E0
3830E0E0
387000E0
00E001E0
00C007C0
01C01F80
03803E00
03007800
0700F000
0E00FFE0
0C00FFE0
1C00FFE0
ENDCHAR
STARTCHAR threequarters
ENCODING 190
SWIDTH 959 0
DWIDTH 31 0
BBX 29 23 1 0
BITMAP
3FC00380
7FE00700
F1E00E00
E0E00C00
00E01C00
03E03800
0F803000
0FC07000
01E0E0E0
00F0E1E0
E0F1C3E0
F0E383E0
7FE387E0
3FC70EE0
040E1CE0
000E18E0
001C38E0
00387FF8
00387FF8
00707FF8
00E000E0
00E000E0
01C000E0
ENDCHAR
STARTCHAR questiondown
ENCODING 191
SWIDTH 543 0
DWIDTH 17 0
BBX 16 22 1 -5
BITMAP
03E0
03E0
03E0
03E0
03E0
0000
0000
03C0
03C0
03C0
0780
0F80
3F00
7E00
7C00
F800
F808
F81F
FC3E
7FFC
3FFC
1FF0
ENDCHAR
STARTCHAR Agrave
ENCODING 192
SWIDTH 726 0
DWIDTH 23 0
BBX 21 30 1 0
BITMAP
0F8000
03C000
01E000
00F000
007000
000000
000000
00F800
00FC00
01FC00
01FC00
03FE00
03DE00
03DE00
07CF00
078F00
078F80
0F8780
0F0780
0F07C0
1F03C0
1FFFC0
1FFFE0
3FFFE0
3FFFE0
7C01F0
7C01F0
7800F0
F800F8
F80078
ENDCHAR
STARTCHAR Aacute
ENCODING 193
SWIDTH 726 0
DWIDTH 23 0
BBX 21 30 1 0
BITMAP
000F80
001E00
003C00
003800
007000
000000
000000
00F800
00FC00
01FC00
01FC00
03FE00
03DE00
03DE00
07CF00
078F00
078F80
0F8780
0F0780
0F07C0
1F03C0
1FFFC0
1FFFE0
3FFFE0
3FFFE0
7C01F0
7C01F0
7800F0
F800F8
F80078
ENDCHAR
STARTCHAR Acircumflex
ENCODING 194
SWIDTH 726 0
DWIDTH 23 0
BBX 21 30 1 0
BITMAP
007000
00F800
01DC00
038E00
070700
000000
000000
00F800
00FC00
01FC00
01FC00
03FE00
03DE00
03DE00
07CF00
078F00
078F80
0F8780
0F0780
0F07C0
1F03C0
1FFFC0
1FFFE0
3FFFE0
3FFFE0
7C01F0
7C01F0
7800F0
F800F8
F80078
ENDCHAR
STARTCHAR Atilde
ENCODING 195
SWIDTH 726 0
DWIDTH 23 0
BBX 21 30 1 0
BITMAP
03E100
07FF00
07FF00
021E00
000000
000000
000000
00F800
00FC00
01FC00
01FC00
03FE00
03DE00
03DE00
07CF00
078F00
078F80
0F8780
0F0780
0F07C0
1F03C0
1FFFC0
1FFFE0
3FFFE0
3FFFE0
7C01F0
7C01F0
7800F0
F800F8
F80078
ENDCHAR
STARTCHAR Adieresis
ENCODING 196
SWIDTH 726 0
DWIDTH 23 0
BBX 21 30 1 0
BITMAP
078F80
078F80
078F80
078F80
000000
000000
000000
00F800
00FC00
01FC00
01FC00
03FE00
03DE00
03DE00
07CF00
078F00
078F80
0F8780
0F0780
0F07C0
1F03C0
1FFFC0
1FFFE0
3FFFE0
3FFFE0
7C01F0
7C01F0
7800F0
F800F8
F80078
ENDCHAR
STARTCHAR Aring
ENCODING 197
SWIDTH 726 0
DWIDTH 23 0
BBX 21 32 1 0
BITMAP
007000
00F800
018C00
018C00
018C00
00FC00
007800
000000
000000
00F800
00FC00
01FC00
01FC00
03FE00
03DE00
03DE00
07CF00
078F00
078F80
0F8780
0F0780
0F07C0
1F03C0
1FFFC0
1FFFE0
3FFFE0
3FFFE0
7C01F0
7C01F0
7800F0
F800F8
F80078
ENDCHAR
STARTCHAR AE
ENCODING 198
SWIDTH 1040 0
DWIDTH 33 0
BBX 32 23 0 0
BITMAP
000FFFFE
001FFFFE
001FFFFE
003FFFFE
003DF000
007DF000
0079F000
00F9F000
00F1F000
01E1FFFC
01E1FFFC
03C1FFFC
03C1FFFC
0781F000
07FFF000
0FFFF000
1FFFF000
1FFFF000
3E01F000
3E01FFFF
7C01FFFF
7801FFFF
F801FFFF
ENDCHAR
STARTCHAR Ccedilla
ENCODING 199
SWIDTH 718 0
DWIDTH 23 0
BBX 19 30 2 -7
BITMAP
07FC00
0FFF00
3FFF80
3F9FC0
7E07E0
7C03E0
F803E0
F801E0
F80000
F80000
F80000
F80000
F80000
F80000
F80000
F803E0
F803E0
7C03E0
7E07C0
3FFFC0
1FFF80
0FFF00
03FC00
006000
00E000
00F800
001C00
021C00
03F800
01F000
ENDCHAR
STARTCHAR Egrave
ENCODING 200
SWIDTH 634 0
DWIDTH 20 0
BBX 16 30 3 0
BITMAP
7C00
1E00
0F00
0700
0380
0000
0000
FFFE
FFFE
FFFE
FFFE
F000
F000
F000
F000
F000
FFFC
FFFC
FFFC
FFFC
F000
F000
F000
F000
F000
F000
FFFF
FFFF
FFFF
FFFF
ENDCHAR
STARTCHAR Eacute
ENCODING 201
SWIDTH 634 0
DWIDTH 20 0
BBX 16 30 3 0
BITMAP
007C
00F0
01E0
01C0
0380
0000
0000
FFFE
FFFE
FFFE
FFFE
F000
F000
F000
F000
F000
FFFC
FFFC
FFFC
FFFC
F000
F000
F000
F000
F000
F000
FFFF
FFFF
FFFF
FFFF
ENDCHAR
STARTCHAR Ecircumflex
ENCODING 202
SWIDTH 634 0
DWIDTH 20 0
BBX 16 30 3 0
BITMAP
0380
07C0
0EE0
1C70
3838
0000
0000
FFFE
FFFE
FFFE
FFFE
F000
F000
F000
F000
F000
FFFC
FFFC
FFFC
FFFC
F000
F000
F000
F000
F000
F000
FFFF
FFFF
FFFF
FFFF
ENDCHAR
STARTCHAR Edieresis
ENCODING 203
SWIDTH 634 0
DWIDTH 20 0
BBX 16 30 3 0
BITMAP
3C7C
3C7C
3C78
3C78
0000
0000
0000
FFFE
FFFE
FFFE
FFFE
F000
F000
F000
F000
F000
FFFC
FFFC
FFFC
FFFC
F000
F000
F000
F000
F000
F000
FFFF
FFFF
FFFF
FFFF
ENDCHAR
STARTCHAR Igrave
ENCODING 204
SWIDTH 307 0
DWIDTH 10 0
BBX 9 30 -2 0
BITMAP
FC00
3C00
1E00
0F00
0780
0000
0000
0780
0780
0780
0780
0780
0780
0780
0780
0780
0780
0780
0780
0780
0780
0780
0780
0780
0780
0780
0780
0780
0780
0780
ENDCHAR
STARTCHAR Iacute
ENCODING 205
SWIDTH 307 0
DWIDTH 10 0
BBX 8 30 3 0
BITMAP
1F
3E
3C
78
F0
00
00
F0
F0
F0
F0
F0
F0
F0
F0
F0
F0
F0
F0
F0
F0
F0
F0
F0
F0
F0
F0
F0
F0
F0
ENDCHAR
STARTCHAR Icircumflex
ENCODING 206
SWIDTH 307 0
DWIDTH 10 0
BBX 12 30 -1 0
BITMAP
0F00
1F80
3FC0
79E0
F0F0
0000
0000
0F00
0F00
0F00
0F00
0F00
0F00
0F00
0F00
0F00
0F00
0F00
0F00
0F00
0F00
0F00
0F00
0F00
0F00
0F00
0F00
0F00
0F00
0F00
ENDCHAR
STARTCHAR Idieresis
ENCODING 207
SWIDTH 307 0
DWIDTH 10 0
BBX 12 30 -1 0
BITMAP
F1F0
F1F0
F1F0
F1F0
0000
0000
0000
0F00
0F00
0F00
0F00
0F00
0F00
0F00
0F00
0F00
0F00
0F00
0F00
0F00
0F00
0F00
0F00
0F00
0F00
0F00
0F00
0F00
0F00
0F00
ENDCHAR
STARTCHAR Eth
ENCODING 208
SWIDTH 749 0
DWIDTH 24 0
BBX 21 23 1 0
BITMAP
3FFC00
3FFF00
3FFFC0
3FFFE0
3E07F0
3E01F0
3E01F8
3E00F8
3E00F8
3E00F8
FFF078
FFF078
FFF0F8
3E00F8
3E00F8
3E00F8
3E01F8
3E03F0
3E07F0
3FFFE0
3FFFC0
3FFF00
3FFC00
ENDCHAR
STARTCHAR Ntilde
ENCODING 209
SWIDTH 782 0
DWIDTH 25 0
BBX 19 30 3 0
BITMAP
07C200
0FFE00
0FFE00
043800
000000
000000
000000
F801E0
F801E0
FC01E0
FE01E0
FE01E0
FF01E0
FF81E0
F7C1E0
F7C1E0
F3E1E0
F1F1E0
F1F1E0
F0F9E0
F07DE0
F07DE0
F03FE0
F01FE0
F01FE0
F00FE0
F007E0
F007E0
F003E0
F001E0
ENDCHAR
STARTCHAR Ograve
ENCODING 210
SWIDTH 760 0
DWIDTH 24 0
BBX 21 30 2 0
BITMAP
0F8000
07C000
03C000
01E000
00F000
000000
000000
03FE00
0FFF80
1FFFC0
3F9FE0
7E07E0
7C03F0
FC01F0
F801F0
F801F8
F800F8
F800F8
F800F8
F800F8
F800F8
F801F8
F801F0
FC01F0
7C03F0
7E07E0
3FFFC0
1FFFC0
0FFF00
03FE00
ENDCHAR
STARTCHAR Oacute
ENCODING 211
SWIDTH 760 0
DWIDTH 24 0
BBX 21 30 2 0
BITMAP
001F80
001E00
003C00
007800
00F000
000000
000000
03FE00
0FFF80
1FFFC0
3F9FE0
7E07E0
7C03F0
FC01F0
F801F0
F801F8
F800F8
F800F8
F800F8
F800F8
F800F8
F801F8
F801F0
FC01F0
7C03F0
7E07E0
3FFFC0
1FFFC0
0FFF00
03FE00
ENDCHAR
STARTCHAR Ocircumflex
ENCODING 212
SWIDTH 760 0
DWIDTH 24 0
BBX 21 30 2 0
BITMAP
00F000
01F800
03FC00
079E00
0F0F00
000000
000000
03FE00
0FFF80
1FFFC0
3F9FE0
7E07E0
7C03F0
FC01F0
F801F0
F801F8
F800F8
F800F8
F800F8
F800F8
F800F8
F801F8
F801F0
FC01F0
7C03F0
7E07E0
3FFFC0
1FFFC0
0FFF00
03FE00
ENDCHAR
STARTCHAR Otilde
ENCODING 213
SWIDTH 760 0
DWIDTH 24 0
BBX 21 30 2 0
BITMAP
03C200
07FF00
07FF00
041C00
000000
000000
000000
03FE00
0FFF80
1FFFC0
3F9FE0
7E07E0
7C03F0
FC01F0
F801F0
F801F8
F800F8
F800F8
F800F8
F800F8
F800F8
F801F8
F801F0
FC01F0
7C03F0
7E07E0
3FFFC0
1FFFC0
0FFF00
03FE00
ENDCHAR
STARTCHAR Odieresis
ENCODING 214
SWIDTH 760 0
DWIDTH 24 0
BBX 21 30 2 0
BITMAP
0F8F00
0F8F00
0F8F00
0F8F00
000000
000000
000000
03FE00
0FFF80
1FFFC0
3F9FE0
7E07E0
7C03F0
FC01F0
F801F0
F801F8
F800F8
F800F8
F800F8
F800F8
F800F8
F801F8
F801F0
FC01F0
7C03F0
7E07E0
3FFFC0
1FFFC0
0FFF00
03FE00
ENDCHAR
STARTCHAR multiply
ENCODING 215
SWIDTH 576 0
DWIDTH 18 0
BBX 15 15 2 4
BITMAP
2008
701C
F83E
7C78
3EF0
1FE0
0FC0
07C0
0FE0
1FF0
3CF8
787C
F03E
6018
2008
ENDCHAR
STARTCHAR Oslash
ENCODING 216
SWIDTH 776 0
DWIDTH 25 0
BBX 23 24 1 0
BITMAP
000008
01FF0C
07FFDE
0FFFFC
1FC7F8
3F01F0
3E01F8
7E03F8
7E07F8
7E0FFC
7C1EFC
7C3CFC
7C78FC
7CF0FC
7DE0FC
7FC0FC
7FC0F8
7F80F8
3F01F8
3F03F0
7FEFF0
FFFFE0
F7FFC0
61FF00
ENDCHAR
STARTCHAR Ugrave
ENCODING 217
SWIDTH 724 0
DWIDTH 23 0
BBX 18 30 3 0
BITMAP
3F0000
0F0000
078000
03C000
01E000
000000
000000
F007C0
F007C0
F007C0
F007C0
F007C0
F007C0
F007C0
F007C0
F007C0
F007C0
F007C0
F007C0
F007C0
F007C0
F007C0
F807C0
F807C0
F807C0
FC0F80
7FFF80
7FFF00
3FFE00
0FFC00
ENDCHAR
STARTCHAR Uacute
ENCODING 218
SWIDTH 724 0
DWIDTH 23 0
BBX 18 30 3 0
BITMAP
003E00
007C00
007800
00F000
01C000
000000
000000
F007C0
F007C0
F007C0
F007C0
F007C0
F007C0
F007C0
F007C0
F007C0
F007C0
F007C0
F007C0
F007C0
F007C0
F007C0
F807C0
F807C0
F807C0
FC0F80
7FFF80
7FFF00
3FFE00
0FFC00
ENDCHAR
STARTCHAR Ucircumflex
ENCODING 219
SWIDTH 724 0
DWIDTH 23 0
BBX 18 30 3 0
BITMAP
01E000
03F000
07F800
0F3C00
1E1E00
000000
000000
F007C0
F007C0
F007C0
F007C0
F007C0
F007C0
F007C0
F007C0
F007C0
F007C0
F007C0
F007C0
F007C0
F007C0
F007C0
F807C0
F807C0
F807C0
FC0F80
7FFF80
7FFF00
3FFE00
0FFC00
ENDCHAR
STARTCHAR Udieresis
ENCODING 220
SWIDTH 724 0
DWIDTH 23 0
BBX 18 30 3 0
BITMAP
1E3E00
1E3E00
1E3E00
1E3E00
000000
000000
000000
F007C0
F007C0
F007C0
F007C0
F007C0
F007C0
F007C0
F007C0
F007C0
F007C0
F007C0
F007C0
F007C0
F007C0
F007C0
F807C0
F807C0
F807C0
FC0F80
7FFF80
7FFF00
3FFE00
0FFC00
ENDCHAR
STARTCHAR Yacute
ENCODING 221
SWIDTH 667 0
DWIDTH 21 0
BBX 21 30 0 0
BITMAP
000FC0
000F00
001E00
003C00
007800
000000
000000
FC00F8
7C01F0
3E03E0
3E03E0
1F07C0
0F87C0
0F8F80
07CF00
07DF00
03FE00
01FE00
01FC00
00F800
00F800
00F800
00F800
00F800
00F800
00F800
00F800
00F800
00F800
00F800
ENDCHAR
STARTCHAR Thorn
ENCODING 222
SWIDTH 680 0
DWIDTH 22 0
BBX 18 23 3 0
BITMAP
F00000
F00000
F00000
F00000
FFE000
FFFE00
FFFF00
FFFF80
F01F80
F00FC0
F007C0
F007C0
F007C0
F00F80
FFFF80
FFFF00
FFFE00
FFF800
F00000
F00000
F00000
F00000
F00000
ENDCHAR
STARTCHAR germandbls
ENCODING 223
SWIDTH 627 0
DWIDTH 20 0
BBX 17 23 2 0
BITMAP
0FF000
1FF800
3FFC00
7C3C00
F83E00
F83C00
F83C00
F8F800
F9F000
FBC000
FBC000
FBF000
FBFC00
F9FE00
F8FF00
F83F00
F80F80
F80780
F80780
F90F80
F9FF00
FBFE00
FBFC00
ENDCHAR
STARTCHAR agrave
ENCODING 224
SWIDTH 566 0
DWIDTH 18 0
BBX 15 23 1 0
BITMAP
3E00
0F00
0780
0380
01C0
0000
07E0
1FFC
3FFE
7E7E
781E
001E
001E
0FFE
3FFE
7E1E
781E
F81E
F81E
F83E
7FFE
7FDE
1F9E
ENDCHAR
STARTCHAR aacute
ENCODING 225
SWIDTH 566 0
DWIDTH 18 0
BBX 15 23 1 0
BITMAP
007E
0078
00F0
01E0
01C0
0000
07E0
1FFC
3FFE
7E7E
781E
001E
001E
0FFE
3FFE
7E1E
781E
F81E
F81E
F83E
7FFE
7FDE
1F9E
ENDCHAR
STARTCHAR acircumflex
ENCODING 226
SWIDTH 566 0
DWIDTH 18 0
BBX 15 23 1 0
BITMAP
01C0
03E0
0770
0E38
1C3C
0000
07E0
1FFC
3FFE
7E7E
781E
001E
001E
0FFE
3FFE
7E1E
781E
F81E
F81E
F83E
7FFE
7FDE
1F9E
ENDCHAR
STARTCHAR atilde
ENCODING 227
SWIDTH 566 0
DWIDTH 18 0
BBX 15 23 1 0
BITMAP
0F0C
1FFC
1FFC
1078
0000
0000
07E0
1FFC
3FFE
7E7E
781E
001E
001E
0FFE
3FFE
7E1E
781E
F81E
F81E
F83E
7FFE
7FDE
1F9E
ENDCHAR
STARTCHAR adieresis
ENCODING 228
SWIDTH 566 0
DWIDTH 18 0
BBX 15 23 1 0
BITMAP
3E3C
3E3C
3E3C
3E3C
0000
0000
07E0
1FFC
3FFE
7E7E
781E
001E
001E
0FFE
3FFE
7E1E
781E
F81E
F81E
F83E
7FFE
7FDE
1F9E
ENDCHAR
STARTCHAR aring
ENCODING 229
SWIDTH 566 0
DWIDTH 18 0
BBX 15 25 1 0
BITMAP
01C0
03E0
0670
0630
0630
07E0
03C0
0000
07E0
1FFC
3FFE
7E7E
781E
001E
001E
0FFE
3FFE
7E1E
781E
F81E
F81E
F83E
7FFE
7FDE
1F9E
ENDCHAR
STARTCHAR ae
ENCODING 230
SWIDTH 913 0
DWIDTH 29 0
BBX 27 17 1 0
BITMAP
07E07C00
1FF9FF00
3FFFFF80
7E7FCFC0
781F83C0
001F03C0
001F03E0
0FFFFFE0
3FFFFFE0
7E1FFFE0
781F0000
F81F0000
F83F03E0
F83FC7C0
7FF7FFC0
7FE3FF80
1FC1FE00
ENDCHAR
STARTCHAR ccedilla
ENCODING 231
SWIDTH 547 0
DWIDTH 18 0
BBX 15 24 1 -7
BITMAP
03E0
0FF8
3FFC
3FFC
7C3E
781E
F800
F800
F800
F800
F800
781E
7C1E
7E3E
3FFC
1FF8
0FF0
0180
0180
03E0
0070
0470
0FE0
03C0
ENDCHAR
STARTCHAR egrave
ENCODING 232
SWIDTH 576 0
DWIDTH 18 0
BBX 16 23 1 0
BITMAP
3E00
0F00
0780
0380
01C0
0000
03E0
0FF8
1FFC
3F7E
7C1E
781F
780F
FFFF
FFFF
FFFF
F800
7800
7C1F
7E3F
3FFE
1FFC
07F0
ENDCHAR
STARTCHAR eacute
ENCODING 233
SWIDTH 576 0
DWIDTH 18 0
BBX 16 23 1 0
BITMAP
007E
0078
00F0
01E0
01C0
0000
03E0
0FF8
1FFC
3F7E
7C1E
781F
780F
FFFF
FFFF
FFFF
F800
7800
7C1F
7E3F
3FFE
1FFC
07F0
ENDCHAR
STARTCHAR ecircumflex
ENCODING 234
SWIDTH 576 0
DWIDTH 18 0
BBX 16 23 1 0
BITMAP
01C0
03E0
0770
0E38
1C3C
0000
03E0
0FF8
1FFC
3F7E
7C1E
781F
780F
FFFF
FFFF
FFFF
F800
7800
7C1F
7E3F
3FFE
1FFC
07F0
ENDCHAR
STARTCHAR edieresis
ENCODING 235
SWIDTH 576 0
DWIDTH 18 0
BBX 16 23 1 0
BITMAP
3E3C
3E3C
3E3C
3E3C
0000
0000
03E0
0FF8
1FFC
3F7E
7C1E
781F
780F
FFFF
FFFF
FFFF
F800
7800
7C1F
7E3F
3FFE
1FFC
07F0
ENDCHAR
STARTCHAR igrave
ENCODING 236
SWIDTH 264 0
DWIDTH 8 0
BBX 7 23 -1 0
BITMAP
F8
7C
3C
1C
0A
00
1E
1E
1E
1E
1E
1E
1E
1E
1E
1E
1E
1E
1E
1E
1E
1E
1E
ENDCHAR
STARTCHAR iacute
ENCODING 237
SWIDTH 264 0
DWIDTH 8 0
BBX 7 23 2 0
BITMAP
3E
3C
78
78
70
00
F0
F0
F0
F0
F0
F0
F0
F0
F0
F0
F0
F0
F0
F0
F0
F0
F0
ENDCHAR
STARTCHAR icircumflex
ENCODING 238
SWIDTH 264 0
DWIDTH 8 0
BBX 12 23 -2 0
BITMAP
0700
0F80
1FC0
79E0
F0F0
0000
0F00
0F00
0F00
0F00
0F00
0F00
0F00
0F00
0F00
0F00
0F00
0F00
0F00
0F00
0F00
0F00
0F00
ENDCHAR
STARTCHAR idieresis
ENCODING 239
SWIDTH 384 0
DWIDTH 8 0
BBX 12 23 0 0
BITMAP
F8F0
F8F0
F8F0
F8F0
0000
0000
0F00
0F00
0F00
0F00
0F00
0F00
0F00
0F00
0F00
0F00
0F00
0F00
0F00
0F00
0F00
0F00
0F00
ENDCHAR
STARTCHAR eth
ENCODING 240
SWIDTH 575 0
DWIDTH 18 0
BBX 16 24 1 0
BITMAP
0F00
03C6
01FE
03FC
0FF0
0E78
007C
003C
0FFE
1FFE
3FFF
7C3F
7C1F
F81F
F80F
F80F
F80F
F81F
781F
7C1F
7E3E
3FFC
1FF8
0FF0
ENDCHAR
STARTCHAR ntilde
ENCODING 241
SWIDTH 593 0
DWIDTH 19 0
BBX 15 23 2 0
BITMAP
1F08
3FF8
1FF8
10F0
0000
0000
F8E0
FBF8
FFFC
FFFE
FC7E
F83E
F81E
F81E
F81E
F81E
F81E
F81E
F81E
F81E
F81E
F81E
F81E
ENDCHAR
STARTCHAR ograve
ENCODING 242
SWIDTH 575 0
DWIDTH 18 0
BBX 16 23 1 0
BITMAP
3E00
1F00
0F00
0780
03C0
0000
03E0
0FF8
3FFC
3FFE
7C3E
781F
F81F
F80F
F80F
F80F
F81F
781F
7C1F
7E3E
3FFC
1FFC
0FF0
ENDCHAR
STARTCHAR oacute
ENCODING 243
SWIDTH 575 0
DWIDTH 18 0
BBX 16 23 1 0
BITMAP
007E
0078
00F0
01E0
03C0
0000
03E0
0FF8
3FFC
3FFE
7C3E
781F
F81F
F80F
F80F
F80F
F81F
781F
7C1F
7E3E
3FFC
1FFC
0FF0
ENDCHAR
STARTCHAR ocircumflex
ENCODING 244
SWIDTH 575 0
DWIDTH 18 0
BBX 16 23 1 0
BITMAP
03C0
07E0
0FF0
1E78
3C3C
0000
03E0
0FF8
3FFC
3FFE
7C3E
781F
F81F
F80F
F80F
F80F
F81F
781F
7C1F
7E3E
3FFC
1FFC
0FF0
ENDCHAR
STARTCHAR otilde
ENCODING 245
SWIDTH 575 0
DWIDTH 18 0
BBX 16 23 1 0
BITMAP
0F08
1FFC
1FFC
1070
0000
0000
03E0
0FF8
3FFC
3FFE
7C3E
781F
F81F
F80F
F80F
F80F
F81F
781F
7C1F
7E3E
3FFC
1FFC
0FF0
ENDCHAR
STARTCHAR odieresis
ENCODING 246
SWIDTH 575 0
DWIDTH 18 0
BBX 16 23 1 0
BITMAP
3E3C
3E3C
3E3C
3E3C
0000
0000
03E0
0FF8
3FFC
3FFE
7C3E
781F
F81F
F80F
F80F
F80F
F81F
781F
7C1F
7E3E
3FFC
1FFC
0FF0
ENDCHAR
STARTCHAR divide
ENCODING 247
SWIDTH 588 0
DWIDTH 19 0
BBX 15 17 2 3
BITMAP
07C0
07C0
07C0
07C0
0000
0000
0000
FFFE
FFFE
FFFE
0000
0000
07C0
07C0
07C0
07C0
07C0
ENDCHAR
STARTCHAR oslash
ENCODING 248
SWIDTH 611 0
DWIDTH 20 0
BBX 18 17 1 0
BITMAP
03F080
0FFDC0
1FFF80
3FFF00
3E1F00
7C3F80
7C7F80
7CFF80
7DEF80
7FCF80
7F0F80
7E0F80
3C1F00
3F3F00
7FFE00
EFFC00
47F800
ENDCHAR
STARTCHAR ugrave
ENCODING 249
SWIDTH 595 0
DWIDTH 19 0
BBX 15 23 2 0
BITMAP
7C00
1E00
0F00
0700
0380
0000
F03E
F03E
F03E
F03E
F03E
F03E
F03E
F03E
F03E
F03E
F03E
F03E
F83E
FC7E
FFFE
7FDE
1F9E
ENDCHAR
STARTCHAR uacute
ENCODING 250
SWIDTH 595 0
DWIDTH 19 0
BBX 15 23 2 0
BITMAP
007C
00F0
01E0
03C0
0380
0000
F03E
F03E
F03E
F03E
F03E
F03E
F03E
F03E
F03E
F03E
F03E
F03E
F83E
FC7E
FFFE
7FDE
1F9E
ENDCHAR
STARTCHAR ucircumflex
ENCODING 251
SWIDTH 595 0
DWIDTH 19 0
BBX 15 23 2 0
BITMAP
0380
07C0
0EE0
1C70
3838
0000
F03E
F03E
F03E
F03E
F03E
F03E
F03E
F03E
F03E
F03E
F03E
F03E
F83E
FC7E
FFFE
7FDE
1F9E
ENDCHAR
STARTCHAR udieresis
ENCODING 252
SWIDTH 595 0
DWIDTH 19 0
BBX 15 23 2 0
BITMAP
3C78
3C78
3C78
3C78
0000
0000
F03E
F03E
F03E
F03E
F03E
F03E
F03E
F03E
F03E
F03E
F03E
F03E
F83E
FC7E
FFFE
7FDE
1F9E
ENDCHAR
STARTCHAR yacute
ENCODING 253
SWIDTH 563 0
DWIDTH 18 0
BBX 18 28 0 -5
BITMAP
003E00
007C00
007800
00F000
01E000
000000
F807C0
780780
7C0F80
3C0F00
3E0F00
3E1F00
1E1E00
1F3E00
0F3C00
0F3C00
07FC00
07F800
07F800
03F000
03F000
01F000
01E000
03E000
07C000
7FC000
7F8000
7F0000
ENDCHAR
STARTCHAR thorn
ENCODING 254
SWIDTH 604 0
DWIDTH 19 0
BBX 16 28 2 -5
BITMAP
F800
F800
F800
F800
F800
F800
F9F0
FBFC
FFFC
FC7E
F83F
F81F
F81F
F81F
F81F
F81F
F81F
F81F
F81F
F83E
FFFE
FFFC
FBF8
F800
F800
F800
F800
F800
ENDCHAR
STARTCHAR ydieresis
ENCODING 255
SWIDTH 563 0
DWIDTH 18 0
BBX 18 28 0 -5
BITMAP
1F1E00
1F1E00
1E1E00
1E1E00
000000
000000
F807C0
780780
7C0F80
3C0F00
3E0F00
3E1F00
1E1E00
1F3E00
0F3C00
0F3C00
07FC00
07F800
07F800
03F000
03F000
01F000
01E000
03E000
07C000
7FC000
7F8000
7F0000
ENDCHAR
STARTCHAR Amacron
ENCODING 256
SWIDTH 726 0
DWIDTH 23 0
BBX 21 29 1 0
BITMAP
07FF00
07FF00
07FF00
000000
000000
000000
00F800
00FC00
01FC00
01FC00
03FE00
03DE00
03DE00
07CF00
078F00
078F80
0F8780
0F0780
0F07C0
1F03C0
1FFFC0
1FFFE0
3FFFE0
3FFFE0
7C01F0
7C01F0
7800F0
F800F8
F80078
ENDCHAR
STARTCHAR amacron
ENCODING 257
SWIDTH 566 0
DWIDTH 18 0
BBX 15 22 1 0
BITMAP
1FFC
1FFC
1FFC
0000
0000
07E0
1FFC
3FFE
7E7E
781E
001E
001E
0FFE
3FFE
7E1E
781E
F81E
F81E
F83E
7FFE
7FDE
1F9E
ENDCHAR
STARTCHAR Abreve
ENCODING 258
SWIDTH 726 0
DWIDTH 23 0
BBX 21 30 1 0
BITMAP
070700
078700
03FE00
01FC00
002000
000000
000000
00F800
00FC00
01FC00
01FC00
03FE00
03DE00
03DE00
07CF00
078F00
078F80
0F8780
0F0780
0F07C0
1F03C0
1FFFC0
1FFFE0
3FFFE0
3FFFE0
7C01F0
7C01F0
7800F0
F800F8
F80078
ENDCHAR
STARTCHAR abreve
ENCODING 259
SWIDTH 566 0
DWIDTH 18 0
BBX 15 23 1 0
BITMAP
1C1C
1C3C
0FF8
07F0
0080
0000
07E0
1FFC
3FFE
7E7E
781E
001E
001E
0FFE
3FFE
7E1E
781E
F81E
F81E
F83E
7FFE
7FDE
1F9E
ENDCHAR
STARTCHAR Aogonek
ENCODING 260
SWIDTH 726 0
DWIDTH 23 0
BBX 22 28 1 -5
BITMAP
00F800
00FC00
01FC00
01FC00
03FE00
03DE00
03DE00
07CF00
078F00
078F80
0F8780
0F0780
0F07C0
1F03C0
1FFFC0
1FFFE0
3FFFE0
3FFFE0
7C01F0
7C01F0
7800F0
F800F8
F80078
0000F0
0001E0
0001C4
0001FC
0000FC
ENDCHAR
STARTCHAR aogonek
ENCODING 261
SWIDTH 566 0
DWIDTH 18 0
BBX 16 22 1 -5
BITMAP
07E0
1FFC
3FFE
7E7E
781E
001E
001E
0FFE
3FFE
7E1E
781E
F81E
F81E
F83E
7FFE
7FDE
1F9E
003C
0070
0071
007F
003F
ENDCHAR
STARTCHAR Cacute
ENCODING 262
SWIDTH 718 0
DWIDTH 23 0
BBX 19 30 2 0
BITMAP
001F00
003E00
003C00
007800
00F000
000000
000000
07FC00
0FFF00
3FFF80
3F9FC0
7E07E0
7C03E0
F803E0
F801E0
F80000
F80000
F80000
F80000
F80000
F80000
F80000
F803E0
F803E0
7C03E0
7E07C0
3FFFC0
1FFF80
0FFF00
03FC00
ENDCHAR
STARTCHAR cacute
ENCODING 263
SWIDTH 547 0
DWIDTH 18 0
BBX 15 23 1 0
BITMAP
007E
0078
00F0
01E0
03C0
0000
03E0
0FF8
3FFC
3FFC
7C3E
781E
F800
F800
F800
F800
F800
781E
7C1E
7E3E
3FFC
1FF8
0FF0
ENDCHAR
STARTCHAR Ccircumflex
ENCODING 264
SWIDTH 718 0
DWIDTH 23 0
BBX 19 30 2 0
BITMAP
00F000
01F800
03FC00
079E00
0F0F00
000000
000000
07FC00
0FFF00
3FFF80
3F9FC0
7E07E0
7C03E0
F803E0
F801E0
F80000
F80000
F80000
F80000
F80000
F80000
F80000
F803E0
F803E0
7C03E0
7E07C0
3FFFC0
1FFF80
0FFF00
03FC00
ENDCHAR
STARTCHAR ccircumflex
ENCODING 265
SWIDTH 547 0
DWIDTH 18 0
BBX 15 23 1 0
BITMAP
03C0
07E0
0FF0
1E78
3C3C
0000
03E0
0FF8
3FFC
3FFC
7C3E
781E
F800
F800
F800
F800
F800
781E
7C1E
7E3E
3FFC
1FF8
0FF0
ENDCHAR
STARTCHAR Cdotaccent
ENCODING 266
SWIDTH 718 0
DWIDTH 23 0
BBX 19 30 2 0
BITMAP
00F000
00F000
00F000
00F000
000000
000000
000000
07FC00
0FFF00
3FFF80
3F9FC0
7E07E0
7C03E0
F803E0
F801E0
F80000
F80000
F80000
F80000
F80000
F80000
F80000
F803E0
F803E0
7C03E0
7E07C0
3FFFC0
1FFF80
0FFF00
03FC00
ENDCHAR
STARTCHAR cdotaccent
ENCODING 267
SWIDTH 547 0
DWIDTH 18 0
BBX 15 23 1 0
BITMAP
03C0
03C0
03C0
03C0
0000
0000
03E0
0FF8
3FFC
3FFC
7C3E
781E
F800
F800
F800
F800
F800
781E
7C1E
7E3E
3FFC
1FF8
0FF0
ENDCHAR
STARTCHAR Ccaron
ENCODING 268
SWIDTH 718 0
DWIDTH 23 0
BBX 19 30 2 0
BITMAP
0F0F00
079E00
03FC00
01F800
00F000
000000
000000
07FC00
0FFF00
3FFF80
3F9FC0
7E07E0
7C03E0
F803E0
F801E0
F80000
F80000
F80000
F80000
F80000
F80000
F80000
F803E0
F803E0
7C03E0
7E07C0
3FFFC0
1FFF80
0FFF00
03FC00
ENDCHAR
STARTCHAR ccaron
ENCODING 269
SWIDTH 547 0
DWIDTH 18 0
BBX 15 23 1 0
BITMAP
3C3C
0E78
07F0
03E0
01C0
0000
03E0
0FF8
3FFC
3FFC
7C3E
781E
F800
F800
F800
F800
F800
781E
7C1E
7E3E
3FFC
1FF8
0FF0
ENDCHAR
STARTCHAR Dcaron
ENCODING 270
SWIDTH 720 0
DWIDTH 23 0
BBX 19 30 3 0
BITMAP
1C3C00
0E7800
077000
03E000
01C000
000000
000000
FFE000
FFFC00
FFFE00
FFFF00
F03F80
F00F80
F007C0
F007C0
F007C0
F003C0
F003C0
F003E0
F003C0
F007C0
F007C0
F007C0
F00FC0
F01F80
F03F80
FFFF00
FFFE00
FFF800
FFE000
ENDCHAR
STARTCHAR dcaron
ENCODING 271
SWIDTH 605 0
DWIDTH 19 0
BBX 22 24 1 0
BITMAP
000F3C
000F3C
000F3C
000F1C
000F18
000F18
000F30
078F00
1FEF00
3FFF00
7FFF00
7C1F00
781F00
F80F00
F80F00
F80F00
F80F00
F80F00
F81F00
7C1F00
7E3F00
3FF700
3FF700
0FC700
ENDCHAR
STARTCHAR Dcroat
ENCODING 272
SWIDTH 749 0
DWIDTH 24 0
BBX 21 23 1 0
BITMAP
3FFC00
3FFF00
3FFFC0
3FFFE0
3E07F0
3E01F0
3E01F8
3E00F8
3E00F8
3E00F8
FFF078
FFF078
FFF0F8
3E00F8
3E00F8
3E00F8
3E01F8
3E03F0
3E07F0
3FFFE0
3FFFC0
3FFF00
3FFC00
ENDCHAR
STARTCHAR dcroat
ENCODING 273
SWIDTH 639 0
DWIDTH 20 0
BBX 18 24 1 0
BITMAP
000F00
000F00
000F00
00FFC0
00FFC0
000F00
000F00
078F00
1FEF00
3FFF00
7FFF00
7C1F00
781F00
F80F00
F80F00
F80F00
F80F00
F80F00
F81F00
7C1F00
7E3F00
3FF700
3FF700
0FC700
ENDCHAR
STARTCHAR Emacron
ENCODING 274
SWIDTH 634 0
DWIDTH 20 0
BBX 16 29 3 0
BITMAP
3FF8
3FF8
3FF8
0000
0000
0000
FFFE
FFFE
FFFE
FFFE
F000
F000
F000
F000
F000
FFFC
FFFC
FFFC
FFFC
F000
F000
F000
F000
F000
F000
FFFF
FFFF
FFFF
FFFF
ENDCHAR
STARTCHAR emacron
ENCODING 275
SWIDTH 576 0
DWIDTH 18 0
BBX 16 22 1 0
BITMAP
1FFC
1FFC
1FFC
0000
0000
03E0
0FF8
1FFC
3F7E
7C1E
781F
780F
FFFF
FFFF
FFFF
F800
7800
7C1F
7E3F
3FFE
1FFC
07F0
ENDCHAR
STARTCHAR Ebreve
ENCODING 276
SWIDTH 634 0
DWIDTH 20 0
BBX 16 30 3 0
BITMAP
3838
3C38
1FF0
0FE0
0100
0000
0000
FFFE
FFFE
FFFE
FFFE
F000
F000
F000
F000
F000
FFFC
FFFC
FFFC
FFFC
F000
F000
F000
F000
F000
F000
FFFF
FFFF
FFFF
FFFF
ENDCHAR
STARTCHAR ebreve
ENCODING 277
SWIDTH 576 0
DWIDTH 18 0
BBX 16 23 1 0
BITMAP
1C1C
1C3C
0FF8
07F0
0080
0000
03E0
0FF8
1FFC
3F7E
7C1E
781F
780F
FFFF
FFFF
FFFF
F800
7800
7C1F
7E3F
3FFE
1FFC
07F0
ENDCHAR
STARTCHAR Edotaccent
ENCODING 278
SWIDTH 634 0
DWIDTH 20 0
BBX 16 30 3 0
BITMAP
07C0
07C0
07C0
07C0
0000
0000
0000
FFFE
FFFE
FFFE
FFFE
F000
F000
F000
F000
F000
FFFC
FFFC
FFFC
FFFC
F000
F000
F000
F000
F000
F000
FFFF
FFFF
FFFF
FFFF
ENDCHAR
STARTCHAR edotaccent
ENCODING 279
SWIDTH 576 0
DWIDTH 18 0
BBX 16 23 1 0
BITMAP
03E0
03E0
03E0
03E0
0000
0000
03E0
0FF8
1FFC
3F7E
7C1E
781F
780F
FFFF
FFFF
FFFF
F800
7800
7C1F
7E3F
3FFE
1FFC
07F0
ENDCHAR
STARTCHAR Eogonek
ENCODING 280
SWIDTH 634 0
DWIDTH 20 0
BBX 17 28 3 -5
BITMAP
FFFE00
FFFE00
FFFE00
FFFE00
F00000
F00000
F00000
F00000
F00000
FFFC00
FFFC00
FFFC00
FFFC00
F00000
F00000
F00000
F00000
F00000
F00000
FFFF00
FFFF00
FFFF00
FFFF00
001E00
003800
003880
003F80
003F80
ENDCHAR
STARTCHAR eogonek
ENCODING 281
SWIDTH 576 0
DWIDTH 18 0
BBX 16 22 1 -5
BITMAP
03E0
0FF8
1FFC
3F7E
7C1E
781F
780F
FFFF
FFFF
FFFF
F800
7800
7C1F
7E3E
3FFE
1FFC
07F0
01E0
03C0
03C8
01F8
00F8
ENDCHAR
STARTCHAR Ecaron
ENCODING 282
SWIDTH 634 0
DWIDTH 20 0
BBX 16 30 3 0
BITMAP
3838
1C70
0EE0
07C0
0380
0000
0000
FFFE
FFFE
FFFE
FFFE
F000
F000
F000
F000
F000
FFFC
FFFC
FFFC
FFFC
F000
F000
F000
F000
F000
F000
FFFF
FFFF
FFFF
FFFF
ENDCHAR
STARTCHAR ecaron
ENCODING 283
SWIDTH 568 0
DWIDTH 18 0
BBX 16 23 1 0
BITMAP
3C3C
0E78
07F0
03E0
01C0
0000
03E0
0FF8
1FFC
3F7E
7C1E
781F
780F
FFFF
FFFF
FFFF
F800
7800
7C1F
7E3F
3FFE
1FFC
07F0
ENDCHAR
STARTCHAR Gcircumflex
ENCODING 284
SWIDTH 759 0
DWIDTH 24 0
BBX 20 30 2 0
BITMAP
00F000
01F800
03FC00
079E00
0F0F00
000000
000000
03FE00
0FFF00
1FFF80
3FFFC0
7E07E0
7C03E0
FC03F0
F801F0
F80000
F80000
F80000
F83FF0
F83FF0
F83FF0
F801F0
F801F0
FC01F0
7C03F0
7F07F0
3FFFF0
1FFF70
0FFE70
03FC70
ENDCHAR
STARTCHAR gcircumflex
ENCODING 285
SWIDTH 628 0
DWIDTH 20 0
BBX 18 28 1 -5
BITMAP
01C000
03E000
077000
0E3800
1C1C00
000000
03E0C0
1FFFC0
3FFFC0
7C1F00
7C1F00
7C1F00
7C1F00
7C1E00
3FFE00
1FFC00
1FE000
780000
7FF000
7FFE00
3FFF80
3FFF80
780F80
F007C0
F00780
FC0F80
7FFF00
3FFC00
ENDCHAR
STARTCHAR Gbreve
ENCODING 286
SWIDTH 759 0
DWIDTH 24 0
BBX 20 30 2 0
BITMAP
0E0700
070E00
07FE00
03FC00
006000
000000
000000
03FE00
0FFF00
1FFF80
3FFFC0
7E07E0
7C03E0
FC03F0
F801F0
F80000
F80000
F80000
F83FF0
F83FF0
F83FF0
F801F0
F801F0
FC01F0
7C03F0
7F07F0
3FFFF0
1FFF70
0FFE70
03FC70
ENDCHAR
STARTCHAR gbreve
ENCODING 287
SWIDTH 628 0
DWIDTH 20 0
BBX 18 28 1 -5
BITMAP
1C1C00
1E1C00
0FF800
07F000
008000
000000
03E0C0
1FFFC0
3FFFC0
7C1F00
7C1F00
7C1F00
7C1F00
7C1E00
3FFE00
1FFC00
1FE000
780000
7FF000
7FFE00
3FFF80
3FFF80
780F80
F007C0
F00780
FC0F80
7FFF00
3FFC00
ENDCHAR
STARTCHAR Gdotaccent
ENCODING 288
SWIDTH 759 0
DWIDTH 24 0
BBX 20 30 2 0
BITMAP
00F000
00F000
00F000
00F000
000000
000000
000000
03FE00
0FFF00
1FFF80
3FFFC0
7E07E0
7C03E0
FC03F0
F801F0
F80000
F80000
F80000
F83FF0
F83FF0
F83FF0
F801F0
F801F0
FC01F0
7C03F0
7F07F0
3FFFF0
1FFF70
0FFE70
03FC70
ENDCHAR
STARTCHAR gdotaccent
ENCODING 289
SWIDTH 628 0
DWIDTH 20 0
BBX 18 28 1 -5
BITMAP
03E000
03E000
03E000
03E000
000000
000000
03E0C0
1FFFC0
3FFFC0
7C1F00
7C1F00
7C1F00
7C1F00
7C1E00
3FFE00
1FFC00
1FE000
780000
7FF000
7FFE00
3FFF80
3FFF80
780F80
F007C0
F00780
FC0F80
7FFF00
3FFC00
ENDCHAR
STARTCHAR uni0122
ENCODING 290
SWIDTH 759 0
DWIDTH 24 0
BBX 20 30 2 -7
BITMAP
03FE00
0FFF00
1FFF80
3FFFC0
7E07E0
7C03E0
FC03F0
F801F0
F80000
F80000
F80000
F83FF0
F83FF0
F83FF0
F801F0
F801F0
FC01F0
7C03F0
7F07F0
3FFFF0
1FFF70
0FFE70
03FC70
000000
00F000
00F000
00F000
00F000
006000
00C000
ENDCHAR
STARTCHAR uni0123
ENCODING 291
SWIDTH 628 0
DWIDTH 20 0
BBX 18 29 1 -5
BITMAP
00E000
00C000
01E000
01E000
01E000
01E000
000000
03E0C0
1FFFC0
3FFFC0
7C1F00
7C1F00
7C1F00
7C1F00
7C1E00
3FFE00
1FFC00
1FE000
780000
7FF000
7FFE00
3FFF80
3FFF80
780F80
F007C0
F00780
FC0F80
7FFF00
3FFC00
ENDCHAR
STARTCHAR Hcircumflex
ENCODING 292
SWIDTH 770 0
DWIDTH 25 0
BBX 19 30 3 0
BITMAP
00E000
01F000
03B800
073C00
1E1E00
000000
000000
F003E0
F003E0
F003E0
F003E0
F003E0
F003E0
F003E0
F003E0
F003E0
FFFFE0
FFFFE0
FFFFE0
FFFFE0
F003E0
F003E0
F003E0
F003E0
F003E0
F003E0
F003E0
F003E0
F003E0
F003E0
ENDCHAR
STARTCHAR hcircumflex
ENCODING 293
SWIDTH 592 0
DWIDTH 19 0
BBX 19 30 -2 0
BITMAP
070000
0F8000
3FC000
79E000
F0F000
000000
0F8000
0F8000
0F8000
0F8000
0F8000
0F8000
0F8000
0F8600
0FBF80
0FFFC0
0FFFE0
0FC3E0
0F83E0
0F83E0
0F83E0
0F83E0
0F83E0
0F83E0
0F83E0
0F83E0
0F83E0
0F83E0
0F83E0
0F83E0
ENDCHAR
STARTCHAR Hbar
ENCODING 294
SWIDTH 824 0
DWIDTH 26 0
BBX 25 23 1 0
BITMAP
1E007C00
1E007C00
1E007C00
FFFFFF80
FFFFFF80
1E007C00
1E007C00
1E007C00
1E007C00
1FFFFC00
1FFFFC00
1FFFFC00
1FFFFC00
1E007C00
1E007C00
1E007C00
1E007C00
1E007C00
1E007C00
1E007C00
1E007C00
1E007C00
1E007C00
ENDCHAR
STARTCHAR hbar
ENCODING 295
SWIDTH 618 0
DWIDTH 20 0
BBX 17 24 1 0
BITMAP
3C0000
3C0000
3C0000
FFC000
FFC000
3C0000
3C0000
3C3800
3CFE00
3DFF00
3FFF80
3F1F80
3E0F80
3E0F80
3E0F80
3E0F80
3E0F80
3E0F80
3E0F80
3E0F80
3E0F80
3E0F80
3E0F80
3E0F80
ENDCHAR
STARTCHAR Itilde
ENCODING 296
SWIDTH 307 0
DWIDTH 10 0
BBX 11 30 0 0
BITMAP
7840
FFC0
FFE0
8780
0000
0000
0000
1E00
1E00
1E00
1E00
1E00
1E00
1E00
1E00
1E00
1E00
1E00
1E00
1E00
1E00
1E00
1E00
1E00
1E00
1E00
1E00
1E00
1E00
1E00
ENDCHAR
STARTCHAR itilde
ENCODING 297
SWIDTH 340 0
DWIDTH 8 0
BBX 11 23 0 0
BITMAP
7860
FFE0
FFE0
8380
0000
0000
1F00
1F00
1F00
1F00
1F00
1F00
1F00
1F00
1F00
1F00
1F00
1F00
1F00
1F00
1F00
1F00
1F00
ENDCHAR
STARTCHAR Imacron
ENCODING 298
SWIDTH 307 0
DWIDTH 10 0
BBX 12 29 -1 0
BITMAP
FFF0
FFF0
FFF0
0000
0000
0000
0F00
0F00
0F00
0F00
0F00
0F00
0F00
0F00
0F00
0F00
0F00
0F00
0F00
0F00
0F00
0F00
0F00
0F00
0F00
0F00
0F00
0F00
0F00
ENDCHAR
STARTCHAR imacron
ENCODING 299
SWIDTH 350 0
DWIDTH 8 0
BBX 11 22 0 0
BITMAP
FFE0
FFE0
FFE0
0000
0000
1F00
1F00
1F00
1F00
1F00
1F00
1F00
1F00
1F00
1F00
1F00
1F00
1F00
1F00
1F00
1F00
1F00
ENDCHAR
STARTCHAR Ibreve
ENCODING 300
SWIDTH 307 0
DWIDTH 10 0
BBX 12 30 -1 0
BITMAP
E070
70E0
7FE0
3FC0
0400
0000
0000
0F00
0F00
0F00
0F00
0F00
0F00
0F00
0F00
0F00
0F00
0F00
0F00
0F00
0F00
0F00
0F00
0F00
0F00
0F00
0F00
0F00
0F00
0F00
ENDCHAR
STARTCHAR ibreve
ENCODING 301
SWIDTH 264 0
DWIDTH 8 0
BBX 11 23 -1 0
BITMAP
E0E0
E1E0
7FC0
3F80
0400
0000
1E00
1E00
1E00
1E00
1E00
1E00
1E00
1E00
1E00
1E00
1E00
1E00
1E00
1E00
1E00
1E00
1E00
ENDCHAR
STARTCHAR Iogonek
ENCODING 302
SWIDTH 307 0
DWIDTH 10 0
BBX 7 28 1 -5
BITMAP
3C
3C
3C
3C
3C
3C
3C
3C
3C
3C
3C
3C
3C
3C
3C
3C
3C
3C
3C
3C
3C
3C
3C
78
E0
E2
FE
7E
ENDCHAR
STARTCHAR iogonek
ENCODING 303
SWIDTH 264 0
DWIDTH 8 0
BBX 7 28 0 -5
BITMAP
3E
3E
3E
3E
00
00
3C
3C
3C
3C
3C
3C
3C
3C
3C
3C
3C
3C
3C
3C
3C
3C
3E
38
70
F2
FE
7E
ENDCHAR
STARTCHAR Idotaccent
ENCODING 304
SWIDTH 307 0
DWIDTH 10 0
BBX 4 30 3 0
BITMAP
F0
F0
F0
F0
00
00
00
F0
F0
F0
F0
F0
F0
F0
F0
F0
F0
F0
F0
F0
F0
F0
F0
F0
F0
F0
F0
F0
F0
F0
ENDCHAR
STARTCHAR dotlessi
ENCODING 305
SWIDTH 264 0
DWIDTH 8 0
BBX 4 17 2 0
BITMAP
F0
F0
F0
F0
F0
F0
F0
F0
F0
F0
F0
F0
F0
F0
F0
F0
F0
ENDCHAR
STARTCHAR Jcircumflex
ENCODING 308
SWIDTH 402 0
DWIDTH 13 0
BBX 13 30 1 0
BITMAP
0380
07C0
0FE0
1CF0
7878
0000
0000
07C0
07C0
07C0
07C0
07C0
07C0
07C0
07C0
07C0
07C0
07C0
07C0
07C0
07C0
07C0
07C0
07C0
07C0
0FC0
FFC0
FF80
FF80
FF00
ENDCHAR
STARTCHAR jcircumflex
ENCODING 309
SWIDTH 287 0
DWIDTH 9 0
BBX 12 28 -1 -5
BITMAP
0F00
1F80
3FC0
79E0
F0F0
0000
0F00
0F00
0F00
0F00
0F00
0F00
0F00
0F00
0F00
0F00
0F00
0F00
0F00
0F00
0F00
0F00
0F00
1F00
3F00
FF00
FE00
FC00
ENDCHAR
STARTCHAR uni0136
ENCODING 310
SWIDTH 717 0
DWIDTH 23 0
BBX 19 30 3 -7
BITMAP
F00FC0
F00F80
F01F00
F03E00
F07E00
F0FC00
F0F800
F1F000
F3E000
F7F000
FFF000
FFF800
FFF800
FE7C00
FC7C00
F83E00
F03E00
F01F00
F01F80
F00F80
F007C0
F007C0
F003E0
000000
03C000
03C000
03C000
03C000
018000
030000
ENDCHAR
STARTCHAR uni0137
ENCODING 311
SWIDTH 579 0
DWIDTH 19 0
BBX 16 31 2 -7
BITMAP
F800
F800
F800
F800
F800
F800
F800
F81F
F83E
F87C
F8F8
F9F0
FBE0
FFC0
FFC0
FFE0
FFE0
FDF0
F8F8
F878
F87C
F83C
F83E
F81F
0000
0780
0780
0780
0780
0300
0600
ENDCHAR
STARTCHAR kgreenlandic
ENCODING 312
SWIDTH 601 0
DWIDTH 19 0
BBX 17 17 2 0
BITMAP
F81F00
F83E00
F83C00
F87800
F8F000
F9E000
FBE000
FFE000
FFF000
FEF800
FCF800
F87C00
F87C00
F83E00
F83E00
F81F00
F81F80
ENDCHAR
STARTCHAR Lacute
ENCODING 313
SWIDTH 577 0
DWIDTH 18 0
BBX 14 30 3 0
BITMAP
1F00
3E00
3C00
7800
E000
0000
0000
F000
F000
F000
F000
F000
F000
F000
F000
F000
F000
F000
F000
F000
F000
F000
F000
F000
F000
F000
FFFC
FFFC
FFFC
FFFC
ENDCHAR
STARTCHAR lacute
ENCODING 314
SWIDTH 329 0
DWIDTH 11 0
BBX 9 31 2 0
BITMAP
1F80
1E00
3C00
7800
7000
0000
0000
F800
F800
F800
F800
F800
F800
F800
F800
F800
F800
F800
F800
F800
F800
F800
F800
F800
F800
F800
F800
F800
FE00
7E00
3E00
ENDCHAR
STARTCHAR uni013B
ENCODING 315
SWIDTH 577 0
DWIDTH 18 0
BBX 14 30 3 -7
BITMAP
F000
F000
F000
F000
F000
F000
F000
F000
F000
F000
F000
F000
F000
F000
F000
F000
F000
F000
F000
FFFC
FFFC
FFFC
FFFC
0000
0780
0780
0780
0700
0300
0600
ENDCHAR
STARTCHAR uni013C
ENCODING 316
SWIDTH 329 0
DWIDTH 11 0
BBX 7 31 2 -7
BITMAP
F8
F8
F8
F8
F8
F8
F8
F8
F8
F8
F8
F8
F8
F8
F8
F8
F8
F8
F8
F8
F8
FE
7E
3E
00
F0
F0
F0
F0
60
C0
ENDCHAR
STARTCHAR Lcaron
ENCODING 317
SWIDTH 577 0
DWIDTH 18 0
BBX 14 23 3 0
BITMAP
F038
F038
F038
F038
F038
F030
F030
F000
F000
F000
F000
F000
F000
F000
F000
F000
F000
F000
F000
FFFC
FFFC
FFFC
FFFC
ENDCHAR
STARTCHAR lcaron
ENCODING 318
SWIDTH 329 0
DWIDTH 11 0
BBX 10 24 2 0
BITMAP
FBC0
FBC0
FBC0
F9C0
F980
F980
FB00
F800
F800
F800
F800
F800
F800
F800
F800
F800
F800
F800
F800
F800
F800
FE00
7E00
3E00
ENDCHAR
STARTCHAR Ldot
ENCODING 319
SWIDTH 577 0
DWIDTH 18 0
BBX 14 23 3 0
BITMAP
F000
F000
F000
F000
F000
F000
F000
F000
F07C
F07C
F07C
F07C
F07C
F000
F000
F000
F000
F000
F000
FFFC
FFFC
FFFC
FFFC
ENDCHAR
STARTCHAR ldot
ENCODING 320
SWIDTH 424 0
DWIDTH 11 0
BBX 11 24 2 0
BITMAP
F800
F800
F800
F800
F800
F800
F800
F800
F800
F9E0
F9E0
F9E0
F9E0
F9E0
F800
F800
F800
F800
F800
F800
F800
FE00
7E00
3E00
ENDCHAR
STARTCHAR Lslash
ENCODING 321
SWIDTH 590 0
DWIDTH 19 0
BBX 18 23 0 0
BITMAP
1F0000
1F0000
1F0000
1F0000
1F0000
1F0000
1F0000
1F3800
1FF800
3FF800
FFF000
FF8000
FF0000
DF0000
1F0000
1F0000
1F0000
1F0000
1F0000
1FFFC0
1FFFC0
1FFFC0
1FFFC0
ENDCHAR
STARTCHAR lslash
ENCODING 322
SWIDTH 371 0
DWIDTH 12 0
BBX 9 24 1 0
BITMAP
3E00
3E00
3E00
3E00
3E00
3E00
3E00
3E00
3E00
3E80
3F80
3F80
3F80
3F00
7E00
FE00
FE00
FE00
BE00
3E00
3E00
3F80
1F80
0F80
ENDCHAR
STARTCHAR Nacute
ENCODING 323
SWIDTH 782 0
DWIDTH 25 0
BBX 19 30 3 0
BITMAP
001F00
003C00
007800
00F000
00E000
000000
000000
F801E0
F801E0
FC01E0
FE01E0
FE01E0
FF01E0
FF81E0
F7C1E0
F7C1E0
F3E1E0
F1F1E0
F1F1E0
F0F9E0
F07DE0
F07DE0
F03FE0
F01FE0
F01FE0
F00FE0
F007E0
F007E0
F003E0
F001E0
ENDCHAR
STARTCHAR nacute
ENCODING 324
SWIDTH 593 0
DWIDTH 19 0
BBX 15 23 2 0
BITMAP
007C
00F0
01E0
01C0
0380
0000
F8E0
FBF8
FFFC
FFFE
FC7E
F83E
F81E
F81E
F81E
F81E
F81E
F81E
F81E
F81E
F81E
F81E
F81E
ENDCHAR
STARTCHAR uni0145
ENCODING 325
SWIDTH 782 0
DWIDTH 25 0
BBX 19 30 3 -7
BITMAP
F801E0
F801E0
FC01E0
FE01E0
FE01E0
FF01E0
FF81E0
F7C1E0
F7C1E0
F3E1E0
F1F1E0
F1F1E0
F0F9E0
F07DE0
F07DE0
F03FE0
F01FE0
F01FE0
F00FE0
F007E0
F007E0
F003E0
F001E0
000000
01E000
01E000
01E000
01E000
00C000
018000
ENDCHAR
STARTCHAR uni0146
ENCODING 326
SWIDTH 593 0
DWIDTH 19 0
BBX 15 24 2 -7
BITMAP
F8E0
FBF8
FFFC
FFFE
FC7E
F83E
F81E
F81E
F81E
F81E
F81E
F81E
F81E
F81E
F81E
F81E
F81E
0000
03C0
03C0
03C0
0380
0300
0700
ENDCHAR
STARTCHAR Ncaron
ENCODING 327
SWIDTH 782 0
DWIDTH 25 0
BBX 19 30 3 0
BITMAP
0E1E00
071C00
03B800
01F000
00E000
000000
000000
F801E0
F801E0
FC01E0
FE01E0
FE01E0
FF01E0
FF81E0
F7C1E0
F7C1E0
F3E1E0
F1F1E0
F1F1E0
F0F9E0
F07DE0
F07DE0
F03FE0
F01FE0
F01FE0
F00FE0
F007E0
F007E0
F003E0
F001E0
ENDCHAR
STARTCHAR ncaron
ENCODING 328
SWIDTH 593 0
DWIDTH 19 0
BBX 15 23 2 0
BITMAP
3838
1C70
0EE0
07C0
0380
0000
F8E0
FBF8
FFFC
FFFE
FC7E
F83E
F81E
F81E
F81E
F81E
F81E
F81E
F81E
F81E
F81E
F81E
F81E
ENDCHAR
STARTCHAR Eng
ENCODING 330
SWIDTH 782 0
DWIDTH 25 0
BBX 19 31 3 -8
BITMAP
F801E0
F801E0
FC01E0
FE01E0
FE01E0
FF01E0
FF81E0
F7C1E0
F7C1E0
F3E1E0
F1F1E0
F1F1E0
F0F9E0
F07DE0
F07DE0
F03FE0
F01FE0
F01FE0
F00FE0
F007E0
F007E0
F003E0
F001E0
0001E0
0001E0
0003E0
003FE0
003FE0
003FE0
003FC0
001F00
ENDCHAR
STARTCHAR eng
ENCODING 331
SWIDTH 600 0
DWIDTH 19 0
BBX 15 22 2 -5
BITMAP
F8F0
FBFC
FFFE
FFFE
FC3E
F83E
F81E
F81E
F81E
F81E
F81E
F81E
F81E
F81E
F81E
F81E
F81E
003E
007E
00FE
00FC
00F8
ENDCHAR
STARTCHAR Omacron
ENCODING 332
SWIDTH 760 0
DWIDTH 24 0
BBX 21 29 2 0
BITMAP
07FF00
07FF00
07FF00
000000
000000
000000
03FE00
0FFF80
1FFFC0
3F9FE0
7E07E0
7C03F0
FC01F0
F801F0
F801F8
F800F8
F800F8
F800F8
F800F8
F800F8
F801F8
F801F0
FC01F0
7C03F0
7E07E0
3FFFC0
1FFFC0
0FFF00
03FE00
ENDCHAR
STARTCHAR omacron
ENCODING 333
SWIDTH 575 0
DWIDTH 18 0
BBX 16 22 1 0
BITMAP
1FFC
1FFC
1FFC
0000
0000
03E0
0FF8
3FFC
3FFE
7C3E
781F
F81F
F80F
F80F
F80F
F81F
781F
7C1F
7E3E
3FFC
1FFC
0FF0
ENDCHAR
STARTCHAR Obreve
ENCODING 334
SWIDTH 760 0
DWIDTH 24 0
BBX 21 30 2 0
BITMAP
070700
070E00
03FE00
01FC00
002000
000000
000000
03FE00
0FFF80
1FFFC0
3F9FE0
7E07E0
7C03F0
FC01F0
F801F0
F801F8
F800F8
F800F8
F800F8
F800F8
F800F8
F801F8
F801F0
FC01F0
7C03F0
7E07E0
3FFFC0
1FFFC0
0FFF00
03FE00
ENDCHAR
STARTCHAR obreve
ENCODING 335
SWIDTH 575 0
DWIDTH 18 0
BBX 16 23 1 0
BITMAP
1C1C
1C3C
0FF8
07F0
0080
0000
03E0
0FF8
3FFC
3FFE
7C3E
781F
F81F
F80F
F80F
F80F
F81F
781F
7C1F
7E3E
3FFC
1FFC
0FF0
ENDCHAR
STARTCHAR Ohungarumlaut
ENCODING 336
SWIDTH 760 0
DWIDTH 24 0
BBX 21 30 2 0
BITMAP
00F9F0
00F3C0
01E780
03CF00
039E00
000000
000000
03FE00
0FFF80
1FFFC0
3F9FE0
7E07E0
7C03F0
FC01F0
F801F0
F801F8
F800F8
F800F8
F800F8
F800F8
F800F8
F801F8
F801F0
FC01F0
7C03F0
7E07E0
3FFFC0
1FFFC0
0FFF00
03FE00
ENDCHAR
STARTCHAR ohungarumlaut
ENCODING 337
SWIDTH 575 0
DWIDTH 18 0
BBX 18 23 1 0
BITMAP
01E7C0
03CF00
079E00
0F3C00
0E7800
000000
03E000
0FF800
3FFC00
3FFE00
7C3E00
781F00
F81F00
F80F00
F80F00
F80F00
F81F00
781F00
7C1F00
7E3E00
3FFC00
1FFC00
0FF000
ENDCHAR
STARTCHAR OE
ENCODING 338
SWIDTH 1127 0
DWIDTH 36 0
BBX 32 23 2 0
BITMAP
03FCFFFF
0FFFFFFF
1FFFFFFF
3F9FFFFF
7E07F800
7C03F800
FC01F800
F801F800
F801F800
F800FFFE
F800FFFE
F800FFFE
F800FFFE
F800F800
F801F800
F801F800
FC01F800
7C03F800
7E07F800
3FFFFFFF
1FFFFFFF
0FFFFFFF
03FCFFFF
ENDCHAR
STARTCHAR oe
ENCODING 339
SWIDTH 934 0
DWIDTH 30 0
BBX 28 17 1 0
BITMAP
03E07C00
0FF9FF00
3FFFFFC0
3FFFEFC0
7C3F83E0
781F81E0
F81F01E0
F80FFFE0
F80FFFF0
F80FFFF0
F81F0000
781F8010
7C1F81E0
7E3FC3E0
3FFFFFC0
1FF9FF80
0FF0FF00
ENDCHAR
STARTCHAR Racute
ENCODING 340
SWIDTH 696 0
DWIDTH 22 0
BBX 18 30 3 0
BITMAP
007C00
00F800
00F000
01E000
03C000
000000
000000
FFF800
FFFE00
FFFF00
F07F80
F00F80
F00F80
F00780
F00780
F00F80
F01F80
FFFF00
FFFF00
FFFE00
FFF800
F07C00
F03C00
F03E00
F03E00
F01F00
F01F00
F00F00
F00F80
F00FC0
ENDCHAR
STARTCHAR racute
ENCODING 341
SWIDTH 412 0
DWIDTH 13 0
BBX 12 23 2 0
BITMAP
03F0
03C0
0780
0F00
1E00
0000
F8C0
FBC0
FFC0
FFC0
FFC0
FC00
F800
F800
F800
F800
F800
F800
F800
F800
F800
F800
F800
ENDCHAR
STARTCHAR uni0156
ENCODING 342
SWIDTH 696 0
DWIDTH 22 0
BBX 18 30 3 -7
BITMAP
FFF800
FFFE00
FFFF00
F07F80
F00F80
F00F80
F00780
F00780
F00F80
F01F80
FFFF00
FFFF00
FFFE00
FFF800
F07C00
F03C00
F03E00
F03E00
F01F00
F01F00
F00F00
F00F80
F00FC0
000000
03C000
03C000
03C000
03C000
018000
030000
ENDCHAR
STARTCHAR uni0157
ENCODING 343
SWIDTH 412 0
DWIDTH 13 0
BBX 10 24 2 -7
BITMAP
F8C0
FBC0
FFC0
FFC0
FFC0
FC00
F800
F800
F800
F800
F800
F800
F800
F800
F800
F800
F800
0000
F000
F000
F000
F000
6000
C000
ENDCHAR
STARTCHAR Rcaron
ENCODING 344
SWIDTH 696 0
DWIDTH 22 0
BBX 18 30 3 0
BITMAP
3C3C00
1E7000
0FF000
07E000
03C000
000000
000000
FFF800
FFFE00
FFFF00
F07F80
F00F80
F00F80
F00780
F00780
F00F80
F01F80
FFFF00
FFFF00
FFFE00
FFF800
F07C00
F03C00
F03E00
F03E00
F01F00
F01F00
F00F00
F00F80
F00FC0
ENDCHAR
STARTCHAR rcaron
ENCODING 345
SWIDTH 412 0
DWIDTH 13 0
BBX 12 23 1 0
BITMAP
F0F0
79E0
1FC0
0F80
0700
0000
7C60
7DE0
7FE0
7FE0
7FE0
7E00
7C00
7C00
7C00
7C00
7C00
7C00
7C00
7C00
7C00
7C00
7C00
ENDCHAR
STARTCHAR Sacute
ENCODING 346
SWIDTH 692 0
DWIDTH 22 0
BBX 19 30 2 0
BITMAP
003E00
007C00
007800
00F000
01E000
000000
000000
07FC00
1FFF00
3FFF80
7E1FC0
7C07C0
F807C0
F803C0
FC0000
FE0000
7FF000
3FFE00
1FFF80
0FFF80
00FFC0
000FC0
0003E0
F003E0
F803C0
FC07C0
7F9FC0
7FFF80
1FFF00
07FC00
ENDCHAR
STARTCHAR sacute
ENCODING 347
SWIDTH 527 0
DWIDTH 17 0
BBX 15 23 1 0
BITMAP
007C
00F0
01E0
01C0
0380
0000
07E0
1FF8
3FFC
7E7C
783C
7800
7E00
7FE0
3FF8
0FFC
01FC
003E
F81E
783C
7FFC
3FF8
0FF0
ENDCHAR
STARTCHAR Scircumflex
ENCODING 348
SWIDTH 692 0
DWIDTH 22 0
BBX 19 30 2 0
BITMAP
01E000
03F000
07F800
0F3C00
1E1E00
000000
000000
07FC00
1FFF00
3FFF80
7E1FC0
7C07C0
F807C0
F803C0
FC0000
FE0000
7FF000
3FFE00
1FFF80
0FFF80
00FFC0
000FC0
0003E0
F003E0
F803C0
FC07C0
7F9FC0
7FFF80
1FFF00
07FC00
ENDCHAR
STARTCHAR scircumflex
ENCODING 349
SWIDTH 527 0
DWIDTH 17 0
BBX 15 23 1 0
BITMAP
0380
07C0
0EE0
1C70
3838
0000
07E0
1FF8
3FFC
7E7C
783C
7800
7E00
7FE0
3FF8
0FFC
01FC
003E
F81E
783C
7FFC
3FF8
0FF0
ENDCHAR
STARTCHAR Scedilla
ENCODING 350
SWIDTH 692 0
DWIDTH 22 0
BBX 19 30 2 -7
BITMAP
07FC00
1FFF00
3FFF80
7E1FC0
7C07C0
F807C0
F803C0
FC0000
FE0000
7FF000
3FFE00
1FFF80
0FFF80
00FFC0
000FC0
0003E0
F003E0
F803C0
FC07C0
7F9FC0
7FFF80
1FFF00
07FC00
00C000
01C000
01F000
003800
043800
07F000
03E000
ENDCHAR
STARTCHAR scedilla
ENCODING 351
SWIDTH 527 0
DWIDTH 17 0
BBX 15 24 1 -7
BITMAP
07E0
1FF8
3FFC
7E7C
783C
7800
7E00
7FE0
3FF8
0FFC
01FC
003E
F81E
783C
7FFC
3FF8
0FF0
0300
0300
07C0
00E0
08E0
0FE0
0780
ENDCHAR
STARTCHAR Scaron
ENCODING 352
SWIDTH 692 0
DWIDTH 22 0
BBX 19 30 2 0
BITMAP
1E1E00
0F3C00
07F800
03F000
01E000
000000
000000
07FC00
1FFF00
3FFF80
7E1FC0
7C07C0
F807C0
F803C0
FC0000
FE0000
7FF000
3FFE00
1FFF80
0FFF80
00FFC0
000FC0
0003E0
F003E0
F803C0
FC07C0
7F9FC0
7FFF80
1FFF00
07FC00
ENDCHAR
STARTCHAR scaron
ENCODING 353
SWIDTH 527 0
DWIDTH 17 0
BBX 15 23 1 0
BITMAP
3C38
1C70
0EE0
07C0
0380
0000
07E0
1FF8
3FFC
7E7C
783C
7800
7E00
7FE0
3FF8
0FFC
01FC
003E
F81E
783C
7FFC
3FF8
0FF0
ENDCHAR
STARTCHAR uni0162
ENCODING 354
SWIDTH 616 0
DWIDTH 20 0
BBX 18 30 1 -7
BITMAP
FFFFC0
FFFFC0
FFFFC0
FFFFC0
01E000
01E000
01E000
01E000
01E000
01E000
01E000
01E000
01E000
01E000
01E000
01E000
01E000
01E000
01E000
01E000
01E000
01E000
01E000
00C000
01C000
01F000
003800
023800
07F000
01E000
ENDCHAR
STARTCHAR uni0163
ENCODING 355
SWIDTH 416 0
DWIDTH 13 0
BBX 11 29 1 -7
BITMAP
0E00
0E00
1E00
1E00
1E00
FFE0
FFE0
FFE0
FFE0
1E00
1E00
1E00
1E00
1E00
1E00
1E00
1E00
1E00
1F00
1FE0
1FE0
0FE0
0700
0600
07C0
00C0
11C0
1FC0
0200
ENDCHAR
STARTCHAR Tcaron
ENCODING 356
SWIDTH 616 0
DWIDTH 20 0
BBX 18 30 1 0
BITMAP
1E1E00
0F3C00
07F800
01F000
00E000
000000
000000
FFFFC0
FFFFC0
FFFFC0
FFFFC0
01E000
01E000
01E000
01E000
01E000
01E000
01E000
01E000
01E000
01E000
01E000
01E000
01E000
01E000
01E000
01E000
01E000
01E000
01E000
ENDCHAR
STARTCHAR tcaron
ENCODING 357
SWIDTH 450 0
DWIDTH 14 0
BBX 12 25 1 0
BITMAP
0070
0070
0070
0E70
0E60
1E60
1EE0
1E00
FFE0
FFE0
FFE0
FFE0
1E00
1E00
1E00
1E00
1E00
1E00
1E00
1E00
1E00
1F00
1FE0
1FE0
0FE0
ENDCHAR
STARTCHAR Tbar
ENCODING 358
SWIDTH 616 0
DWIDTH 20 0
BBX 18 23 1 0
BITMAP
FFFFC0
FFFFC0
FFFFC0
FFFFC0
01E000
01E000
01E000
01E000
01E000
01E000
3FFE00
3FFE00
3FFE00
01E000
01E000
01E000
01E000
01E000
01E000
01E000
01E000
01E000
01E000
ENDCHAR
STARTCHAR tbar
ENCODING 359
SWIDTH 416 0
DWIDTH 13 0
BBX 11 22 1 0
BITMAP
0E00
0E00
1E00
1E00
1E00
FFE0
FFE0
FFE0
FFE0
1E00
1E00
FFE0
FFE0
FFE0
1E00
1E00
1E00
1E00
1F00
1FE0
1FE0
0FE0
ENDCHAR
STARTCHAR Utilde
ENCODING 360
SWIDTH 724 0
DWIDTH 23 0
BBX 18 30 3 0
BITMAP
078400
1FFC00
0FFC00
087800
000000
000000
000000
F007C0
F007C0
F007C0
F007C0
F007C0
F007C0
F007C0
F007C0
F007C0
F007C0
F007C0
F007C0
F007C0
F007C0
F007C0
F807C0
F807C0
F807C0
FC0F80
7FFF80
7FFF00
3FFE00
0FFC00
ENDCHAR
STARTCHAR utilde
ENCODING 361
SWIDTH 595 0
DWIDTH 19 0
BBX 15 23 2 0
BITMAP
1F08
3FF8
3FF8
20E0
0000
0000
F03E
F03E
F03E
F03E
F03E
F03E
F03E
F03E
F03E
F03E
F03E
F03E
F83E
FC7E
FFFE
7FDE
1F9E
ENDCHAR
STARTCHAR Umacron
ENCODING 362
SWIDTH 724 0
DWIDTH 23 0
BBX 18 29 3 0
BITMAP
1FFE00
1FFE00
1FFE00
000000
000000
000000
F007C0
F007C0
F007C0
F007C0
F007C0
F007C0
F007C0
F007C0
F007C0
F007C0
F007C0
F007C0
F007C0
F007C0
F007C0
F807C0
F807C0
F807C0
FC0F80
7FFF80
7FFF00
3FFE00
0FFC00
ENDCHAR
STARTCHAR umacron
ENCODING 363
SWIDTH 595 0
DWIDTH 19 0
BBX 15 22 2 0
BITMAP
3FF8
3FF8
3FF8
0000
0000
F03E
F03E
F03E
F03E
F03E
F03E
F03E
F03E
F03E
F03E
F03E
F03E
F83E
FC7E
FFFE
7FDE
1F9E
ENDCHAR
STARTCHAR Ubreve
ENCODING 364
SWIDTH 724 0
DWIDTH 23 0
BBX 18 30 3 0
BITMAP
1C1C00
0E1C00
0FFC00
07F000
008000
000000
000000
F007C0
F007C0
F007C0
F007C0
F007C0
F007C0
F007C0
F007C0
F007C0
F007C0
F007C0
F007C0
F007C0
F007C0
F007C0
F807C0
F807C0
F807C0
FC0F80
7FFF80
7FFF00
3FFE00
0FFC00
ENDCHAR
STARTCHAR ubreve
ENCODING 365
SWIDTH 595 0
DWIDTH 19 0
BBX 15 23 2 0
BITMAP
3838
3878
1FF0
0FE0
0100
0000
F03E
F03E
F03E
F03E
F03E
F03E
F03E
F03E
F03E
F03E
F03E
F03E
F83E
FC7E
FFFE
7FDE
1F9E
ENDCHAR
STARTCHAR Uring
ENCODING 366
SWIDTH 724 0
DWIDTH 23 0
BBX 18 32 3 0
BITMAP
01C000
03F000
033000
063000
023000
03F000
01E000
000000
000000
F007C0
F007C0
F007C0
F007C0
F007C0
F007C0
F007C0
F007C0
F007C0
F007C0
F007C0
F007C0
F007C0
F007C0
F007C0
F807C0
F807C0
F807C0
FC0F80
7FFF80
7FFF00
3FFE00
0FFC00
ENDCHAR
STARTCHAR uring
ENCODING 367
SWIDTH 595 0
DWIDTH 19 0
BBX 15 25 2 0
BITMAP
0380
07C0
0C60
0C60
0C60
07C0
0380
0000
F03E
F03E
F03E
F03E
F03E
F03E
F03E
F03E
F03E
F03E
F03E
F03E
F83E
FC7E
FFFE
7FDE
1F9E
ENDCHAR
STARTCHAR Uhungarumlaut
ENCODING 368
SWIDTH 724 0
DWIDTH 23 0
BBX 18 30 3 0
BITMAP
01F7C0
03C780
03CF00
079C00
0F3800
000000
000000
F007C0
F007C0
F007C0
F007C0
F007C0
F007C0
F007C0
F007C0
F007C0
F007C0
F007C0
F007C0
F007C0
F007C0
F007C0
F807C0
F807C0
F807C0
FC0F80
7FFF80
7FFF00
3FFE00
0FFC00
ENDCHAR
STARTCHAR uhungarumlaut
ENCODING 369
SWIDTH 595 0
DWIDTH 19 0
BBX 17 23 2 0
BITMAP
03CF80
079E00
0F3C00
0E7800
1C7000
000000
F03E00
F03E00
F03E00
F03E00
F03E00
F03E00
F03E00
F03E00
F03E00
F03E00
F03E00
F03E00
F83E00
FC7E00
FFFE00
7FDE00
1F9E00
ENDCHAR
STARTCHAR Uogonek
ENCODING 370
SWIDTH 724 0
DWIDTH 23 0
BBX 18 28 3 -5
BITMAP
F007C0
F007C0
F007C0
F007C0
F007C0
F007C0
F007C0
F007C0
F007C0
F007C0
F007C0
F007C0
F007C0
F007C0
F007C0
F807C0
F807C0
F807C0
FC0F80
7FFF80
7FFF00
3FFE00
0FFC00
01C000
038000
078800
03F000
03F000
ENDCHAR
STARTCHAR uogonek
ENCODING 371
SWIDTH 595 0
DWIDTH 19 0
BBX 15 22 2 -5
BITMAP
F03E
F03E
F03E
F03E
F03E
F03E
F03E
F03E
F03E
F03E
F03E
F03E
F83E
FC7E
FFFE
7FDE
1F9E
0038
0070
0072
007E
007E
ENDCHAR
STARTCHAR Wcircumflex
ENCODING 372
SWIDTH 968 0
DWIDTH 31 0
BBX 29 30 1 0
BITMAP
00070000
000F8000
001DC000
0038E000
00707000
00000000
00000000
F0070078
F80F80F8
F80F80F8
780F80F0
781F80F0
7C1FC1F0
3C1FC1E0
3C1FC1E0
3E3DE3E0
3E3DE3E0
1E3DE3C0
1E38E3C0
1F78F7C0
0F78F780
0F78F780
0FF07F80
07F07F00
07F07F00
07E03F00
07E03F00
03E03E00
03E03E00
03C01E00
ENDCHAR
STARTCHAR wcircumflex
ENCODING 373
SWIDTH 788 0
DWIDTH 25 0
BBX 24 23 1 0
BITMAP
003C00
007E00
00FF00
01C780
0383C0
000000
F0380F
F03C1E
F07C1E
F87C1E
787C3C
78FE3C
78FE3C
3CEE78
3CEF78
3DEF78
1FC770
1FC7F0
1FC7F0
0FC3E0
0F83E0
0F83E0
0783E0
ENDCHAR
STARTCHAR Ycircumflex
ENCODING 374
SWIDTH 667 0
DWIDTH 21 0
BBX 21 30 0 0
BITMAP
007800
00FC00
01FE00
03CF00
078780
000000
000000
FC00F8
7C01F0
3E03E0
3E03E0
1F07C0
0F87C0
0F8F80
07CF00
07DF00
03FE00
01FE00
01FC00
00F800
00F800
00F800
00F800
00F800
00F800
00F800
00F800
00F800
00F800
00F800
ENDCHAR
STARTCHAR ycircumflex
ENCODING 375
SWIDTH 563 0
DWIDTH 18 0
BBX 18 28 0 -5
BITMAP
01E000
03F000
07F800
0F3C00
1E1E00
000000
F807C0
780780
7C0F80
3C0F00
3E0F00
3E1F00
1E1E00
1F3E00
0F3C00
0F3C00
07FC00
07F800
07F800
03F000
03F000
01F000
01E000
03E000
07C000
7FC000
7F8000
7F0000
ENDCHAR
STARTCHAR Ydieresis
ENCODING 376
SWIDTH 667 0
DWIDTH 21 0
BBX 21 30 0 0
BITMAP
07C780
07C780
07C780
07C780
000000
000000
000000
FC00F8
7C01F0
3E03E0
3E03E0
1F07C0
0F87C0
0F8F80
07CF00
07DF00
03FE00
01FE00
01FC00
00F800
00F800
00F800
00F800
00F800
00F800
00F800
00F800
00F800
00F800
00F800
ENDCHAR
STARTCHAR Zacute
ENCODING 377
SWIDTH 669 0
DWIDTH 21 0
BBX 18 30 2 0
BITMAP
001F00
003C00
007800
00F000
00E000
000000
000000
7FFFC0
7FFFC0
7FFFC0
7FFF80
001F00
003F00
003E00
007C00
00FC00
01F800
01F000
03F000
07E000
07C000
0F8000
1F8000
1F0000
3E0000
7E0000
7FFFC0
FFFFC0
FFFFC0
FFFFC0
ENDCHAR
STARTCHAR zacute
ENCODING 378
SWIDTH 496 0
DWIDTH 16 0
BBX 14 23 1 0
BITMAP
00F8
01F0
01E0
03C0
0780
0000
FFFC
FFFC
FFFC
FFFC
00F8
01F0
03E0
07C0
07C0
0F80
1F00
3E00
7E00
7C00
FFFC
FFFC
FFFC
ENDCHAR
STARTCHAR Zdotaccent
ENCODING 379
SWIDTH 669 0
DWIDTH 21 0
BBX 18 30 2 0
BITMAP
01F000
01F000
01F000
01F000
000000
000000
000000
7FFFC0
7FFFC0
7FFFC0
7FFF80
001F00
003F00
003E00
007C00
00FC00
01F800
01F000
03F000
07E000
07C000
0F8000
1F8000
1F0000
3E0000
7E0000
7FFFC0
FFFFC0
FFFFC0
FFFFC0
ENDCHAR
STARTCHAR zdotaccent
ENCODING 380
SWIDTH 496 0
DWIDTH 16 0
BBX 14 23 1 0
BITMAP
0780
0780
0780
0780
0000
0000
FFFC
FFFC
FFFC
FFFC
00F8
01F0
03E0
07C0
07C0
0F80
1F00
3E00
7E00
7C00
FFFC
FFFC
FFFC
ENDCHAR
STARTCHAR Zcaron
ENCODING 381
SWIDTH 669 0
DWIDTH 21 0
BBX 18 30 2 0
BITMAP
0E1E00
071C00
03B800
01F000
00E000
000000
000000
7FFFC0
7FFFC0
7FFFC0
7FFF80
001F00
003F00
003E00
007C00
00FC00
01F800
01F000
03F000
07E000
07C000
0F8000
1F8000
1F0000
3E0000
7E0000
7FFFC0
FFFFC0
FFFFC0
FFFFC0
ENDCHAR
STARTCHAR zcaron
ENCODING 382
SWIDTH 496 0
DWIDTH 16 0
BBX 14 23 1 0
BITMAP
7878
3CF0
1FE0
0FC0
0780
0000
FFFC
FFFC
FFFC
FFFC
00F8
01F0
03E0
07C0
07C0
0F80
1F00
3E00
7E00
7C00
FFFC
FFFC
FFFC
ENDCHAR
STARTCHAR uni018F
ENCODING 399
SWIDTH 759 0
DWIDTH 24 0
BBX 21 23 2 0
BITMAP
07FE00
1FFF80
3FFFC0
7FFFE0
7E07E0
FC03F0
F803F0
F801F0
0001F8
0001F8
FFFFF8
FFFFF8
FFFFF8
FFFFF8
F801F0
F801F0
FC01F0
7C03F0
7E07E0
3FFFC0
1FFFC0
0FFF00
03FE00
ENDCHAR
STARTCHAR florin
ENCODING 402
SWIDTH 519 0
DWIDTH 17 0
BBX 17 28 -1 -5
BITMAP
003F80
007F80
00FF00
00F800
00F000
00F000
07FF00
07FE00
0FFE00
0FFE00
01E000
01E000
03E000
03E000
03E000
03E000
03C000
03C000
07C000
07C000
07C000
07C000
078000
0F8000
0F8000
7F8000
FF0000
FE0000
ENDCHAR
STARTCHAR Ohorn
ENCODING 416
SWIDTH 835 0
DWIDTH 27 0
BBX 24 24 2 0
BITMAP
000007
03FE07
0FFF8F
1FFFDE
3F9FFE
7E07FC
7C03F0
FC01F0
F801F0
F801F8
F800F8
F800F8
F800F8
F800F8
F800F8
F801F8
F801F0
FC01F0
7C03F0
7E07E0
3FFFC0
1FFFC0
0FFF00
03FE00
ENDCHAR
STARTCHAR ohorn
ENCODING 417
SWIDTH 641 0
DWIDTH 21 0
BBX 20 18 1 0
BITMAP
000070
03E0F0
0FF8E0
3FFFE0
3FFFE0
7C3FC0
781F00
F81F00
F80F00
F80F00
F80F00
F81F00
781F00
7C1F00
7E3E00
3FFC00
1FFC00
0FF000
ENDCHAR
STARTCHAR Uhorn
ENCODING 431
SWIDTH 860 0
DWIDTH 28 0
BBX 23 24 3 0
BITMAP
00000E
F007CE
F007CE
F007DE
F007FC
F007F8
F007C0
F007C0
F007C0
F007C0
F007C0
F007C0
F007C0
F007C0
F007C0
F007C0
F807C0
F807C0
F807C0
FC0F80
7FFF80
7FFF00
3FFE00
0FFC00
ENDCHAR
STARTCHAR uhorn
ENCODING 432
SWIDTH 710 0
DWIDTH 23 0
BBX 21 18 2 0
BITMAP
000078
F03E78
F03E70
F03FF0
F03FF0
F03FC0
F03E00
F03E00
F03E00
F03E00
F03E00
F03E00
F03E00
F83E00
FC7E00
FFFE00
7FDE00
1F9E00
ENDCHAR
STARTCHAR uni01D4
ENCODING 468
SWIDTH 595 0
DWIDTH 19 0
BBX 15 23 2 0
BITMAP
3878
1C70
0EE0
07C0
0380
0000
F03E
F03E
F03E
F03E
F03E
F03E
F03E
F03E
F03E
F03E
F03E
F03E
F83E
FC7E
FFFE
7FDE
1F9E
ENDCHAR
STARTCHAR uni01EA
ENCODING 490
SWIDTH 760 0
DWIDTH 24 0
BBX 21 28 2 -5
BITMAP
03FE00
0FFF80
1FFFC0
3F9FE0
7E07E0
7C03F0
FC01F0
F801F0
F801F8
F800F8
F800F8
F800F8
F800F8
F800F8
F801F8
F801F0
FC01F0
7C03F0
7E07E0
3FFFC0
1FFFC0
0FFF00
03FE00
007000
01E000
01E000
01FC00
00FC00
ENDCHAR
STARTCHAR uni01EB
ENCODING 491
SWIDTH 575 0
DWIDTH 18 0
BBX 16 22 1 -5
BITMAP
03E0
0FF8
3FFC
3FFE
7C3E
781F
F81F
F80F
F80F
F80F
F81F
781F
7C1F
7E3E
3FFC
1FFC
0FF0
03C0
0700
0710
07F0
03F0
ENDCHAR
STARTCHAR Aringacute
ENCODING 506
SWIDTH 726 0
DWIDTH 23 0
BBX 21 30 1 0
BITMAP
003800
003000
007800
00FC00
018C00
018C00
00DC00
00F800
00FC00
01FC00
01FC00
03FE00
03DE00
03DE00
07CF00
078F00
078F80
0F8780
0F0780
0F07C0
1F03C0
1FFFC0
1FFFE0
3FFFE0
3FFFE0
7C01F0
7C01F0
7800F0
F800F8
F80078
ENDCHAR
STARTCHAR aringacute
ENCODING 507
SWIDTH 566 0
DWIDTH 18 0
BBX 15 24 1 0
BITMAP
00E0
00C0
01C0
07E0
0670
0630
0660
07E0
1FFC
3FFE
7E7E
781E
001E
001E
0FFE
3FFE
7E1E
781E
F81E
F81E
F83E
7FFE
7FDE
1F9E
ENDCHAR
STARTCHAR AEacute
ENCODING 508
SWIDTH 1040 0
DWIDTH 33 0
BBX 32 30 0 0
BITMAP
000003F0
000003C0
00000780
00000F00
00000E00
00000000
00000000
000FFFFE
001FFFFE
001FFFFE
003FFFFE
003DF000
007DF000
0079F000
00F9F000
00F1F000
01E1FFFC
01E1FFFC
03C1FFFC
03C1FFFC
0781F000
07FFF000
0FFFF000
1FFFF000
1FFFF000
3E01F000
3E01FFFF
7C01FFFF
7801FFFF
F801FFFF
ENDCHAR
STARTCHAR aeacute
ENCODING 509
SWIDTH 913 0
DWIDTH 29 0
BBX 27 23 1 0
BITMAP
0003E000
0007C000
00078000
000F0000
001E0000
00000000
07E07C00
1FF9FF00
3FFFFF80
7E7FCFC0
781F83C0
001F03C0
001F03E0
0FFFFFE0
3FFFFFE0
7E1FFFE0
781F0000
F81F0000
F83F03E0
F83FC7C0
7FF7FFC0
7FE3FF80
1FC1FE00
ENDCHAR
STARTCHAR Oslashacute
ENCODING 510
SWIDTH 776 0
DWIDTH 25 0
BBX 23 30 1 0
BITMAP
000FC0
000F00
001E00
003C00
003800
000000
000008
01FF0C
07FFDE
0FFFFC
1FC7F8
3F01F0
3E01F8
7E03F8
7E07F8
7E0FFC
7C1EFC
7C3CFC
7C78FC
7CF0FC
7DE0FC
7FC0FC
7FC0F8
7F80F8
3F01F8
3F03F0
7FEFF0
FFFFE0
F7FFC0
61FF00
ENDCHAR
STARTCHAR oslashacute
ENCODING 511
SWIDTH 611 0
DWIDTH 20 0
BBX 18 23 1 0
BITMAP
003E00
007800
00F000
00E000
01C000
000000
03F080
0FFDC0
1FFF80
3FFF00
3E1F00
7C3F80
7C7F80
7CFF80
7DEF80
7FCF80
7F0F80
7E0F80
3C1F00
3F3F00
7FFE00
EFFC00
47F800
ENDCHAR
STARTCHAR uni0200
ENCODING 512
SWIDTH 726 0
DWIDTH 23 0
BBX 21 30 1 0
BITMAP
7CF000
1E7800
0F3C00
079C00
038E00
000000
000000
00F800
00FC00
01FC00
01FC00
03FE00
03DE00
03DE00
07CF00
078F00
078F80
0F8780
0F0780
0F07C0
1F03C0
1FFFC0
1FFFE0
3FFFE0
3FFFE0
7C01F0
7C01F0
7800F0
F800F8
F80078
ENDCHAR
STARTCHAR uni0201
ENCODING 513
SWIDTH 566 0
DWIDTH 18 0
BBX 16 23 0 0
BITMAP
FBE0
3CF0
1E70
0E38
073C
0000
03F0
0FFE
1FFF
3F3F
3C0F
000F
000F
07FF
1FFF
3F0F
3C0F
7C0F
7C0F
7C1F
3FFF
3FEF
0FCF
ENDCHAR
STARTCHAR uni0202
ENCODING 514
SWIDTH 726 0
DWIDTH 23 0
BBX 21 30 1 0
BITMAP
00F800
03FE00
03CF00
070700
000000
000000
000000
00F800
00FC00
01FC00
01FC00
03FE00
03DE00
03DE00
07CF00
078F00
078F80
0F8780
0F0780
0F07C0
1F03C0
1FFFC0
1FFFE0
3FFFE0
3FFFE0
7C01F0
7C01F0
7800F0
F800F8
F80078
ENDCHAR
STARTCHAR uni0203
ENCODING 515
SWIDTH 566 0
DWIDTH 18 0
BBX 15 23 1 0
BITMAP
03E0
0FF0
1E78
1C1C
0000
0000
07E0
1FFC
3FFE
7E7E
781E
001E
001E
0FFE
3FFE
7E1E
781E
F81E
F81E
F83E
7FFE
7FDE
1F9E
ENDCHAR
STARTCHAR uni0204
ENCODING 516
SWIDTH 634 0
DWIDTH 20 0
BBX 18 30 1 0
BITMAP
F9E000
3CF000
1E7800
0F3800
071C00
000000
000000
3FFF80
3FFF80
3FFF80
3FFF80
3C0000
3C0000
3C0000
3C0000
3C0000
3FFF00
3FFF00
3FFF00
3FFF00
3C0000
3C0000
3C0000
3C0000
3C0000
3C0000
3FFFC0
3FFFC0
3FFFC0
3FFFC0
ENDCHAR
STARTCHAR uni0205
ENCODING 517
SWIDTH 576 0
DWIDTH 18 0
BBX 17 23 0 0
BITMAP
FBE000
3CF000
1E7000
0E3800
073C00
000000
01F000
07FC00
0FFE00
1FBF00
3E0F00
3C0F80
3C0780
7FFF80
7FFF80
7FFF80
7C0000
3C0000
3E0F80
3F1F80
1FFF00
0FFE00
03F800
ENDCHAR
STARTCHAR uni0206
ENCODING 518
SWIDTH 634 0
DWIDTH 20 0
BBX 16 30 3 0
BITMAP
07C0
1FF0
1C70
3838
0000
0000
0000
FFFE
FFFE
FFFE
FFFE
F000
F000
F000
F000
F000
FFFC
FFFC
FFFC
FFFC
F000
F000
F000
F000
F000
F000
FFFF
FFFF
FFFF
FFFF
ENDCHAR
STARTCHAR uni0207
ENCODING 519
SWIDTH 576 0
DWIDTH 18 0
BBX 16 23 1 0
BITMAP
03E0
0FF0
1E78
1C1C
0000
0000
03E0
0FF8
1FFC
3F7E
7C1E
781F
780F
FFFF
FFFF
FFFF
F800
7800
7C1F
7E3F
3FFE
1FFC
07F0
ENDCHAR
STARTCHAR uni0208
ENCODING 520
SWIDTH 307 0
DWIDTH 10 0
BBX 14 30 -5 0
BITMAP
F9F0
3CF0
1E78
0F3C
079C
0000
0000
00F0
00F0
00F0
00F0
00F0
00F0
00F0
00F0
00F0
00F0
00F0
00F0
00F0
00F0
00F0
00F0
00F0
00F0
00F0
00F0
00F0
00F0
00F0
ENDCHAR
STARTCHAR uni0209
ENCODING 521
SWIDTH 264 0
DWIDTH 8 0
BBX 14 23 -5 0
BITMAP
FBE0
7CF0
1C70
0E78
073C
0000
01E0
01E0
01E0
01E0
01E0
01E0
01E0
01E0
01E0
01E0
01E0
01E0
01E0
01E0
01E0
01E0
01E0
ENDCHAR
STARTCHAR uni020A
ENCODING 522
SWIDTH 307 0
DWIDTH 10 0
BBX 12 30 -1 0
BITMAP
1F00
3FC0
79E0
F0E0
0010
0000
0000
0F00
0F00
0F00
0F00
0F00
0F00
0F00
0F00
0F00
0F00
0F00
0F00
0F00
0F00
0F00
0F00
0F00
0F00
0F00
0F00
0F00
0F00
0F00
ENDCHAR
STARTCHAR uni020B
ENCODING 523
SWIDTH 346 0
DWIDTH 8 0
BBX 11 23 0 0
BITMAP
1F00
7FC0
F1C0
E0E0
0000
0000
1F00
1F00
1F00
1F00
1F00
1F00
1F00
1F00
1F00
1F00
1F00
1F00
1F00
1F00
1F00
1F00
1F00
ENDCHAR
STARTCHAR uni020C
ENCODING 524
SWIDTH 760 0
DWIDTH 24 0
BBX 21 30 2 0
BITMAP
7DF000
3C7800
1E7800
073C00
039E00
000000
000000
03FE00
0FFF80
1FFFC0
3F9FE0
7E07E0
7C03F0
FC01F0
F801F0
F801F8
F800F8
F800F8
F800F8
F800F8
F800F8
F801F8
F801F0
FC01F0
7C03F0
7E07E0
3FFFC0
1FFFC0
0FFF00
03FE00
ENDCHAR
STARTCHAR uni020D
ENCODING 525
SWIDTH 575 0
DWIDTH 18 0
BBX 17 23 0 0
BITMAP
FBE000
78F000
3C7000
0E7800
073C00
000000
01F000
07FC00
1FFE00
1FFF00
3E1F00
3C0F80
7C0F80
7C0780
7C0780
7C0780
7C0F80
3C0F80
3E0F80
3F1F00
1FFE00
0FFE00
07F800
ENDCHAR
STARTCHAR uni020E
ENCODING 526
SWIDTH 760 0
DWIDTH 24 0
BBX 21 30 2 0
BITMAP
00F800
03FC00
079E00
070700
000000
000000
000000
03FE00
0FFF80
1FFFC0
3F9FE0
7E07E0
7C03F0
FC01F0
F801F0
F801F8
F800F8
F800F8
F800F8
F800F8
F800F8
F801F8
F801F0
FC01F0
7C03F0
7E07E0
3FFFC0
1FFFC0
0FFF00
03FE00
ENDCHAR
STARTCHAR uni020F
ENCODING 527
SWIDTH 575 0
DWIDTH 18 0
BBX 16 23 1 0
BITMAP
03E0
0FF0
1E78
1C1C
0000
0000
03E0
0FF8
3FFC
3FFE
7C3E
781F
F81F
F80F
F80F
F80F
F81F
781F
7C1F
7E3E
3FFC
1FFC
0FF0
ENDCHAR
STARTCHAR uni0210
ENCODING 528
SWIDTH 696 0
DWIDTH 22 0
BBX 20 30 1 0
BITMAP
F9F000
3CF000
1E7800
0F3C00
079C00
000000
000000
3FFE00
3FFF80
3FFFC0
3C1FE0
3C03E0
3C03E0
3C01E0
3C01E0
3C03E0
3C07E0
3FFFC0
3FFFC0
3FFF80
3FFE00
3C1F00
3C0F00
3C0F80
3C0F80
3C07C0
3C07C0
3C03C0
3C03E0
3C03F0
ENDCHAR
STARTCHAR uni0211
ENCODING 529
SWIDTH 412 0
DWIDTH 13 0
BBX 14 23 -2 0
BITMAP
FBE0
78F0
3CF0
0E78
073C
0000
0F8C
0FBC
0FFC
0FFC
0FFC
0FC0
0F80
0F80
0F80
0F80
0F80
0F80
0F80
0F80
0F80
0F80
0F80
ENDCHAR
STARTCHAR uni0212
ENCODING 530
SWIDTH 696 0
DWIDTH 22 0
BBX 18 30 3 0
BITMAP
07C000
0FF000
1E7800
383800
000000
000000
000000
FFF800
FFFE00
FFFF00
F07F80
F00F80
F00F80
F00780
F00780
F00F80
F01F80
FFFF00
FFFF00
FFFE00
FFF800
F07C00
F03C00
F03E00
F03E00
F01F00
F01F00
F00F00
F00F80
F00FC0
ENDCHAR
STARTCHAR uni0213
ENCODING 531
SWIDTH 412 0
DWIDTH 13 0
BBX 11 23 2 0
BITMAP
1F00
7F80
F3C0
E0E0
0000
0000
F8C0
FBC0
FFC0
FFC0
FFC0
FC00
F800
F800
F800
F800
F800
F800
F800
F800
F800
F800
F800
ENDCHAR
STARTCHAR uni0214
ENCODING 532
SWIDTH 724 0
DWIDTH 23 0
BBX 19 30 2 0
BITMAP
F9F000
3CF000
1E7800
0F3C00
079C00
000000
000000
7803E0
7803E0
7803E0
7803E0
7803E0
7803E0
7803E0
7803E0
7803E0
7803E0
7803E0
7803E0
7803E0
7803E0
7803E0
7C03E0
7C03E0
7C03E0
7E07C0
3FFFC0
3FFF80
1FFF00
07FE00
ENDCHAR
STARTCHAR uni0215
ENCODING 533
SWIDTH 595 0
DWIDTH 19 0
BBX 17 23 0 0
BITMAP
FBE000
3CF000
1E7800
0E3800
071C00
000000
3C0F80
3C0F80
3C0F80
3C0F80
3C0F80
3C0F80
3C0F80
3C0F80
3C0F80
3C0F80
3C0F80
3C0F80
3E0F80
3F1F80
3FFF80
1FF780
07E780
ENDCHAR
STARTCHAR uni0216
ENCODING 534
SWIDTH 724 0
DWIDTH 23 0
BBX 18 30 3 0
BITMAP
03E000
07F800
0F3C00
1C1C00
000000
000000
000000
F007C0
F007C0
F007C0
F007C0
F007C0
F007C0
F007C0
F007C0
F007C0
F007C0
F007C0
F007C0
F007C0
F007C0
F007C0
F807C0
F807C0
F807C0
FC0F80
7FFF80
7FFF00
3FFE00
0FFC00
ENDCHAR
STARTCHAR uni0217
ENCODING 535
SWIDTH 595 0
DWIDTH 19 0
BBX 15 23 2 0
BITMAP
07C0
1FF0
3CF0
3838
0000
0000
F03E
F03E
F03E
F03E
F03E
F03E
F03E
F03E
F03E
F03E
F03E
F03E
F83E
FC7E
FFFE
7FDE
1F9E
ENDCHAR
STARTCHAR uni0218
ENCODING 536
SWIDTH 692 0
DWIDTH 22 0
BBX 19 30 2 -7
BITMAP
07FC00
1FFF00
3FFF80
7E1FC0
7C07C0
F807C0
F803C0
FC0000
FE0000
7FF000
3FFE00
1FFF80
0FFF80
00FFC0
000FC0
0003E0
F003E0
F803C0
FC07C0
7F9FC0
7FFF80
1FFF00
07FC00
000000
01E000
01E000
01E000
01E000
00C000
018000
ENDCHAR
STARTCHAR uni0219
ENCODING 537
SWIDTH 527 0
DWIDTH 17 0
BBX 15 24 1 -7
BITMAP
07E0
1FF8
3FFC
7E7C
783C
7800
7E00
7FE0
3FF8
0FFC
01FC
003E
F81E
783C
7FFC
3FF8
0FF0
0000
03C0
03C0
03C0
0380
0300
0600
ENDCHAR
STARTCHAR uni021A
ENCODING 538
SWIDTH 616 0
DWIDTH 20 0
BBX 18 30 1 -7
BITMAP
FFFFC0
FFFFC0
FFFFC0
FFFFC0
01E000
01E000
01E000
01E000
01E000
01E000
01E000
01E000
01E000
01E000
01E000
01E000
01E000
01E000
01E000
01E000
01E000
01E000
01E000
000000
01E000
01E000
01E000
01E000
00C000
018000
ENDCHAR
STARTCHAR uni021B
ENCODING 539
SWIDTH 416 0
DWIDTH 13 0
BBX 11 29 1 -7
BITMAP
0E00
0E00
1E00
1E00
1E00
FFE0
FFE0
FFE0
FFE0
1E00
1E00
1E00
1E00
1E00
1E00
1E00
1E00
1E00
1F00
1FE0
1FE0
0FE0
0000
0780
0780
0780
0700
0300
0600
ENDCHAR
STARTCHAR uni0237
ENCODING 567
SWIDTH 287 0
DWIDTH 9 0
BBX 8 22 -1 -5
BITMAP
0F
0F
0F
0F
0F
0F
0F
0F
0F
0F
0F
0F
0F
0F
0F
0F
0F
1F
3F
FF
FE
FC
ENDCHAR
STARTCHAR uni0259
ENCODING 601
SWIDTH 576 0
DWIDTH 18 0
BBX 16 17 1 0
BITMAP
03E0
1FF8
3FFC
7FFE
783E
F81F
001F
001F
FFFF
FFFF
F81F
781F
781E
7C3E
3FFC
1FF8
0FF0
ENDCHAR
STARTCHAR uni02BB
ENCODING 699
SWIDTH 254 0
DWIDTH 8 0
BBX 4 8 2 15
BITMAP
30
70
C0
C0
F0
F0
F0
F0
ENDCHAR
STARTCHAR uni02BC
ENCODING 700
SWIDTH 254 0
DWIDTH 8 0
BBX 4 9 2 14
BITMAP
F0
F0
F0
F0
70
30
70
E0
80
ENDCHAR
STARTCHAR circumflex
ENCODING 710
SWIDTH 378 0
DWIDTH 12 0
BBX 12 5 0 18
BITMAP
0F00
1F80
3FC0
79E0
F0F0
ENDCHAR
STARTCHAR caron
ENCODING 711
SWIDTH 388 0
DWIDTH 12 0
BBX 12 5 0 18
BITMAP
F0F0
79E0
3FC0
1F80
0F00
ENDCHAR
STARTCHAR breve
ENCODING 728
SWIDTH 381 0
DWIDTH 12 0
BBX 12 5 0 18
BITMAP
E070
70E0
7FE0
1FC0
0600
ENDCHAR
STARTCHAR dotaccent
ENCODING 729
SWIDTH 149 0
DWIDTH 5 0
BBX 5 4 0 19
BITMAP
F8
F8
F8
F8
ENDCHAR
STARTCHAR ring
ENCODING 730
SWIDTH 258 0
DWIDTH 8 0
BBX 7 7 1 18
BITMAP
30
FC
CC
86
CC
FC
78
ENDCHAR
STARTCHAR ogonek
ENCODING 731
SWIDTH 254 0
DWIDTH 8 0
BBX 6 5 1 -5
BITMAP
7C
E0
E4
FC
FC
ENDCHAR
STARTCHAR tilde
ENCODING 732
SWIDTH 415 0
DWIDTH 13 0
BBX 11 4 1 19
BITMAP
7C20
FFE0
FFE0
4380
ENDCHAR
STARTCHAR hungarumlaut
ENCODING 733
SWIDTH 447 0
DWIDTH 14 0
BBX 14 5 0 18
BITMAP
1F7C
3CF0
38E0
71C0
F380
ENDCHAR
STARTCHAR gravecomb
ENCODING 768
SWIDTH 0 0
DWIDTH 0 0
BBX 8 5 0 18
BITMAP
F8
3C
1E
0F
07
ENDCHAR
STARTCHAR acutecomb
ENCODING 769
SWIDTH 0 0
DWIDTH 0 0
BBX 8 5 0 18
BITMAP
1F
3E
3C
78
F0
ENDCHAR
STARTCHAR uni0302
ENCODING 770
SWIDTH 0 0
DWIDTH 0 0
BBX 12 5 0 18
BITMAP
0F00
1F80
3FC0
79E0
F0F0
ENDCHAR
STARTCHAR tildecomb
ENCODING 771
SWIDTH 0 0
DWIDTH 0 0
BBX 11 4 1 19
BITMAP
7C20
FFE0
FFE0
4380
ENDCHAR
STARTCHAR uni0304
ENCODING 772
SWIDTH 0 0
DWIDTH 0 0
BBX 11 3 1 19
BITMAP
FFE0
FFE0
FFE0
ENDCHAR
STARTCHAR uni0306
ENCODING 774
SWIDTH 0 0
DWIDTH 0 0
BBX 12 5 0 18
BITMAP
E070
70E0
7FE0
1FC0
0600
ENDCHAR
STARTCHAR uni0307
ENCODING 775
SWIDTH 0 0
DWIDTH 0 0
BBX 5 4 0 19
BITMAP
F8
F8
F8
F8
ENDCHAR
STARTCHAR uni0308
ENCODING 776
SWIDTH 0 0
DWIDTH 0 0
BBX 12 4 0 19
BITMAP
F8F0
F8F0
F8F0
F8F0
ENDCHAR
STARTCHAR hookabovecomb
ENCODING 777
SWIDTH 0 0
DWIDTH 0 0
BBX 6 6 7 19
BITMAP
70
F8
5C
1C
1C
18
ENDCHAR
STARTCHAR uni030A
ENCODING 778
SWIDTH 0 0
DWIDTH 0 0
BBX 7 7 1 18
BITMAP
30
FC
CC
86
CC
FC
78
ENDCHAR
STARTCHAR uni030B
ENCODING 779
SWIDTH 0 0
DWIDTH 0 0
BBX 14 5 0 18
BITMAP
1F7C
3CF0
38E0
71C0
F380
ENDCHAR
STARTCHAR uni030C
ENCODING 780
SWIDTH 0 0
DWIDTH 0 0
BBX 12 5 0 18
BITMAP
F0F0
79E0
3FC0
1F80
0F00
ENDCHAR
STARTCHAR uni030F
ENCODING 783
SWIDTH 0 0
DWIDTH 0 0
BBX 14 5 0 18
BITMAP
F9E0
3CF0
1E78
0F38
079C
ENDCHAR
STARTCHAR uni0311
ENCODING 785
SWIDTH 0 0
DWIDTH 0 0
BBX 12 4 0 19
BITMAP
1F00
3FC0
79E0
F0F0
ENDCHAR
STARTCHAR uni0312
ENCODING 786
SWIDTH 0 0
DWIDTH 0 0
BBX 4 6 2 18
BITMAP
70
60
F0
F0
F0
F0
ENDCHAR
STARTCHAR uni031B
ENCODING 795
SWIDTH 0 0
DWIDTH 0 0
BBX 6 6 0 14
BITMAP
1C
1C
3C
FC
F8
40
ENDCHAR
STARTCHAR dotbelowcomb
ENCODING 803
SWIDTH 0 0
DWIDTH 0 0
BBX 5 3 0 -6
BITMAP
F8
F8
F8
ENDCHAR
STARTCHAR uni0326
ENCODING 806
SWIDTH 0 0
DWIDTH 0 0
BBX 4 6 0 -7
BITMAP
F0
F0
F0
F0
60
C0
ENDCHAR
STARTCHAR uni0327
ENCODING 807
SWIDTH 0 0
DWIDTH 0 0
BBX 8 7 0 -7
BITMAP
18
18
3E
07
47
FF
3C
ENDCHAR
STARTCHAR uni0328
ENCODING 808
SWIDTH 0 0
DWIDTH 0 0
BBX 6 5 1 -5
BITMAP
7C
E0
E4
FC
FC
ENDCHAR
STARTCHAR pi
ENCODING 960
SWIDTH 674 0
DWIDTH 22 0
BBX 20 17 1 0
BITMAP
FFFFF0
FFFFF0
FFFFF0
FFFFF0
1E0F80
1E0F80
3E0F80
3E0F80
3E0F80
3E0F80
3E0F80
3C0F80
3C0F80
3C0F80
7C0F80
7C0F80
780F80
ENDCHAR
STARTCHAR uni1E0C
ENCODING 7692
SWIDTH 720 0
DWIDTH 23 0
BBX 19 29 3 -6
BITMAP
FFE000
FFFC00
FFFE00
FFFF00
F03F80
F00F80
F007C0
F007C0
F007C0
F003C0
F003C0
F003E0
F003C0
F007C0
F007C0
F007C0
F00FC0
F01F80
F03F80
FFFF00
FFFE00
FFF800
FFE000
000000
000000
000000
03E000
03E000
03E000
ENDCHAR
STARTCHAR uni1E0D
ENCODING 7693
SWIDTH 608 0
DWIDTH 19 0
BBX 16 30 1 -6
BITMAP
000F
000F
000F
000F
000F
000F
000F
078F
1FEF
3FFF
7FFF
7C1F
781F
F80F
F80F
F80F
F80F
F80F
F81F
7C1F
7E3F
3FF7
3FF7
0FC7
0000
0000
0000
07C0
07C0
07C0
ENDCHAR
STARTCHAR uni1E24
ENCODING 7716
SWIDTH 770 0
DWIDTH 25 0
BBX 19 29 3 -6
BITMAP
F003E0
F003E0
F003E0
F003E0
F003E0
F003E0
F003E0
F003E0
F003E0
FFFFE0
FFFFE0
FFFFE0
FFFFE0
F003E0
F003E0
F003E0
F003E0
F003E0
F003E0
F003E0
F003E0
F003E0
F003E0
000000
000000
000000
01F000
01F000
01F000
ENDCHAR
STARTCHAR uni1E25
ENCODING 7717
SWIDTH 592 0
DWIDTH 19 0
BBX 15 30 2 -6
BITMAP
F800
F800
F800
F800
F800
F800
F800
F860
FBF8
FFFC
FFFE
FC3E
F83E
F83E
F83E
F83E
F83E
F83E
F83E
F83E
F83E
F83E
F83E
F83E
0000
0000
0000
07C0
07C0
07C0
ENDCHAR
STARTCHAR uni1E44
ENCODING 7748
SWIDTH 782 0
DWIDTH 25 0
BBX 19 30 3 0
BITMAP
01F000
01F000
01F000
01F000
000000
000000
000000
F801E0
F801E0
FC01E0
FE01E0
FE01E0
FF01E0
FF81E0
F7C1E0
F7C1E0
F3E1E0
F1F1E0
F1F1E0
F0F9E0
F07DE0
F07DE0
F03FE0
F01FE0
F01FE0
F00FE0
F007E0
F007E0
F003E0
F001E0
ENDCHAR
STARTCHAR uni1E45
ENCODING 7749
SWIDTH 593 0
DWIDTH 19 0
BBX 15 23 2 0
BITMAP
07C0
07C0
07C0
07C0
0000
0000
F8E0
FBF8
FFFC
FFFE
FC7E
F83E
F81E
F81E
F81E
F81E
F81E
F81E
F81E
F81E
F81E
F81E
F81E
ENDCHAR
STARTCHAR uni1E5A
ENCODING 7770
SWIDTH 696 0
DWIDTH 22 0
BBX 18 29 3 -6
BITMAP
FFF800
FFFE00
FFFF00
F07F80
F00F80
F00F80
F00780
F00780
F00F80
F01F80
FFFF00
FFFF00
FFFE00
FFF800
F07C00
F03C00
F03E00
F03E00
F01F00
F01F00
F00F00
F00F80
F00FC0
000000
000000
000000
03C000
03C000
03C000
ENDCHAR
STARTCHAR uni1E5B
ENCODING 7771
SWIDTH 412 0
DWIDTH 13 0
BBX 10 23 2 -6
BITMAP
F8C0
FBC0
FFC0
FFC0
FFC0
FC00
F800
F800
F800
F800
F800
F800
F800
F800
F800
F800
F800
0000
0000
0000
F800
F800
F800
ENDCHAR
STARTCHAR uni1E62
ENCODING 7778
SWIDTH 692 0
DWIDTH 22 0
BBX 19 29 2 -6
BITMAP
07FC00
1FFF00
3FFF80
7E1FC0
7C07C0
F807C0
F803C0
FC0000
FE0000
7FF000
3FFE00
1FFF80
0FFF80
00FFC0
000FC0
0003E0
F003E0
F803C0
FC07C0
7F9FC0
7FFF80
1FFF00
07FC00
000000
000000
000000
01E000
01E000
01E000
ENDCHAR
STARTCHAR uni1E63
ENCODING 7779
SWIDTH 527 0
DWIDTH 17 0
BBX 15 23 1 -6
BITMAP
07E0
1FF8
3FFC
7E7C
783C
7800
7E00
7FE0
3FF8
0FFC
01FC
003E
F81E
783C
7FFC
3FF8
0FF0
0000
0000
0000
07C0
07C0
07C0
ENDCHAR
STARTCHAR uni1E6C
ENCODING 7788
SWIDTH 616 0
DWIDTH 20 0
BBX 18 29 1 -6
BITMAP
FFFFC0
FFFFC0
FFFFC0
FFFFC0
01E000
01E000
01E000
01E000
01E000
01E000
01E000
01E000
01E000
01E000
01E000
01E000
01E000
01E000
01E000
01E000
01E000
01E000
01E000
000000
000000
000000
01E000
01E000
01E000
ENDCHAR
STARTCHAR uni1E6D
ENCODING 7789
SWIDTH 416 0
DWIDTH 13 0
BBX 11 28 1 -6
BITMAP
0E00
0E00
1E00
1E00
1E00
FFE0
FFE0
FFE0
FFE0
1E00
1E00
1E00
1E00
1E00
1E00
1E00
1E00
1E00
1F00
1FE0
1FE0
0FE0
0000
0000
0000
0780
0780
0780
ENDCHAR
STARTCHAR Wgrave
ENCODING 7808
SWIDTH 968 0
DWIDTH 31 0
BBX 29 30 1 0
BITMAP
00F80000
003C0000
001E0000
000E0000
00070000
00000000
00000000
F0070078
F80F80F8
F80F80F8
780F80F0
781F80F0
7C1FC1F0
3C1FC1E0
3C1FC1E0
3E3DE3E0
3E3DE3E0
1E3DE3C0
1E38E3C0
1F78F7C0
0F78F780
0F78F780
0FF07F80
07F07F00
07F07F00
07E03F00
07E03F00
03E03E00
03E03E00
03C01E00
ENDCHAR
STARTCHAR wgrave
ENCODING 7809
SWIDTH 788 0
DWIDTH 25 0
BBX 24 23 1 0
BITMAP
07E000
01E000
00F000
007800
003800
000000
F0380F
F03C1E
F07C1E
F87C1E
787C3C
78FE3C
78FE3C
3CEE78
3CEF78
3DEF78
1FC770
1FC7F0
1FC7F0
0FC3E0
0F83E0
0F83E0
0783E0
ENDCHAR
STARTCHAR Wacute
ENCODING 7810
SWIDTH 968 0
DWIDTH 31 0
BBX 29 30 1 0
BITMAP
0000F800
0001E000
0003C000
00078000
00070000
00000000
00000000
F0070078
F80F80F8
F80F80F8
780F80F0
781F80F0
7C1FC1F0
3C1FC1E0
3C1FC1E0
3E3DE3E0
3E3DE3E0
1E3DE3C0
1E38E3C0
1F78F7C0
0F78F780
0F78F780
0FF07F80
07F07F00
07F07F00
07E03F00
07E03F00
03E03E00
03E03E00
03C01E00
ENDCHAR
STARTCHAR wacute
ENCODING 7811
SWIDTH 788 0
DWIDTH 25 0
BBX 24 23 1 0
BITMAP
0007C0
000F00
001E00
001C00
003800
000000
F0380F
F03C1E
F07C1E
F87C1E
787C3C
78FE3C
78FE3C
3CEE78
3CEF78
3DEF78
1FC770
1FC7F0
1FC7F0
0FC3E0
0F83E0
0F83E0
0783E0
ENDCHAR
STARTCHAR Wdieresis
ENCODING 7812
SWIDTH 968 0
DWIDTH 31 0
BBX 29 30 1 0
BITMAP
0078F000
0078F000
0078F000
0078F000
00000000
00000000
00000000
F0070078
F80F80F8
F80F80F8
780F80F0
781F80F0
7C1FC1F0
3C1FC1E0
3C1FC1E0
3E3DE3E0
3E3DE3E0
1E3DE3C0
1E38E3C0
1F78F7C0
0F78F780
0F78F780
0FF07F80
07F07F00
07F07F00
07E03F00
07E03F00
03E03E00
03E03E00
03C01E00
ENDCHAR
STARTCHAR wdieresis
ENCODING 7813
SWIDTH 788 0
DWIDTH 25 0
BBX 24 23 1 0
BITMAP
03C7C0
03C7C0
03C7C0
03C7C0
000000
000000
F0380F
F03C1E
F07C1E
F87C1E
787C3C
78FE3C
78FE3C
3CEE78
3CEF78
3DEF78
1FC770
1FC7F0
1FC7F0
0FC3E0
0F83E0
0F83E0
0783E0
ENDCHAR
STARTCHAR uni1E92
ENCODING 7826
SWIDTH 669 0
DWIDTH 21 0
BBX 18 29 2 -6
BITMAP
7FFFC0
7FFFC0
7FFFC0
7FFF80
001F00
003F00
003E00
007C00
00FC00
01F800
01F000
03F000
07E000
07C000
0F8000
1F8000
1F0000
3E0000
7E0000
7FFFC0
FFFFC0
FFFFC0
FFFFC0
000000
000000
000000
01E000
01E000
01E000
ENDCHAR
STARTCHAR uni1E93
ENCODING 7827
SWIDTH 496 0
DWIDTH 16 0
BBX 14 23 1 -6
BITMAP
FFFC
FFFC
FFFC
FFFC
00F8
01F0
03E0
07C0
07C0
0F80
1F00
3E00
7E00
7C00
FFFC
FFFC
FFFC
0000
0000
0000
0780
0780
0780
ENDCHAR
STARTCHAR uni1EA0
ENCODING 7840
SWIDTH 726 0
DWIDTH 23 0
BBX 21 29 1 -6
BITMAP
00F800
00FC00
01FC00
01FC00
03FE00
03DE00
03DE00
07CF00
078F00
078F80
0F8780
0F0780
0F07C0
1F03C0
1FFFC0
1FFFE0
3FFFE0
3FFFE0
7C01F0
7C01F0
7800F0
F800F8
F80078
000000
000000
000000
00F800
00F800
00F800
ENDCHAR
STARTCHAR uni1EA1
ENCODING 7841
SWIDTH 566 0
DWIDTH 18 0
BBX 15 23 1 -6
BITMAP
07E0
1FFC
3FFE
7E7E
781E
001E
001E
0FFE
3FFE
7E1E
781E
F81E
F81E
F83E
7FFE
7FDE
1F9E
0000
0000
0000
03E0
03E0
03E0
ENDCHAR
STARTCHAR uni1EA2
ENCODING 7842
SWIDTH 726 0
DWIDTH 23 0
BBX 21 31 1 0
BITMAP
00F000
007800
005C00
000C00
001C00
001800
000000
000000
00F800
00FC00
01FC00
01FC00
03FE00
03DE00
03DE00
07CF00
078F00
078F80
0F8780
0F0780
0F07C0
1F03C0
1FFFC0
1FFFE0
3FFFE0
3FFFE0
7C01F0
7C01F0
7800F0
F800F8
F80078
ENDCHAR
STARTCHAR uni1EA3
ENCODING 7843
SWIDTH 566 0
DWIDTH 18 0
BBX 15 25 1 0
BITMAP
01C0
03E0
0170
0070
0070
0060
0000
0000
07E0
1FFC
3FFE
7E7E
781E
001E
001E
0FFE
3FFE
7E1E
781E
F81E
F81E
F83E
7FFE
7FDE
1F9E
ENDCHAR
STARTCHAR uni1EA4
ENCODING 7844
SWIDTH 726 0
DWIDTH 23 0
BBX 21 34 1 0
BITMAP
000070
0000E0
0001E0
0001C0
007380
00F800
01DC00
038E00
070700
000000
000000
00F800
00FC00
01FC00
01FC00
03FE00
03DE00
03DE00
07CF00
078F00
078F80
0F8780
0F0780
0F07C0
1F03C0
1FFFC0
1FFFE0
3FFFE0
3FFFE0
7C01F0
7C01F0
7800F0
F800F8
F80078
ENDCHAR
STARTCHAR uni1EA5
ENCODING 7845
SWIDTH 566 0
DWIDTH 18 0
BBX 18 27 1 0
BITMAP
0003C0
000380
000700
000600
01CE00
03E000
077000
0E3800
1C3C00
000000
07E000
1FFC00
3FFE00
7E7E00
781E00
001E00
001E00
0FFE00
3FFE00
7E1E00
781E00
F81E00
F81E00
F83E00
7FFE00
7FDE00
1F9E00
ENDCHAR
STARTCHAR uni1EA6
ENCODING 7846
SWIDTH 726 0
DWIDTH 23 0
BBX 21 34 1 0
BITMAP
000F00
000700
000380
000180
0070C0
00F800
01DC00
038E00
070700
000000
000000
00F800
00FC00
01FC00
01FC00
03FE00
03DE00
03DE00
07CF00
078F00
078F80
0F8780
0F0780
0F07C0
1F03C0
1FFFC0
1FFFE0
3FFFE0
3FFFE0
7C01F0
7C01F0
7800F0
F800F8
F80078
ENDCHAR
STARTCHAR uni1EA7
ENCODING 7847
SWIDTH 566 0
DWIDTH 18 0
BBX 16 27 1 0
BITMAP
0038
001C
000E
000E
01C7
03E0
0770
0E38
1C3C
0000
07E0
1FFC
3FFE
7E7E
781E
001E
001E
0FFE
3FFE
7E1E
781E
F81E
F81E
F83E
7FFE
7FDE
1F9E
ENDCHAR
STARTCHAR uni1EA8
ENCODING 7848
SWIDTH 726 0
DWIDTH 23 0
BBX 21 35 1 0
BITMAP
000F00
000F80
000180
000180
000380
007180
00F800
01DC00
038E00
070700
000000
000000
00F800
00FC00
01FC00
01FC00
03FE00
03DE00
03DE00
07CF00
078F00
078F80
0F8780
0F0780
0F07C0
1F03C0
1FFFC0
1FFFE0
3FFFE0
3FFFE0
7C01F0
7C01F0
7800F0
F800F8
F80078
ENDCHAR
STARTCHAR uni1EA9
ENCODING 7849
SWIDTH 566 0
DWIDTH 18 0
BBX 15 28 1 0
BITMAP
003C
003E
0006
0006
000E
01C4
03E0
0770
0E38
1C1C
0000
07E0
1FFC
3FFE
7E7E
781E
001E
001E
0FFE
3FFE
7E1E
781E
F81E
F81E
F83E
7FFE
7FDE
1F9E
ENDCHAR
STARTCHAR uni1EAA
ENCODING 7850
SWIDTH 726 0
DWIDTH 23 0
BBX 21 35 1 0
BITMAP
03E100
07FF00
07FF00
021C00
000000
007000
00F800
01DC00
038E00
070700
000000
000000
00F800
00FC00
01FC00
01FC00
03FE00
03DE00
03DE00
07CF00
078F00
078F80
0F8780
0F0780
0F07C0
1F03C0
1FFFC0
1FFFE0
3FFFE0
3FFFE0
7C01F0
7C01F0
7800F0
F800F8
F80078
ENDCHAR
STARTCHAR uni1EAB
ENCODING 7851
SWIDTH 566 0
DWIDTH 18 0
BBX 15 28 1 0
BITMAP
0F08
1FFC
1FFC
1070
0000
01C0
03E0
0770
0E38
1C3C
0000
07E0
1FFC
3FFE
7E7E
781E
001E
001E
0FFE
3FFE
7E1E
781E
F81E
F81E
F83E
7FFE
7FDE
1F9E
ENDCHAR
STARTCHAR uni1EAC
ENCODING 7852
SWIDTH 726 0
DWIDTH 23 0
BBX 21 36 1 -6
BITMAP
007000
00F800
01DC00
038E00
070700
000000
000000
00F800
00FC00
01FC00
01FC00
03FE00
03DE00
03DE00
07CF00
078F00
078F80
0F8780
0F0780
0F07C0
1F03C0
1FFFC0
1FFFE0
3FFFE0
3FFFE0
7C01F0
7C01F0
7800F0
F800F8
F80078
000000
000000
000000
00F800
00F800
00F800
ENDCHAR
STARTCHAR uni1EAD
ENCODING 7853
SWIDTH 566 0
DWIDTH 18 0
BBX 15 29 1 -6
BITMAP
01C0
03E0
0770
0E38
1C3C
0000
07E0
1FFC
3FFE
7E7E
781E
001E
001E
0FFE
3FFE
7E1E
781E
F81E
F81E
F83E
7FFE
7FDE
1F9E
0000
0000
0000
03E0
03E0
03E0
ENDCHAR
STARTCHAR uni1EAE
ENCODING 7854
SWIDTH 726 0
DWIDTH 23 0
BBX 21 35 1 0
BITMAP
000E00
001C00
001C00
003800
007000
070700
078700
03FE00
01FC00
002000
000000
000000
00F800
00FC00
01FC00
01FC00
03FE00
03DE00
03DE00
07CF00
078F00
078F80
0F8780
0F0780
0F07C0
1F03C0
1FFFC0
1FFFE0
3FFFE0
3FFFE0
7C01F0
7C01F0
7800F0
F800F8
F80078
ENDCHAR
STARTCHAR uni1EAF
ENCODING 7855
SWIDTH 566 0
DWIDTH 18 0
BBX 15 28 1 0
BITMAP
0078
0070
00E0
00C0
01C0
1C1C
1C3C
0FF8
07F0
0080
0000
07E0
1FFC
3FFE
7E7E
781E
001E
001E
0FFE
3FFE
7E1E
781E
F81E
F81E
F83E
7FFE
7FDE
1F9E
ENDCHAR
STARTCHAR uni1EB0
ENCODING 7856
SWIDTH 726 0
DWIDTH 23 0
BBX 21 35 1 0
BITMAP
03C000
01C000
00E000
007000
003000
070700
078700
03FE00
01FC00
002000
000000
000000
00F800
00FC00
01FC00
01FC00
03FE00
03DE00
03DE00
07CF00
078F00
078F80
0F8780
0F0780
0F07C0
1F03C0
1FFFC0
1FFFE0
3FFFE0
3FFFE0
7C01F0
7C01F0
7800F0
F800F8
F80078
ENDCHAR
STARTCHAR uni1EB1
ENCODING 7857
SWIDTH 566 0
DWIDTH 18 0
BBX 15 28 1 0
BITMAP
0E00
0700
0380
0380
01C0
1C1C
1C3C
0FF8
07F0
0080
0000
07E0
1FFC
3FFE
7E7E
781E
001E
001E
0FFE
3FFE
7E1E
781E
F81E
F81E
F83E
7FFE
7FDE
1F9E
ENDCHAR
STARTCHAR uni1EB2
ENCODING 7858
SWIDTH 726 0
DWIDTH 23 0
BBX 21 36 1 0
BITMAP
004000
01F000
00B800
001800
003800
003000
072700
078700
03FE00
01FC00
002000
000000
000000
00F800
00FC00
01FC00
01FC00
03FE00
03DE00
03DE00
07CF00
078F00
078F80
0F8780
0F0780
0F07C0
1F03C0
1FFFC0
1FFFE0
3FFFE0
3FFFE0
7C01F0
7C01F0
7800F0
F800F8
F80078
ENDCHAR
STARTCHAR uni1EB3
ENCODING 7859
SWIDTH 566 0
DWIDTH 18 0
BBX 15 29 1 0
BITMAP
0300
07C0
03C0
00E0
01E0
00C0
1C9C
1C3C
0FF8
07F0
0080
0000
07E0
1FFC
3FFE
7E7E
781E
001E
001E
0FFE
3FFE
7E1E
781E
F81E
F81E
F83E
7FFE
7FDE
1F9E
ENDCHAR
STARTCHAR uni1EB4
ENCODING 7860
SWIDTH 726 0
DWIDTH 23 0
BBX 21 35 1 0
BITMAP
03E100
07FF00
07FF00
041C00
000000
070700
078700
03FE00
01FC00
002000
000000
000000
00F800
00FC00
01FC00
01FC00
03FE00
03DE00
03DE00
07CF00
078F00
078F80
0F8780
0F0780
0F07C0
1F03C0
1FFFC0
1FFFE0
3FFFE0
3FFFE0
7C01F0
7C01F0
7800F0
F800F8
F80078
ENDCHAR
STARTCHAR uni1EB5
ENCODING 7861
SWIDTH 566 0
DWIDTH 18 0
BBX 15 28 1 0
BITMAP
0F08
1FFC
1FFC
1070
0000
1C1C
1C3C
0FF8
07F0
0080
0000
07E0
1FFC
3FFE
7E7E
781E
001E
001E
0FFE
3FFE
7E1E
781E
F81E
F81E
F83E
7FFE
7FDE
1F9E
ENDCHAR
STARTCHAR uni1EB6
ENCODING 7862
SWIDTH 726 0
DWIDTH 23 0
BBX 21 36 1 -6
BITMAP
070700
078700
03FE00
01FC00
002000
000000
000000
00F800
00FC00
01FC00
01FC00
03FE00
03DE00
03DE00
07CF00
078F00
078F80
0F8780
0F0780
0F07C0
1F03C0
1FFFC0
1FFFE0
3FFFE0
3FFFE0
7C01F0
7C01F0
7800F0
F800F8
F80078
000000
000000
000000
00F800
00F800
00F800
ENDCHAR
STARTCHAR uni1EB7
ENCODING 7863
SWIDTH 566 0
DWIDTH 18 0
BBX 15 29 1 -6
BITMAP
1C1C
1C3C
0FF8
07F0
0080
0000
07E0
1FFC
3FFE
7E7E
781E
001E
001E
0FFE
3FFE
7E1E
781E
F81E
F81E
F83E
7FFE
7FDE
1F9E
0000
0000
0000
03E0
03E0
03E0
ENDCHAR
STARTCHAR uni1EB8
ENCODING 7864
SWIDTH 634 0
DWIDTH 20 0
BBX 16 29 3 -6
BITMAP
FFFE
FFFE
FFFE
FFFE
F000
F000
F000
F000
F000
FFFC
FFFC
FFFC
FFFC
F000
F000
F000
F000
F000
F000
FFFF
FFFF
FFFF
FFFF
0000
0000
0000
03C0
03C0
03C0
ENDCHAR
STARTCHAR uni1EB9
ENCODING 7865
SWIDTH 576 0
DWIDTH 18 0
BBX 16 23 1 -6
BITMAP
03E0
0FF8
1FFC
3F7E
7C1E
781F
780F
FFFF
FFFF
FFFF
F800
7800
7C1F
7E3F
3FFE
1FFC
07F0
0000
0000
0000
03E0
03E0
03E0
ENDCHAR
STARTCHAR uni1EBA
ENCODING 7866
SWIDTH 634 0
DWIDTH 20 0
BBX 16 31 3 0
BITMAP
0780
03C0
02E0
0060
00E0
00C0
0000
0000
FFFE
FFFE
FFFE
FFFE
F000
F000
F000
F000
F000
FFFC
FFFC
FFFC
FFFC
F000
F000
F000
F000
F000
F000
FFFF
FFFF
FFFF
FFFF
ENDCHAR
STARTCHAR uni1EBB
ENCODING 7867
SWIDTH 576 0
DWIDTH 18 0
BBX 16 25 1 0
BITMAP
01C0
03E0
0170
0070
0070
0060
0000
0000
03E0
0FF8
1FFC
3F7E
7C1E
781F
780F
FFFF
FFFF
FFFF
F800
7800
7C1F
7E3F
3FFE
1FFC
07F0
ENDCHAR
STARTCHAR uni1EBC
ENCODING 7868
SWIDTH 634 0
DWIDTH 20 0
BBX 16 30 3 0
BITMAP
1F08
3FF8
3FF8
10F0
0000
0000
0000
FFFE
FFFE
FFFE
FFFE
F000
F000
F000
F000
F000
FFFC
FFFC
FFFC
FFFC
F000
F000
F000
F000
F000
F000
FFFF
FFFF
FFFF
FFFF
ENDCHAR
STARTCHAR uni1EBD
ENCODING 7869
SWIDTH 576 0
DWIDTH 18 0
BBX 16 23 1 0
BITMAP
0F08
1FFC
1FFC
1070
0000
0000
03E0
0FF8
1FFC
3F7E
7C1E
781F
780F
FFFF
FFFF
FFFF
F800
7800
7C1F
7E3F
3FFE
1FFC
07F0
ENDCHAR
STARTCHAR uni1EBE
ENCODING 7870
SWIDTH 634 0
DWIDTH 20 0
BBX 17 34 3 0
BITMAP
000380
000700
000E00
000E00
039C00
07C000
0EE000
1C7000
383800
000000
000000
FFFE00
FFFE00
FFFE00
FFFE00
F00000
F00000
F00000
F00000
F00000
FFFC00
FFFC00
FFFC00
FFFC00
F00000
F00000
F00000
F00000
F00000
F00000
FFFF00
FFFF00
FFFF00
FFFF00
ENDCHAR
STARTCHAR uni1EBF
ENCODING 7871
SWIDTH 576 0
DWIDTH 18 0
BBX 18 27 1 0
BITMAP
0003C0
000380
000700
000600
01CE00
03E000
077000
0E3800
1C3C00
000000
03E000
0FF800
1FFC00
3F7E00
7C1E00
781F00
780F00
FFFF00
FFFF00
FFFF00
F80000
780000
7C1F00
7E3F00
3FFE00
1FFC00
07F000
ENDCHAR
STARTCHAR uni1EC0
ENCODING 7872
SWIDTH 634 0
DWIDTH 20 0
BBX 16 34 3 0
BITMAP
0078
0038
001C
000C
038E
07C0
0EE0
1C70
3838
0000
0000
FFFE
FFFE
FFFE
FFFE
F000
F000
F000
F000
F000
FFFC
FFFC
FFFC
FFFC
F000
F000
F000
F000
F000
F000
FFFF
FFFF
FFFF
FFFF
ENDCHAR
STARTCHAR uni1EC1
ENCODING 7873
SWIDTH 576 0
DWIDTH 18 0
BBX 16 27 1 0
BITMAP
0038
001C
000E
000E
01C7
03E0
0770
0E38
1C3C
0000
03E0
0FF8
1FFC
3F7E
7C1E
781F
780F
FFFF
FFFF
FFFF
F800
7800
7C1F
7E3F
3FFE
1FFC
07F0
ENDCHAR
STARTCHAR uni1EC2
ENCODING 7874
SWIDTH 634 0
DWIDTH 20 0
BBX 16 35 3 0
BITMAP
0078
007C
000C
000C
001C
0388
07C0
0EE0
1C70
3838
0000
0000
FFFE
FFFE
FFFE
FFFE
F000
F000
F000
F000
F000
FFFC
FFFC
FFFC
FFFC
F000
F000
F000
F000
F000
F000
FFFF
FFFF
FFFF
FFFF
ENDCHAR
STARTCHAR uni1EC3
ENCODING 7875
SWIDTH 576 0
DWIDTH 18 0
BBX 16 28 1 0
BITMAP
003C
003E
0006
0006
000E
01C4
03E0
0770
0E38
1C1C
0000
03E0
0FF8
1FFC
3F7E
7C1E
781F
780F
FFFF
FFFF
FFFF
F800
7800
7C1F
7E3F
3FFE
1FFC
07F0
ENDCHAR
STARTCHAR uni1EC4
ENCODING 7876
SWIDTH 634 0
DWIDTH 20 0
BBX 16 35 3 0
BITMAP
1F18
3FF8
3FF8
20F0
0000
0380
07C0
0EE0
1C70
3838
0000
0000
FFFE
FFFE
FFFE
FFFE
F000
F000
F000
F000
F000
FFFC
FFFC
FFFC
FFFC
F000
F000
F000
F000
F000
F000
FFFF
FFFF
FFFF
FFFF
ENDCHAR
STARTCHAR uni1EC5
ENCODING 7877
SWIDTH 576 0
DWIDTH 18 0
BBX 16 28 1 0
BITMAP
0F08
1FFC
1FFC
1070
0000
01C0
03E0
0770
0E38
1C3C
0000
03E0
0FF8
1FFC
3F7E
7C1E
781F
780F
FFFF
FFFF
FFFF
F800
7800
7C1F
7E3F
3FFE
1FFC
07F0
ENDCHAR
STARTCHAR uni1EC6
ENCODING 7878
SWIDTH 634 0
DWIDTH 20 0
BBX 16 36 3 -6
BITMAP
0380
07C0
0EE0
1C70
3838
0000
0000
FFFE
FFFE
FFFE
FFFE
F000
F000
F000
F000
F000
FFFC
FFFC
FFFC
FFFC
F000
F000
F000
F000
F000
F000
FFFF
FFFF
FFFF
FFFF
0000
0000
0000
03C0
03C0
03C0
ENDCHAR
STARTCHAR uni1EC7
ENCODING 7879
SWIDTH 576 0
DWIDTH 18 0
BBX 16 29 1 -6
BITMAP
01C0
03E0
0770
0E38
1C3C
0000
03E0
0FF8
1FFC
3F7E
7C1E
781F
780F
FFFF
FFFF
FFFF
F800
7800
7C1F
7E3F
3FFE
1FFC
07F0
0000
0000
0000
03E0
03E0
03E0
ENDCHAR
STARTCHAR uni1EC8
ENCODING 7880
SWIDTH 307 0
DWIDTH 10 0
BBX 5 31 3 0
BITMAP
F0
F8
98
18
38
10
00
00
F0
F0
F0
F0
F0
F0
F0
F0
F0
F0
F0
F0
F0
F0
F0
F0
F0
F0
F0
F0
F0
F0
F0
ENDCHAR
STARTCHAR uni1EC9
ENCODING 7881
SWIDTH 264 0
DWIDTH 8 0
BBX 6 25 2 0
BITMAP
70
F8
5C
1C
18
18
00
00
F0
F0
F0
F0
F0
F0
F0
F0
F0
F0
F0
F0
F0
F0
F0
F0
F0
ENDCHAR
STARTCHAR uni1ECA
ENCODING 7882
SWIDTH 307 0
DWIDTH 10 0
BBX 4 29 3 -6
BITMAP
F0
F0
F0
F0
F0
F0
F0
F0
F0
F0
F0
F0
F0
F0
F0
F0
F0
F0
F0
F0
F0
F0
F0
00
00
00
F0
F0
F0
ENDCHAR
STARTCHAR uni1ECB
ENCODING 7883
SWIDTH 267 0
DWIDTH 9 0
BBX 5 29 2 -6
BITMAP
F8
F8
F8
F8
00
00
F8
F8
F8
F8
F8
F8
F8
F8
F8
F8
F8
F8
F8
F8
F8
F8
F8
00
00
00
F8
F8
F8
ENDCHAR
STARTCHAR uni1ECC
ENCODING 7884
SWIDTH 760 0
DWIDTH 24 0
BBX 21 29 2 -6
BITMAP
03FE00
0FFF80
1FFFC0
3F9FE0
7E07E0
7C03F0
FC01F0
F801F0
F801F8
F800F8
F800F8
F800F8
F800F8
F800F8
F801F8
F801F0
FC01F0
7C03F0
7E07E0
3FFFC0
1FFFC0
0FFF00
03FE00
000000
000000
000000
00F000
00F000
00F000
ENDCHAR
STARTCHAR uni1ECD
ENCODING 7885
SWIDTH 575 0
DWIDTH 18 0
BBX 16 23 1 -6
BITMAP
03E0
0FF8
3FFC
3FFE
7C3E
781F
F81F
F80F
F80F
F80F
F81F
781F
7C1F
7E3E
3FFC
1FFC
0FF0
0000
0000
0000
03C0
03C0
03C0
ENDCHAR
STARTCHAR uni1ECE
ENCODING 7886
SWIDTH 760 0
DWIDTH 24 0
BBX 21 31 2 0
BITMAP
007000
00F800
005800
001C00
003800
001800
000000
000000
03FE00
0FFF80
1FFFC0
3F9FE0
7E07E0
7C03F0
FC01F0
F801F0
F801F8
F800F8
F800F8
F800F8
F800F8
F800F8
F801F8
F801F0
FC01F0
7C03F0
7E07E0
3FFFC0
1FFFC0
0FFF00
03FE00
ENDCHAR
STARTCHAR uni1ECF
ENCODING 7887
SWIDTH 575 0
DWIDTH 18 0
BBX 16 25 1 0
BITMAP
01C0
03E0
0160
0070
00E0
0060
0000
0000
03E0
0FF8
3FFC
3FFE
7C3E
781F
F81F
F80F
F80F
F80F
F81F
781F
7C1F
7E3E
3FFC
1FFC
0FF0
ENDCHAR
STARTCHAR uni1ED0
ENCODING 7888
SWIDTH 760 0
DWIDTH 24 0
BBX 21 34 2 0
BITMAP
0000F0
0000E0
0001C0
000380
00F300
01F800
03FC00
079E00
0F0F00
000000
000000
03FE00
0FFF80
1FFFC0
3F9FE0
7E07E0
7C03F0
FC01F0
F801F0
F801F8
F800F8
F800F8
F800F8
F800F8
F800F8
F801F8
F801F0
FC01F0
7C03F0
7E07E0
3FFFC0
1FFFC0
0FFF00
03FE00
ENDCHAR
STARTCHAR uni1ED1
ENCODING 7889
SWIDTH 575 0
DWIDTH 18 0
BBX 18 27 1 0
BITMAP
0003C0
000380
000700
000600
03CC00
07E000
0FF000
1E7800
3C3C00
000000
03E000
0FF800
3FFC00
3FFE00
7C3E00
781F00
F81F00
F80F00
F80F00
F80F00
F81F00
781F00
7C1F00
7E3E00
3FFC00
1FFC00
0FF000
ENDCHAR
STARTCHAR uni1ED2
ENCODING 7890
SWIDTH 760 0
DWIDTH 24 0
BBX 21 34 2 0
BITMAP
000E00
000F00
000700
000380
00F1C0
01F800
03FC00
079E00
0F0F00
000000
000000
03FE00
0FFF80
1FFFC0
3F9FE0
7E07E0
7C03F0
FC01F0
F801F0
F801F8
F800F8
F800F8
F800F8
F800F8
F800F8
F801F8
F801F0
FC01F0
7C03F0
7E07E0
3FFFC0
1FFFC0
0FFF00
03FE00
ENDCHAR
STARTCHAR uni1ED3
ENCODING 7891
SWIDTH 575 0
DWIDTH 18 0
BBX 16 27 1 0
BITMAP
0038
001C
001C
000E
03C7
07E0
0FF0
1E78
3C3C
0000
03E0
0FF8
3FFC
3FFE
7C3E
781F
F81F
F80F
F80F
F80F
F81F
781F
7C1F
7E3E
3FFC
1FFC
0FF0
ENDCHAR
STARTCHAR uni1ED4
ENCODING 7892
SWIDTH 760 0
DWIDTH 24 0
BBX 21 35 2 0
BITMAP
001F00
000F00
000380
000180
000380
007300
00F800
01FC00
079E00
0F0F00
000000
000000
03FE00
0FFF80
1FFFC0
3F9FE0
7E07E0
7C03F0
FC01F0
F801F0
F801F8
F800F8
F800F8
F800F8
F800F8
F800F8
F801F8
F801F0
FC01F0
7C03F0
7E07E0
3FFFC0
1FFFC0
0FFF00
03FE00
ENDCHAR
STARTCHAR uni1ED5
ENCODING 7893
SWIDTH 575 0
DWIDTH 18 0
BBX 16 28 1 0
BITMAP
007C
003E
0006
0006
000E
01CC
03E0
07F0
0E78
3C3C
0000
03E0
0FF8
3FFC
3FFE
7C3E
781F
F81F
F80F
F80F
F80F
F81F
781F
7C1F
7E3E
3FFC
1FFC
0FF0
ENDCHAR
STARTCHAR uni1ED6
ENCODING 7894
SWIDTH 760 0
DWIDTH 24 0
BBX 21 35 2 0
BITMAP
03C200
07FE00
07FF00
041C00
000000
00F000
01F800
03FC00
079E00
0F0F00
000000
000000
03FE00
0FFF80
1FFFC0
3F9FE0
7E07E0
7C03F0
FC01F0
F801F0
F801F8
F800F8
F800F8
F800F8
F800F8
F800F8
F801F8
F801F0
FC01F0
7C03F0
7E07E0
3FFFC0
1FFFC0
0FFF00
03FE00
ENDCHAR
STARTCHAR uni1ED7
ENCODING 7895
SWIDTH 575 0
DWIDTH 18 0
BBX 16 28 1 0
BITMAP
0F08
1FF8
1FFC
1070
0000
01C0
03E0
0FF0
1E78
3C3C
0000
03E0
0FF8
3FFC
3FFE
7C3E
781F
F81F
F80F
F80F
F80F
F81F
781F
7C1F
7E3E
3FFC
1FFC
0FF0
ENDCHAR
STARTCHAR uni1ED8
ENCODING 7896
SWIDTH 760 0
DWIDTH 24 0
BBX 21 36 2 -6
BITMAP
00F000
01F800
03FC00
079E00
0F0F00
000000
000000
03FE00
0FFF80
1FFFC0
3F9FE0
7E07E0
7C03F0
FC01F0
F801F0
F801F8
F800F8
F800F8
F800F8
F800F8
F800F8
F801F8
F801F0
FC01F0
7C03F0
7E07E0
3FFFC0
1FFFC0
0FFF00
03FE00
000000
000000
000000
00F000
00F000
00F000
ENDCHAR
STARTCHAR uni1ED9
ENCODING 7897
SWIDTH 575 0
DWIDTH 18 0
BBX 16 29 1 -6
BITMAP
03C0
07E0
0FF0
1E78
3C3C
0000
03E0
0FF8
3FFC
3FFE
7C3E
781F
F81F
F80F
F80F
F80F
F81F
781F
7C1F
7E3E
3FFC
1FFC
0FF0
0000
0000
0000
03C0
03C0
03C0
ENDCHAR
STARTCHAR uni1EDA
ENCODING 7898
SWIDTH 835 0
DWIDTH 27 0
BBX 24 30 2 0
BITMAP
001F80
001E00
003C00
007800
00F000
000000
000007
03FE07
0FFF8F
1FFFDE
3F9FFE
7E07FC
7C03F0
FC01F0
F801F0
F801F8
F800F8
F800F8
F800F8
F800F8
F800F8
F801F8
F801F0
FC01F0
7C03F0
7E07E0
3FFFC0
1FFFC0
0FFF00
03FE00
ENDCHAR
STARTCHAR uni1EDB
ENCODING 7899
SWIDTH 641 0
DWIDTH 21 0
BBX 20 23 1 0
BITMAP
007E00
007800
00F000
01E000
03C000
000070
03E0F0
0FF8E0
3FFFE0
3FFFE0
7C3FC0
781F00
F81F00
F80F00
F80F00
F80F00
F81F00
781F00
7C1F00
7E3E00
3FFC00
1FFC00
0FF000
ENDCHAR
STARTCHAR uni1EDC
ENCODING 7900
SWIDTH 835 0
DWIDTH 27 0
BBX 24 30 2 0
BITMAP
0F8000
07C000
03C000
01E000
00F000
000000
000007
03FE07
0FFF8F
1FFFDE
3F9FFE
7E07FC
7C03F0
FC01F0
F801F0
F801F8
F800F8
F800F8
F800F8
F800F8
F800F8
F801F8
F801F0
FC01F0
7C03F0
7E07E0
3FFFC0
1FFFC0
0FFF00
03FE00
ENDCHAR
STARTCHAR uni1EDD
ENCODING 7901
SWIDTH 641 0
DWIDTH 21 0
BBX 20 23 1 0
BITMAP
3E0000
1F0000
0F0000
078000
03C000
000070
03E0F0
0FF8E0
3FFFE0
3FFFE0
7C3FC0
781F00
F81F00
F80F00
F80F00
F80F00
F81F00
781F00
7C1F00
7E3E00
3FFC00
1FFC00
0FF000
ENDCHAR
STARTCHAR uni1EDE
ENCODING 7902
SWIDTH 835 0
DWIDTH 27 0
BBX 24 31 2 0
BITMAP
007000
00F800
005800
001C00
003800
001800
000000
000007
03FE07
0FFF8F
1FFFDE
3F9FFE
7E07FC
7C03F0
FC01F0
F801F0
F801F8
F800F8
F800F8
F800F8
F800F8
F800F8
F801F8
F801F0
FC01F0
7C03F0
7E07E0
3FFFC0
1FFFC0
0FFF00
03FE00
ENDCHAR
STARTCHAR uni1EDF
ENCODING 7903
SWIDTH 641 0
DWIDTH 21 0
BBX 20 25 1 0
BITMAP
03C000
03E000
026000
006000
00E000
006000
000000
000070
03E0F0
0FF8E0
3FFFE0
3FFFE0
7C3FC0
781F00
F81F00
F80F00
F80F00
F80F00
F81F00
781F00
7C1F00
7E3E00
3FFC00
1FFC00
0FF000
ENDCHAR
STARTCHAR uni1EE0
ENCODING 7904
SWIDTH 835 0
DWIDTH 27 0
BBX 24 30 2 0
BITMAP
03C200
07FF00
07FF00
041C00
000000
000000
000007
03FE07
0FFF8F
1FFFDE
3F9FFE
7E07FC
7C03F0
FC01F0
F801F0
F801F8
F800F8
F800F8
F800F8
F800F8
F800F8
F801F8
F801F0
FC01F0
7C03F0
7E07E0
3FFFC0
1FFFC0
0FFF00
03FE00
ENDCHAR
STARTCHAR uni1EE1
ENCODING 7905
SWIDTH 641 0
DWIDTH 21 0
BBX 20 23 1 0
BITMAP
0F0800
1FF800
1FFC00
10F000
000000
000070
03E0F0
0FF8E0
3FFFE0
3FFFE0
7C3FC0
781F00
F81F00
F80F00
F80F00
F80F00
F81F00
781F00
7C1F00
7E3E00
3FFC00
1FFC00
0FF000
ENDCHAR
STARTCHAR uni1EE2
ENCODING 7906
SWIDTH 835 0
DWIDTH 27 0
BBX 24 30 2 -6
BITMAP
000007
03FE07
0FFF8F
1FFFDE
3F9FFE
7E07FC
7C03F0
FC01F0
F801F0
F801F8
F800F8
F800F8
F800F8
F800F8
F800F8
F801F8
F801F0
FC01F0
7C03F0
7E07E0
3FFFC0
1FFFC0
0FFF00
03FE00
000000
000000
000000
00F000
00F000
00F000
ENDCHAR
STARTCHAR uni1EE3
ENCODING 7907
SWIDTH 641 0
DWIDTH 21 0
BBX 20 24 1 -6
BITMAP
000070
03E0F0
0FF8E0
3FFFE0
3FFFE0
7C3FC0
781F00
F81F00
F80F00
F80F00
F80F00
F81F00
781F00
7C1F00
7E3E00
3FFC00
1FFC00
0FF000
000000
000000
000000
03C000
03C000
03C000
ENDCHAR
STARTCHAR uni1EE4
ENCODING 7908
SWIDTH 724 0
DWIDTH 23 0
BBX 18 29 3 -6
BITMAP
F007C0
F007C0
F007C0
F007C0
F007C0
F007C0
F007C0
F007C0
F007C0
F007C0
F007C0
F007C0
F007C0
F007C0
F007C0
F807C0
F807C0
F807C0
FC0F80
7FFF80
7FFF00
3FFE00
0FFC00
000000
000000
000000
01E000
01E000
01E000
ENDCHAR
STARTCHAR uni1EE5
ENCODING 7909
SWIDTH 595 0
DWIDTH 19 0
BBX 15 23 2 -6
BITMAP
F03E
F03E
F03E
F03E
F03E
F03E
F03E
F03E
F03E
F03E
F03E
F03E
F83E
FC7E
FFFE
7FDE
1F9E
0000
0000
0000
07C0
07C0
07C0
ENDCHAR
STARTCHAR uni1EE6
ENCODING 7910
SWIDTH 724 0
DWIDTH 23 0
BBX 18 31 3 0
BITMAP
01E000
01F000
013000
003000
007000
002000
000000
000000
F007C0
F007C0
F007C0
F007C0
F007C0
F007C0
F007C0
F007C0
F007C0
F007C0
F007C0
F007C0
F007C0
F007C0
F007C0
F807C0
F807C0
F807C0
FC0F80
7FFF80
7FFF00
3FFE00
0FFC00
ENDCHAR
STARTCHAR uni1EE7
ENCODING 7911
SWIDTH 595 0
DWIDTH 19 0
BBX 15 25 2 0
BITMAP
0780
03C0
02E0
0060
00E0
00C0
0000
0000
F03E
F03E
F03E
F03E
F03E
F03E
F03E
F03E
F03E
F03E
F03E
F03E
F83E
FC7E
FFFE
7FDE
1F9E
ENDCHAR
STARTCHAR uni1EE8
ENCODING 7912
SWIDTH 860 0
DWIDTH 28 0
BBX 23 30 3 0
BITMAP
003E00
007C00
007800
00F000
01C000
000000
00000E
F007CE
F007CE
F007DE
F007FC
F007F8
F007C0
F007C0
F007C0
F007C0
F007C0
F007C0
F007C0
F007C0
F007C0
F007C0
F807C0
F807C0
F807C0
FC0F80
7FFF80
7FFF00
3FFE00
0FFC00
ENDCHAR
STARTCHAR uni1EE9
ENCODING 7913
SWIDTH 710 0
DWIDTH 23 0
BBX 21 23 2 0
BITMAP
007C00
00F000
01E000
01C000
038000
000078
F03E78
F03E70
F03FF0
F03FF0
F03FC0
F03E00
F03E00
F03E00
F03E00
F03E00
F03E00
F03E00
F83E00
FC7E00
FFFE00
7FDE00
1F9E00
ENDCHAR
STARTCHAR uni1EEA
ENCODING 7914
SWIDTH 860 0
DWIDTH 28 0
BBX 23 30 3 0
BITMAP
3F0000
0F0000
078000
03C000
01E000
000000
00000E
F007CE
F007CE
F007DE
F007FC
F007F8
F007C0
F007C0
F007C0
F007C0
F007C0
F007C0
F007C0
F007C0
F007C0
F007C0
F807C0
F807C0
F807C0
FC0F80
7FFF80
7FFF00
3FFE00
0FFC00
ENDCHAR
STARTCHAR uni1EEB
ENCODING 7915
SWIDTH 710 0
DWIDTH 23 0
BBX 21 23 2 0
BITMAP
7C0000
1E0000
0F0000
078000
038000
000078
F03E78
F03E70
F03FF0
F03FF0
F03FC0
F03E00
F03E00
F03E00
F03E00
F03E00
F03E00
F03E00
F83E00
FC7E00
FFFE00
7FDE00
1F9E00
ENDCHAR
STARTCHAR uni1EEC
ENCODING 7916
SWIDTH 860 0
DWIDTH 28 0
BBX 23 31 3 0
BITMAP
01E000
01F000
013000
003000
007000
002000
000000
00000E
F007CE
F007CE
F007DE
F007FC
F007F8
F007C0
F007C0
F007C0
F007C0
F007C0
F007C0
F007C0
F007C0
F007C0
F007C0
F807C0
F807C0
F807C0
FC0F80
7FFF80
7FFF00
3FFE00
0FFC00
ENDCHAR
STARTCHAR uni1EED
ENCODING 7917
SWIDTH 710 0
DWIDTH 23 0
BBX 21 25 2 0
BITMAP
078000
03C000
02E000
006000
00E000
00C000
000000
000078
F03E78
F03E70
F03FF0
F03FF0
F03FC0
F03E00
F03E00
F03E00
F03E00
F03E00
F03E00
F03E00
F83E00
FC7E00
FFFE00
7FDE00
1F9E00
ENDCHAR
STARTCHAR uni1EEE
ENCODING 7918
SWIDTH 856 0
DWIDTH 28 0
BBX 23 30 3 0
BITMAP
078400
1FFC00
0FFC00
087800
000000
000000
00000E
F007CE
F007CE
F007DE
F007FC
F007F8
F007C0
F007C0
F007C0
F007C0
F007C0
F007C0
F007C0
F007C0
F007C0
F007C0
F807C0
F807C0
F807C0
FC0F80
7FFF80
7FFF00
3FFE00
0FFC00
ENDCHAR
STARTCHAR uni1EEF
ENCODING 7919
SWIDTH 710 0
DWIDTH 23 0
BBX 21 23 2 0
BITMAP
1F0800
3FF800
3FF800
10F000
000000
000078
F03E78
F03E70
F03FF0
F03FF0
F03FC0
F03E00
F03E00
F03E00
F03E00
F03E00
F03E00
F03E00
F83E00
FC7E00
FFFE00
7FDE00
1F9E00
ENDCHAR
STARTCHAR uni1EF0
ENCODING 7920
SWIDTH 860 0
DWIDTH 28 0
BBX 23 30 3 -6
BITMAP
00000E
F007CE
F007CE
F007DE
F007FC
F007F8
F007C0
F007C0
F007C0
F007C0
F007C0
F007C0
F007C0
F007C0
F007C0
F007C0
F807C0
F807C0
F807C0
FC0F80
7FFF80
7FFF00
3FFE00
0FFC00
000000
000000
000000
01E000
01E000
01E000
ENDCHAR
STARTCHAR uni1EF1
ENCODING 7921
SWIDTH 710 0
DWIDTH 23 0
BBX 21 24 2 -6
BITMAP
000078
F03E78
F03E70
F03FF0
F03FF0
F03FC0
F03E00
F03E00
F03E00
F03E00
F03E00
F03E00
F03E00
F83E00
FC7E00
FFFE00
7FDE00
1F9E00
000000
000000
000000
07C000
07C000
07C000
ENDCHAR
STARTCHAR Ygrave
ENCODING 7922
SWIDTH 667 0
DWIDTH 21 0
BBX 21 30 0 0
BITMAP
07C000
03E000
01E000
00F000
007800
000000
000000
FC00F8
7C01F0
3E03E0
3E03E0
1F07C0
0F87C0
0F8F80
07CF00
07DF00
03FE00
01FE00
01FC00
00F800
00F800
00F800
00F800
00F800
00F800
00F800
00F800
00F800
00F800
00F800
ENDCHAR
STARTCHAR ygrave
ENCODING 7923
SWIDTH 563 0
DWIDTH 18 0
BBX 18 28 0 -5
BITMAP
1F0000
0F8000
078000
03C000
01E000
000000
F807C0
780780
7C0F80
3C0F00
3E0F00
3E1F00
1E1E00
1F3E00
0F3C00
0F3C00
07FC00
07F800
07F800
03F000
03F000
01F000
01E000
03E000
07C000
7FC000
7F8000
7F0000
ENDCHAR
STARTCHAR uni1EF4
ENCODING 7924
SWIDTH 667 0
DWIDTH 21 0
BBX 21 29 0 -6
BITMAP
FC00F8
7C01F0
3E03E0
3E03E0
1F07C0
0F87C0
0F8F80
07CF00
07DF00
03FE00
01FE00
01FC00
00F800
00F800
00F800
00F800
00F800
00F800
00F800
00F800
00F800
00F800
00F800
000000
000000
000000
00F800
00F800
00F800
ENDCHAR
STARTCHAR uni1EF5
ENCODING 7925
SWIDTH 563 0
DWIDTH 18 0
BBX 18 22 0 -5
BITMAP
F807C0
780780
7C0F80
3C0F00
3E0F00
3E1F00
1E1E00
1F3E00
0F3C00
0F3C00
07FC00
07F800
07F800
03F000
03F000
01F000
01E000
03E000
07C000
7FCF00
7F8F00
7F0F00
ENDCHAR
STARTCHAR uni1EF6
ENCODING 7926
SWIDTH 667 0
DWIDTH 21 0
BBX 21 31 0 0
BITMAP
003800
007C00
002C00
000E00
001C00
000C00
000000
000000
FC00F8
7C01F0
3E03E0
3E03E0
1F07C0
0F87C0
0F8F80
07CF00
07DF00
03FE00
01FE00
01FC00
00F800
00F800
00F800
00F800
00F800
00F800
00F800
00F800
00F800
00F800
00F800
ENDCHAR
STARTCHAR uni1EF7
ENCODING 7927
SWIDTH 563 0
DWIDTH 18 0
BBX 18 30 0 -5
BITMAP
01E000
01F000
013000
003000
007000
003000
000000
000000
F807C0
780780
7C0F80
3C0F00
3E0F00
3E1F00
1E1E00
1F3E00
0F3C00
0F3C00
07FC00
07F800
07F800
03F000
03F000
01F000
01E000
03E000
07C000
7FC000
7F8000
7F0000
ENDCHAR
STARTCHAR uni1EF8
ENCODING 7928
SWIDTH 667 0
DWIDTH 21 0
BBX 21 30 0 0
BITMAP
01E100
03FF80
03FF80
020E00
000000
000000
000000
FC00F8
7C01F0
3E03E0
3E03E0
1F07C0
0F87C0
0F8F80
07CF00
07DF00
03FE00
01FE00
01FC00
00F800
00F800
00F800
00F800
00F800
00F800
00F800
00F800
00F800
00F800
00F800
ENDCHAR
STARTCHAR uni1EF9
ENCODING 7929
SWIDTH 563 0
DWIDTH 18 0
BBX 18 28 0 -5
BITMAP
078400
0FFC00
0FFE00
087800
000000
000000
F807C0
780780
7C0F80
3C0F00
3E0F00
3E1F00
1E1E00
1F3E00
0F3C00
0F3C00
07FC00
07F800
07F800
03F000
03F000
01F000
01E000
03E000
07C000
7FC000
7F8000
7F0000
ENDCHAR
STARTCHAR endash
ENCODING 8211
SWIDTH 592 0
DWIDTH 19 0
BBX 15 4 2 6
BITMAP
FFFE
FFFE
FFFE
FFFE
ENDCHAR
STARTCHAR emdash
ENCODING 8212
SWIDTH 1148 0
DWIDTH 37 0
BBX 25 4 6 6
BITMAP
FFFFFF80
FFFFFF80
FFFFFF80
FFFFFF80
ENDCHAR
STARTCHAR quoteleft
ENCODING 8216
SWIDTH 263 0
DWIDTH 8 0
BBX 5 9 1 15
BITMAP
18
30
30
70
F8
F8
F8
F8
F8
ENDCHAR
STARTCHAR quoteright
ENCODING 8217
SWIDTH 261 0
DWIDTH 8 0
BBX 5 9 2 14
BITMAP
F8
F8
F8
F8
70
60
60
C0
C0
ENDCHAR
STARTCHAR quotesinglbase
ENCODING 8218
SWIDTH 277 0
DWIDTH 9 0
BBX 5 9 1 -4
BITMAP
78
78
78
78
78
38
30
60
E0
ENDCHAR
STARTCHAR quotedblleft
ENCODING 8220
SWIDTH 479 0
DWIDTH 15 0
BBX 12 9 1 14
BITMAP
1830
3060
3060
70E0
F9F0
F9F0
F9F0
F9F0
F9F0
ENDCHAR
STARTCHAR quotedblright
ENCODING 8221
SWIDTH 478 0
DWIDTH 15 0
BBX 11 9 2 14
BITMAP
F9E0
F9E0
F9E0
F9E0
70E0
60C0
60C0
C180
C300
ENDCHAR
STARTCHAR quotedblbase
ENCODING 8222
SWIDTH 498 0
DWIDTH 16 0
BBX 13 9 1 -4
BITMAP
78F8
78F8
78F8
78F8
78F0
3870
3060
60E0
E0C0
ENDCHAR
STARTCHAR dagger
ENCODING 8224
SWIDTH 520 0
DWIDTH 17 0
BBX 14 28 1 -5
BITMAP
07C0
0780
0780
0780
0780
0780
0380
E38C
FFFC
FFFC
FFFC
0380
0380
0380
0380
0380
0380
0780
0780
0780
0780
0780
0780
0780
0780
0780
0780
0780
ENDCHAR
STARTCHAR daggerdbl
ENCODING 8225
SWIDTH 520 0
DWIDTH 17 0
BBX 14 28 1 -5
BITMAP
0780
0780
0780
0780
0780
0780
0380
0380
FFFC
FFFC
FFFC
C38C
0380
0380
0380
0380
0380
E39C
FFFC
FFFC
FFFC
0380
0780
0780
0780
0780
0780
07C0
ENDCHAR
STARTCHAR bullet
ENCODING 8226
SWIDTH 353 0
DWIDTH 11 0
BBX 8 8 1 8
BITMAP
1C
3E
7F
7F
FF
7F
7F
3E
ENDCHAR
STARTCHAR ellipsis
ENCODING 8230
SWIDTH 894 0
DWIDTH 29 0
BBX 25 5 2 0
BITMAP
F83E0F80
F83E0F80
F83E0F80
F83E0F80
F83E0F80
ENDCHAR
STARTCHAR perthousand
ENCODING 8240
SWIDTH 1352 0
DWIDTH 43 0
BBX 41 23 1 0
BITMAP
1F800E000000
3FE01C000000
78E01C000000
70F038000000
707070000000
F07070000000
F070E0000000
7071C0000000
70F1C0000000
78E380000000
3FE70E007800
1FC73F81FC00
060E7FC3FE00
001CF1E38F00
001CE0E78700
0038E0E70700
0070E0E70780
0070E0E70780
00E0E0E70700
01C0E1E78700
01C071C38F00
03807FC1FE00
07001F00FC00
ENDCHAR
STARTCHAR guilsinglleft
ENCODING 8249
SWIDTH 309 0
DWIDTH 10 0
BBX 6 12 2 2
BITMAP
1C
38
38
70
F0
E0
F0
70
70
38
38
1C
ENDCHAR
STARTCHAR guilsinglright
ENCODING 8250
SWIDTH 308 0
DWIDTH 10 0
BBX 6 12 2 2
BITMAP
E0
70
70
38
38
3C
3C
38
78
70
60
E0
ENDCHAR
STARTCHAR fraction
ENCODING 8260
SWIDTH 237 0
DWIDTH 8 0
BBX 18 23 -5 0
BITMAP
0001C0
000380
000700
000600
000E00
001C00
001800
003800
007000
006000
00E000
01C000
018000
038000
070000
060000
0E0000
1C0000
180000
380000
700000
700000
E00000
ENDCHAR
STARTCHAR uni2070
ENCODING 8304
SWIDTH 402 0
DWIDTH 13 0
BBX 11 15 1 11
BITMAP
3F00
7F80
71C0
E1E0
E0E0
E0E0
E0E0
E0E0
E0E0
E0E0
E0E0
71C0
7FC0
3F80
0400
ENDCHAR
STARTCHAR uni2074
ENCODING 8308
SWIDTH 410 0
DWIDTH 13 0
BBX 11 14 1 12
BITMAP
0380
0780
0F80
0F80
1F80
3B80
7380
6380
E380
FFE0
FFE0
0380
0380
0380
ENDCHAR
STARTCHAR uni2075
ENCODING 8309
SWIDTH 421 0
DWIDTH 13 0
BBX 12 15 1 11
BITMAP
7FE0
7FE0
7000
7000
7000
6F80
7FE0
79E0
00F0
00F0
60F0
F0E0
7FE0
3FC0
0F00
ENDCHAR
STARTCHAR uni2076
ENCODING 8310
SWIDTH 412 0
DWIDTH 13 0
BBX 11 15 1 11
BITMAP
1F80
3FC0
79E0
F0E0
E000
E700
FFC0
FFE0
F0E0
E0E0
E0E0
70E0
7FC0
3FC0
0600
ENDCHAR
STARTCHAR uni2077
ENCODING 8311
SWIDTH 372 0
DWIDTH 12 0
BBX 11 14 1 12
BITMAP
FFE0
FFE0
01C0
01C0
0380
0780
0700
0F00
0E00
1E00
1C00
1C00
1C00
3C00
ENDCHAR
STARTCHAR uni2078
ENCODING 8312
SWIDTH 429 0
DWIDTH 14 0
BBX 12 15 1 11
BITMAP
1F80
7FC0
70E0
70E0
70E0
79E0
3FC0
7FC0
71E0
E0F0
E070
F0F0
7FE0
3FC0
0600
ENDCHAR
STARTCHAR uni2079
ENCODING 8313
SWIDTH 411 0
DWIDTH 13 0
BBX 11 15 1 11
BITMAP
3F00
7FC0
F1C0
E0E0
E0E0
E0E0
F1E0
7FE0
3EE0
00E0
E0E0
E1C0
7FC0
3F80
0C00
ENDCHAR
STARTCHAR colonmonetary
ENCODING 8353
SWIDTH 718 0
DWIDTH 23 0
BBX 19 27 2 -2
BITMAP
003700
003600
07FE00
0FFF00
3FFF80
3FFFC0
7E6FE0
7CCFE0
F8CFE0
F8CDE0
F8CC00
F8D800
F9D800
F99800
F99800
F99800
F9B000
FBB3E0
FB33E0
7F33E0
7F37C0
3FFFC0
1FFF80
0FFF00
07FC00
066000
06E000
ENDCHAR
STARTCHAR franc
ENCODING 8355
SWIDTH 624 0
DWIDTH 20 0
BBX 20 23 -1 0
BITMAP
1FFFF0
1FFFF0
1FFFF0
1FFFF0
1F8000
1F8000
1F8000
1F8000
1F8000
1F8000
1FFF80
1FFF80
1FFF80
1FFF80
1F8000
1F8000
1F8000
FFF800
FFF800
1F8000
1F8000
1F8000
1F8000
ENDCHAR
STARTCHAR lira
ENCODING 8356
SWIDTH 648 0
DWIDTH 21 0
BBX 18 23 1 0
BITMAP
07FC00
0FFE00
1FFF00
1F9F80
3F0F00
3F0000
3F0000
3F0000
FFF000
FFF000
FF0000
1F0000
1F0000
FFF000
FFF000
1F0000
1F0000
1F03C0
3E07C0
FFFFC0
FFFF80
FFFF00
FFFC00
ENDCHAR
STARTCHAR uni20A6
ENCODING 8358
SWIDTH 830 0
DWIDTH 27 0
BBX 26 23 0 0
BITMAP
0F801E00
0F801E00
0FC01E00
0FE01E00
0FE01E00
0FF01E00
0FF81E00
FFFFFFC0
FFFFFFC0
0F3E1E00
0F1F1E00
0F1F1E00
0F0F9E00
FFFFFFC0
FFFFFFC0
FFFFFFC0
0F01FE00
0F01FE00
0F00FE00
0F007E00
0F003E00
0F003E00
0F001E00
ENDCHAR
STARTCHAR uni20A9
ENCODING 8361
SWIDTH 1118 0
DWIDTH 36 0
BBX 35 23 0 0
BITMAP
1F00F00F80
1F01F01F00
0F01F01F00
0F01F01E00
FFFFFFFFE0
FFFFFFFFE0
0783F83E00
0783F83C00
07C7BC3C00
FFFFFFFFE0
FFFFFFFFE0
03E79E7800
03EF1EF800
01EF1EF800
01EF0EF000
01FE0FF000
00FE0FF000
00FE0FE000
00FE07E000
007C07E000
007C07C000
007C03C000
007803C000
ENDCHAR
STARTCHAR dong
ENCODING 8363
SWIDTH 536 0
DWIDTH 17 0
BBX 16 23 1 0
BITMAP
003C
003C
03FF
03FF
003C
0F3C
3FFC
7FFC
787C
783C
F03C
F03C
F03C
F03C
F83C
787C
7FFC
3FBC
1F3C
0000
0000
7FFC
7FFC
ENDCHAR
STARTCHAR Euro
ENCODING 8364
SWIDTH 651 0
DWIDTH 21 0
BBX 20 23 0 0
BITMAP
00FF80
01FFC0
07FFF0
07E3E0
0FC080
0F8000
1F8000
1F0000
FFFC00
FFFC00
1F0000
1F0000
1F0000
FFFC00
FFFC00
1F0000
1F8000
0F8040
0FC0C0
07FFE0
03FFF0
01FFC0
00FF00
ENDCHAR
STARTCHAR uni20B9
ENCODING 8377
SWIDTH 643 0
DWIDTH 21 0
BBX 19 23 1 0
BITMAP
FFFFE0
FFFFE0
00FE00
003F00
003F00
FFFFE0
FFFFE0
003F00
003F00
FFFE00
FFFC00
FFF800
FFF000
01F000
01F800
00F800
00F800
00FC00
007C00
007E00
007E00
003E00
003F00
ENDCHAR
STARTCHAR uni20BA
ENCODING 8378
SWIDTH 655 0
DWIDTH 21 0
BBX 20 23 0 0
BITMAP
0FC000
0FC000
0FC000
0FC000
0FC000
0FDC00
0FFC00
0FF800
1FE000
FFC000
7FCC00
6FFE00
0FFC00
0FE000
7FC0E0
7FC0F0
2FC1F0
0FC3E0
0FC7E0
0FFFC0
0FFF80
0FFE00
0FF800
ENDCHAR
STARTCHAR uni2113
ENCODING 8467
SWIDTH 570 0
DWIDTH 18 0
BBX 16 23 1 0
BITMAP
07F8
0FFC
1FBC
1F1C
1E1C
3E1C
3E1C
3E1C
3E3C
3E78
3E78
3EF0
3FE0
3FC0
3F80
7E00
FE00
FE02
7F07
1F1E
1FFE
0FFC
07F0
ENDCHAR
STARTCHAR uni2116
ENCODING 8470
SWIDTH 1185 0
DWIDTH 38 0
BBX 34 23 3 0
BITMAP
F801E07F00
F801E0FF80
FC01E0E380
FE01E1C3C0
FE01E1C1C0
FF01E1C1C0
FF81E1E3C0
F7C1E0E380
F7C1E0FF80
F3E1E03E00
F1F1E00000
F1F1E00000
F0F9E00000
F07DE00000
F07DE00000
F03FE00000
F01FE00000
F01FE00000
F00FE00000
F007E00000
F007E00000
F003E00000
F001E00000
ENDCHAR
STARTCHAR uni2117
ENCODING 8471
SWIDTH 830 0
DWIDTH 27 0
BBX 24 23 1 0
BITMAP
01FF80
03FFE0
0F81F0
1E0078
1C003C
38FC1C
70FF8E
70E7CE
60E1C7
E0E1C7
E0E3C7
E0FF87
E0FF07
E0E007
70E007
70E00E
70E00E
38E01C
1C003C
1E0078
0FC3F0
03FFC0
00FF80
ENDCHAR
STARTCHAR uni2120
ENCODING 8480
SWIDTH 1011 0
DWIDTH 32 0
BBX 30 15 1 0
BITMAP
07000000
3FC1E07C
7FE1F07C
70E1F07C
E071F0FC
F001F0DC
7E01F8DC
7FC1D9DC
1FE1D99C
01F1DD9C
0071CF9C
E071CF1C
F0E1CF1C
7FE1C71C
1F81C61C
ENDCHAR
STARTCHAR trademark
ENCODING 8482
SWIDTH 953 0
DWIDTH 31 0
BBX 29 14 0 0
BITMAP
FFF3C0F8
FFF3E0F8
0703E0F8
0703E1F8
0703F1B8
0703B1B8
0703B3B8
0703BBB8
0703BB38
07039F38
07039F38
07039E38
07038E38
07038E38
ENDCHAR
STARTCHAR uni2126
ENCODING 8486
SWIDTH 767 0
DWIDTH 25 0
BBX 22 24 1 0
BITMAP
00FE00
03FF80
0FFFE0
1FFFE0
3F83F0
3F01F8
7E00F8
7C00FC
7C00FC
FC007C
FC007C
FC007C
7C007C
7C007C
7C00F8
3C00F8
3E00F0
1E01F0
0F03E0
0787C0
7FCFFC
7FCFFC
7FCFFC
7FCFFC
ENDCHAR
STARTCHAR uni2153
ENCODING 8531
SWIDTH 923 0
DWIDTH 30 0
BBX 28 23 1 0
BITMAP
18003800
38007000
F800E000
F800C000
3801C000
38038000
38030000
38070000
380E0E00
380C3FC0
381C7FE0
3838E0E0
3830E0E0
387000E0
00E00FC0
00C00F80
01C00FE0
038000E0
0300E0F0
0700E0F0
0E00F1E0
0C007FE0
1C003F80
ENDCHAR
STARTCHAR uni2154
ENCODING 8532
SWIDTH 1084 0
DWIDTH 35 0
BBX 33 23 1 0
BITMAP
3F8001C000
7FC0038000
F1C0070000
E1E0070000
E1E00E0000
01C01C0000
07C01C0000
1F80380000
3E00707000
780071FE00
F000E3FF00
E001C78700
FFE1C70700
FFE3800700
0007007E00
0007007C00
000E007F00
001C000700
001C070780
0038070780
0070078F00
007003FF00
00E001FC00
ENDCHAR
STARTCHAR oneeighth
ENCODING 8539
SWIDTH 928 0
DWIDTH 30 0
BBX 28 23 1 0
BITMAP
18003800
38007000
F800E000
F800C000
3801C000
38038000
38030000
38070000
380E0F00
380C3FC0
381C79E0
383870E0
383070E0
387070E0
00E07FC0
00C03F80
01C07FE0
0380F0E0
0300E0F0
0700E0F0
0E00F0E0
0C007FE0
1C003F80
ENDCHAR
STARTCHAR threeeighths
ENCODING 8540
SWIDTH 1056 0
DWIDTH 34 0
BBX 32 23 1 0
BITMAP
3FC00380
7FE00700
F1E00E00
E0E00C00
00E01C00
03E03800
0F803000
0FC07000
01E0E0F0
00F0E3FC
E0F1C79E
F0E3870E
7FE3870E
3FC7070E
040E03FC
000E03F8
001C07FE
00380F0E
00380E07
00700E0F
00E00F0E
00E007FE
01C003F8
ENDCHAR
STARTCHAR fiveeighths
ENCODING 8541
SWIDTH 1053 0
DWIDTH 34 0
BBX 32 23 1 0
BITMAP
7FE00380
7FE00700
70000E00
70000C00
70001C00
6F803800
7FE03000
79E07000
00F0E0F0
00F0C3FC
60F1C79E
F0E3870E
7FE3070E
3FC7070E
0F0E07FC
000C03F8
001C07FE
00380F0E
00300E0F
00700E0F
00E00F0E
00C007FE
01C003F8
ENDCHAR
STARTCHAR seveneighths
ENCODING 8542
SWIDTH 968 0
DWIDTH 31 0
BBX 29 23 1 0
BITMAP
FFE01C00
FFE03800
01C03000
01C07000
0380E000
0780C000
0701C000
0F038000
0E030780
1E071FE0
1C0E3CF0
1C0C3870
1C1C3870
3C383870
00301FF0
00700FE0
00E03FF0
00C03878
01C07038
03807838
03003878
07003FF0
0E000FE0
ENDCHAR
STARTCHAR partialdiff
ENCODING 8706
SWIDTH 605 0
DWIDTH 19 0
BBX 17 23 1 0
BITMAP
1FF000
7FF800
7FFC00
307E00
001F00
000F00
000F00
000F80
03C780
1FF780
3FFF80
7F7F80
7C1F80
780F80
F80F80
F80F80
F80F00
781F00
781F00
7C3E00
3FFC00
1FFC00
0FF000
ENDCHAR
STARTCHAR emptyset
ENCODING 8709
SWIDTH 597 0
DWIDTH 19 0
BBX 16 15 1 4
BITMAP
03E2
0FFF
1E3E
381E
303E
7076
60E7
61C3
7387
3706
3E0E
3C1C
7FFC
F7F0
6080
ENDCHAR
STARTCHAR uni2206
ENCODING 8710
SWIDTH 771 0
DWIDTH 25 0
BBX 23 23 1 0
BITMAP
001000
001000
003800
003800
007C00
007C00
00FE00
00FE00
01FF00
01EF00
03EF80
07C780
07C7C0
0F83C0
0F83E0
1F01E0
1F01F0
3E00F0
3E00F8
7FFFF8
7FFFFC
FFFFFC
FFFFFE
ENDCHAR
STARTCHAR product
ENCODING 8719
SWIDTH 698 0
DWIDTH 22 0
BBX 21 23 1 0
BITMAP
FFFFF8
FFFFF8
FFFFF8
FFFFF8
3E07C0
3E07C0
3E07C0
3E07C0
3E07C0
3E07C0
3E07C0
3E07C0
3E07C0
3E07C0
3E07C0
3E07C0
3E07C0
3E07C0
3E07C0
3E07C0
3E07C0
3E07C0
3E07C0
ENDCHAR
STARTCHAR summation
ENCODING 8721
SWIDTH 572 0
DWIDTH 18 0
BBX 16 23 1 0
BITMAP
FFFF
FFFF
FFFF
7FFF
7E00
3F00
1F80
0FC0
0FC0
07E0
03F0
01F0
03E0
07C0
0FC0
1F80
1F00
3E00
7E00
FFFF
FFFF
FFFF
FFFF
ENDCHAR
STARTCHAR minus
ENCODING 8722
SWIDTH 588 0
DWIDTH 19 0
BBX 15 3 2 10
BITMAP
FFFE
FFFE
FFFE
ENDCHAR
STARTCHAR uni2215
ENCODING 8725
SWIDTH 610 0
DWIDTH 20 0
BBX 17 23 1 0
BITMAP
000380
000700
000600
000E00
001C00
001C00
003800
003000
007000
00E000
00E000
01C000
018000
038000
030000
070000
0E0000
0E0000
1C0000
180000
380000
700000
F00000
ENDCHAR
STARTCHAR uni2219
ENCODING 8729
SWIDTH 354 0
DWIDTH 11 0
BBX 5 5 3 9
BITMAP
70
F8
F8
F8
70
ENDCHAR
STARTCHAR radical
ENCODING 8730
SWIDTH 685 0
DWIDTH 22 0
BBX 22 31 0 -5
BITMAP
00003C
000078
000078
000078
000078
0000F0
0000F0
0000F0
0000F0
0001E0
0001E0
0001E0
0001C0
0003C0
0603C0
3E03C0
FE0380
7F0780
4F0780
078780
078700
078F00
03CF00
03CF00
03CE00
01FE00
01FE00
01FE00
00FC00
00FC00
007C00
ENDCHAR
STARTCHAR infinity
ENCODING 8734
SWIDTH 792 0
DWIDTH 25 0
BBX 23 11 1 3
BITMAP
1F81F0
3FC7F8
7FEFFC
70FE1C
707C1E
F03C0E
707C1E
70FE1C
7FEFFC
3FC7F8
1F01F0
ENDCHAR
STARTCHAR integral
ENCODING 8747
SWIDTH 469 0
DWIDTH 15 0
BBX 14 32 0 -5
BITMAP
0078
01FC
03FC
03FC
07CC
0780
0780
0780
0780
0780
0780
0780
0780
0780
0780
0780
0780
07C0
07C0
07C0
03C0
03C0
03C0
03C0
03C0
03C0
03C0
07C0
7F80
7F80
7F00
FE00
ENDCHAR
STARTCHAR approxequal
ENCODING 8776
SWIDTH 608 0
DWIDTH 19 0
BBX 16 12 2 5
BITMAP
0C02
3F06
7FFF
F3FE
40FC
4000
0000
1E02
7F86
FFFF
E1FE
4078
ENDCHAR
STARTCHAR notequal
ENCODING 8800
SWIDTH 588 0
DWIDTH 19 0
BBX 15 20 2 1
BITMAP
0030
0070
0060
0060
00C0
FFFE
FFFE
FFFE
0380
0300
0700
0600
FFFE
FFFE
FFFE
1C00
1800
3800
3000
7000
ENDCHAR
STARTCHAR lessequal
ENCODING 8804
SWIDTH 588 0
DWIDTH 19 0
BBX 15 21 2 1
BITMAP
0002
001E
007E
03FE
0FFC
7FE0
FF80
FC00
FE00
FF80
3FF0
0FFE
01FE
007E
000E
0002
0000
0000
FFFE
FFFE
FFFE
ENDCHAR
STARTCHAR greaterequal
ENCODING 8805
SWIDTH 588 0
DWIDTH 19 0
BBX 15 21 2 1
BITMAP
8000
F000
FC00
FF80
7FE0
1FFC
03FE
007E
00FE
07FE
1FF8
FFE0
FF00
F800
E000
8000
0000
0000
FFFE
FFFE
FFFE
ENDCHAR
STARTCHAR lozenge
ENCODING 9674
SWIDTH 556 0
DWIDTH 18 0
BBX 14 23 2 0
BITMAP
0780
07C0
0FC0
0FE0
1EE0
1CF0
3C70
3878
7838
703C
F03C
F01C
F03C
7038
7838
3870
3C70
1CE0
1EE0
0FC0
0FC0
0780
0780
ENDCHAR
STARTCHAR fi
ENCODING 64257
SWIDTH 663 0
DWIDTH 21 0
BBX 18 23 1 0
BITMAP
07E3C0
0FE3C0
1FE3C0
1F03C0
1E0000
1E0000
FFE3C0
FFE3C0
FFE3C0
FFE3C0
1F03C0
1F03C0
1F03C0
1F03C0
1F03C0
1F03C0
1F03C0
1F03C0
1F03C0
1F03C0
1F03C0
1F03C0
1F03C0
ENDCHAR
STARTCHAR fl
ENCODING 64258
SWIDTH 725 0
DWIDTH 23 0
BBX 21 24 1 0
BITMAP
0003C0
07E3C0
0FE3C0
1FE3C0
1F03C0
1E03C0
1E03C0
FFE3C0
FFE3C0
FFE3C0
FFE3C0
1F03C0
1F03C0
1F03C0
1F03C0
1F03C0
1F03C0
1F03C0
1F03C0
1F03C0
1F03E0
1F03F8
1F03F8
1F01F8
ENDCHAR
STARTCHAR .notdef
ENCODING -1
SWIDTH 657 0
DWIDTH 21 0
BBX 15 31 3 -5
BITMAP
FFFE
E002
E002
E002
B002
B002
9802
9802
8C02
8C02
8C02
8602
8602
8302
8302
8182
8182
8182
80C2
80C2
8062
8062
8032
8032
8032
801A
801A
800E
800E
C006
FFFE
ENDCHAR
STARTCHAR i.loclTRK
ENCODING -1
SWIDTH 264 0
DWIDTH 8 0
BBX 5 23 2 0
BITMAP
F8
F8
F8
F8
00
00
F0
F0
F0
F0
F0
F0
F0
F0
F0
F0
F0
F0
F0
F0
F0
F0
F0
ENDCHAR
STARTCHAR g.ss01
ENCODING -1
SWIDTH 606 0
DWIDTH 19 0
BBX 17 22 1 -5
BITMAP
078F80
1FEF80
3FFF80
3F7F80
7C1F80
7C1F80
F80F80
F80F80
F80F80
F80F80
780F80
7C1F80
7E3F80
3FFF80
1FFF80
0FEF00
000F00
780F00
7C3F00
3FFE00
1FFC00
0FF000
ENDCHAR
STARTCHAR l.ss01
ENCODING -1
SWIDTH 308 0
DWIDTH 10 0
BBX 4 24 3 0
BITMAP
F0
F0
F0
F0
F0
F0
F0
F0
F0
F0
F0
F0
F0
F0
F0
F0
F0
F0
F0
F0
F0
F0
F0
F0
ENDCHAR
STARTCHAR zero.osf
ENCODING -1
SWIDTH 644 0
DWIDTH 21 0
BBX 18 23 1 0
BITMAP
07F800
0FFE00
1FFF00
3F3F00
3E0F80
7C0F80
7C07C0
7C07C0
7807C0
F807C0
F807C0
F807C0
F807C0
F807C0
7807C0
7C07C0
7C07C0
7C0F80
3E0F80
3FFF00
1FFF00
0FFE00
07F800
ENDCHAR
STARTCHAR one.osf
ENCODING -1
SWIDTH 428 0
DWIDTH 14 0
BBX 9 23 1 0
BITMAP
0380
0780
0F80
FF80
FF80
FF80
0F80
0F80
0F80
0F80
0F80
0F80
0F80
0F80
0F80
0F80
0F80
0F80
0F80
0F80
0F80
0F80
0F80
ENDCHAR
STARTCHAR two.osf
ENCODING -1
SWIDTH 635 0
DWIDTH 20 0
BBX 18 23 1 0
BITMAP
07FC00
1FFF00
3FFF80
7FBF80
7C0FC0
7807C0
F807C0
0007C0
000FC0
001F80
007F80
00FF00
03FC00
0FF800
1FE000
3F8000
7E0000
7C0000
7C0000
7FFFC0
7FFFC0
7FFFC0
7FFFC0
ENDCHAR
STARTCHAR three.osf
ENCODING -1
SWIDTH 665 0
DWIDTH 21 0
BBX 19 23 1 0
BITMAP
07FE00
1FFF00
3FFF80
7E1FC0
7C07C0
7807C0
7807C0
0007C0
000FC0
01FF80
01FE00
01FF00
01FF80
000FC0
0007E0
0003E0
F803E0
7803E0
7C07E0
7FBFC0
3FFF80
1FFF00
07FC00
ENDCHAR
STARTCHAR four.osf
ENCODING -1
SWIDTH 656 0
DWIDTH 21 0
BBX 19 23 1 0
BITMAP
003F00
003F00
007F00
00FF00
01FF00
01FF00
03DF00
07DF00
0F9F00
0F1F00
1E1F00
3E1F00
3C1F00
781F00
FFFFE0
FFFFE0
FFFFE0
FFFFE0
001F00
001F00
001F00
001F00
001F00
ENDCHAR
STARTCHAR five.osf
ENCODING -1
SWIDTH 675 0
DWIDTH 22 0
BBX 19 23 1 0
BITMAP
1FFFC0
1FFFC0
1FFFC0
3FFFC0
3C0000
3C0000
3C0000
3C0000
3CFE00
3FFF00
3FFF80
3FFFC0
0E07E0
0003E0
0003E0
0003E0
1803E0
F803E0
7C07E0
7FBFC0
3FFF80
0FFF00
03FE00
ENDCHAR
STARTCHAR six.osf
ENCODING -1
SWIDTH 660 0
DWIDTH 21 0
BBX 19 23 1 0
BITMAP
03FC00
0FFF00
1FFF80
1F8FC0
3E07C0
7C03C0
7C0000
7C0000
7C7000
7DFE00
FFFF80
FFFFC0
FF0FC0
FC07C0
7C03E0
7C03E0
7C03E0
7C07C0
3E07C0
3F1FC0
1FFF80
0FFF00
03FC00
ENDCHAR
STARTCHAR seven.osf
ENCODING -1
SWIDTH 626 0
DWIDTH 20 0
BBX 18 23 1 0
BITMAP
FFFFC0
FFFFC0
FFFFC0
FFFFC0
000F80
001F00
001F00
003E00
003E00
007C00
007C00
00F800
00F800
01F000
01F000
03E000
03E000
03E000
07C000
07C000
07C000
07C000
07C000
ENDCHAR
STARTCHAR eight.osf
ENCODING -1
SWIDTH 671 0
DWIDTH 21 0
BBX 19 23 1 0
BITMAP
07FC00
1FFF00
3FFF80
3E0FC0
3C07C0
7C07C0
7C07C0
3C07C0
3E0F80
1FFF80
0FFF00
0FFF00
3FFF80
7E0FC0
7C07E0
FC03E0
F803E0
FC03E0
7C07E0
7F0FC0
3FFFC0
1FFF80
07FE00
ENDCHAR
STARTCHAR nine.osf
ENCODING -1
SWIDTH 659 0
DWIDTH 21 0
BBX 19 23 1 0
BITMAP
07F800
1FFE00
3FFF00
7F1F80
7C0F80
7C07C0
FC07C0
FC07C0
7C07E0
7C07E0
7E1FE0
3FFFE0
3FFFE0
0FFBE0
03C3C0
0003C0
8007C0
7807C0
7C0F80
7F3F80
3FFF00
1FFE00
07F800
ENDCHAR
STARTCHAR zero.tf
ENCODING -1
SWIDTH 700 0
DWIDTH 22 0
BBX 18 23 2 0
BITMAP
07F800
0FFE00
1FFF00
3F3F00
3E0F80
7C0F80
7C07C0
7807C0
F807C0
F807C0
F807C0
F807C0
F807C0
F807C0
F807C0
7807C0
7C07C0
7C0F80
3E0F80
3FFF00
1FFF00
0FFE00
07F800
ENDCHAR
STARTCHAR one.tf
ENCODING -1
SWIDTH 700 0
DWIDTH 22 0
BBX 17 23 3 0
BITMAP
01E000
0FE000
7FE000
FFE000
FFE000
F3E000
83E000
03E000
03E000
03E000
03E000
03E000
03E000
03E000
03E000
03E000
03E000
03E000
03E000
FFFF80
FFFF80
FFFF80
FFFF80
ENDCHAR
STARTCHAR two.tf
ENCODING -1
SWIDTH 700 0
DWIDTH 22 0
BBX 17 23 3 0
BITMAP
0FF800
3FFE00
7FFF00
7F7F00
FC1F80
F80F80
F00F80
000F80
001F80
003F80
007F00
01FE00
07FC00
1FF000
3FC000
7F0000
7C0000
FC0000
F80000
FFFF80
FFFF80
FFFF80
FFFF80
ENDCHAR
STARTCHAR three.tf
ENCODING -1
SWIDTH 700 0
DWIDTH 22 0
BBX 19 23 2 0
BITMAP
0FFC00
1FFF00
3FFF80
7E1FC0
7C07C0
F807C0
F807C0
0007C0
001F80
01FF00
01FE00
01FE00
01FF80
000FC0
0007C0
0007E0
F803E0
F807E0
7C07C0
7F7FC0
3FFF80
1FFF00
0FFC00
ENDCHAR
STARTCHAR four.tf
ENCODING -1
SWIDTH 700 0
DWIDTH 22 0
BBX 19 23 2 0
BITMAP
003E00
007E00
00FE00
00FE00
01FE00
03FE00
07FE00
07BE00
0F3E00
1E3E00
3E3E00
3C3E00
783E00
F03E00
FFFFE0
FFFFE0
FFFFE0
FFFFE0
003E00
003E00
003E00
003E00
003E00
ENDCHAR
STARTCHAR five.tf
ENCODING -1
SWIDTH 700 0
DWIDTH 22 0
BBX 19 23 2 0
BITMAP
1FFFC0
1FFFC0
1FFFC0
3FFFC0
3C0000
3C0000
3C0000
3C0000
3CFE00
3FFF00
3FFF80
3FFFC0
0E07E0
0003E0
0003E0
0003E0
1803E0
F803E0
7C07E0
7FBFC0
3FFF80
0FFF00
07FE00
ENDCHAR
STARTCHAR six.tf
ENCODING -1
SWIDTH 700 0
DWIDTH 22 0
BBX 18 23 2 0
BITMAP
07FC00
0FFF00
1FFF80
3F1F80
3E07C0
7C07C0
7C0000
F80000
F83000
F9FE00
FFFF00
FFFF80
FE0FC0
FC07C0
F807C0
F807C0
7C07C0
7C07C0
7E0FC0
3F1F80
1FFF00
0FFE00
07FC00
ENDCHAR
STARTCHAR seven.tf
ENCODING -1
SWIDTH 700 0
DWIDTH 22 0
BBX 19 23 2 0
BITMAP
FFFFE0
FFFFE0
FFFFE0
FFFFE0
0007C0
000F80
000F00
001F00
003E00
003E00
007C00
007800
00F800
01F000
01F000
01E000
03E000
03E000
07C000
07C000
07C000
0F8000
0F8000
ENDCHAR
STARTCHAR eight.tf
ENCODING -1
SWIDTH 700 0
DWIDTH 22 0
BBX 19 23 2 0
BITMAP
0FFC00
1FFE00
3FFF00
7E0F80
7C0780
7C0780
7C07C0
7C0F80
7E0F80
3FFF00
1FFE00
1FFE00
3FFF80
7E0FC0
FC07C0
F807C0
F803E0
F807C0
FC07C0
7E1FC0
7FFF80
3FFF00
0FFC00
ENDCHAR
STARTCHAR nine.tf
ENCODING -1
SWIDTH 700 0
DWIDTH 22 0
BBX 18 23 2 0
BITMAP
0FF800
1FFE00
3FFF00
7E1F80
7C0F80
FC07C0
F807C0
F807C0
F807C0
FC0FC0
7E1FC0
7FFFC0
3FFBC0
0FF3C0
03C3C0
0003C0
0007C0
F80780
7C0F80
7E3F00
3FFF00
1FFE00
07F800
ENDCHAR
STARTCHAR zero.subs
ENCODING -1
SWIDTH 402 0
DWIDTH 13 0
BBX 11 15 1 -5
BITMAP
0E00
3F80
7FC0
71C0
E0E0
E0E0
E0E0
E0E0
E0E0
E0E0
E0E0
E1C0
71C0
7F80
1F00
ENDCHAR
STARTCHAR one.subs
ENCODING -1
SWIDTH 256 0
DWIDTH 8 0
BBX 5 15 1 -5
BITMAP
18
18
F8
F8
38
38
38
38
38
38
38
38
38
38
38
ENDCHAR
STARTCHAR two.subs
ENCODING -1
SWIDTH 392 0
DWIDTH 13 0
BBX 11 15 1 -5
BITMAP
1E00
7F80
FFC0
E1E0
E0E0
01E0
03C0
07C0
1F00
7E00
7800
E000
FFE0
FFE0
FFE0
ENDCHAR
STARTCHAR three.subs
ENCODING -1
SWIDTH 425 0
DWIDTH 14 0
BBX 12 15 1 -5
BITMAP
0E00
3FC0
7FE0
E0E0
E0E0
00E0
0FC0
0F80
0FE0
00E0
E0F0
E0F0
F1E0
7FE0
3F80
ENDCHAR
STARTCHAR four.subs
ENCODING -1
SWIDTH 410 0
DWIDTH 13 0
BBX 11 15 1 -5
BITMAP
0380
0780
0780
0F80
1F80
3B80
3B80
7380
E380
FFE0
FFE0
FFE0
0380
0380
0380
ENDCHAR
STARTCHAR five.subs
ENCODING -1
SWIDTH 421 0
DWIDTH 13 0
BBX 12 15 1 -5
BITMAP
7FE0
7FE0
7FE0
7000
7000
7200
7FC0
7FE0
30E0
00F0
20F0
E0F0
F1E0
7FC0
1F80
ENDCHAR
STARTCHAR six.subs
ENCODING -1
SWIDTH 412 0
DWIDTH 13 0
BBX 11 15 1 -5
BITMAP
0F00
3FC0
7FE0
70E0
E000
E000
EF80
FFC0
F1E0
E0E0
E0E0
F0E0
71E0
3FC0
1F80
ENDCHAR
STARTCHAR seven.subs
ENCODING -1
SWIDTH 372 0
DWIDTH 12 0
BBX 11 15 1 -5
BITMAP
FFE0
FFE0
FFE0
01C0
0380
0380
0700
0700
0E00
0E00
1E00
1C00
1C00
1C00
3C00
ENDCHAR
STARTCHAR eight.subs
ENCODING -1
SWIDTH 429 0
DWIDTH 14 0
BBX 12 15 1 -5
BITMAP
0F00
3FC0
79E0
70E0
70E0
70E0
7FC0
3F80
7FE0
F0E0
E070
E0F0
F0E0
7FE0
3F80
ENDCHAR
STARTCHAR nine.subs
ENCODING -1
SWIDTH 411 0
DWIDTH 13 0
BBX 11 15 1 -5
BITMAP
0C00
3F80
7FC0
F1E0
E0E0
E0E0
E1E0
FFE0
7FE0
1CE0
00E0
E0E0
F1C0
7FC0
3F00
ENDCHAR
STARTCHAR zero.dnom
ENCODING -1
SWIDTH 402 0
DWIDTH 13 0
BBX 11 15 1 0
BITMAP
0E00
3F80
7FC0
71C0
E0E0
E0E0
E0E0
E0E0
E0E0
E0E0
E0E0
E1C0
71C0
7F80
1F00
ENDCHAR
STARTCHAR one.dnom
ENCODING -1
SWIDTH 256 0
DWIDTH 8 0
BBX 5 15 1 0
BITMAP
18
18
F8
F8
38
38
38
38
38
38
38
38
38
38
38
ENDCHAR
STARTCHAR two.dnom
ENCODING -1
SWIDTH 392 0
DWIDTH 13 0
BBX 11 15 1 0
BITMAP
1E00
7F80
FFC0
E1E0
E0E0
01E0
03C0
07C0
1F00
7E00
7800
E000
FFE0
FFE0
FFE0
ENDCHAR
STARTCHAR three.dnom
ENCODING -1
SWIDTH 425 0
DWIDTH 14 0
BBX 12 15 1 0
BITMAP
0E00
3FC0
7FE0
E0E0
E0E0
00E0
0FC0
0F80
0FE0
00E0
E0F0
E0F0
F1E0
7FE0
3F80
ENDCHAR
STARTCHAR four.dnom
ENCODING -1
SWIDTH 410 0
DWIDTH 13 0
BBX 11 15 1 0
BITMAP
0380
0780
0780
0F80
1F80
3B80
3B80
7380
E380
FFE0
FFE0
FFE0
0380
0380
0380
ENDCHAR
STARTCHAR five.dnom
ENCODING -1
SWIDTH 421 0
DWIDTH 13 0
BBX 12 15 1 0
BITMAP
7FE0
7FE0
7FE0
7000
7000
7200
7FC0
7FE0
30E0
00F0
20F0
E0F0
F1E0
7FC0
1F80
ENDCHAR
STARTCHAR six.dnom
ENCODING -1
SWIDTH 412 0
DWIDTH 13 0
BBX 11 15 1 0
BITMAP
0F00
3FC0
7FE0
70E0
E000
E000
EF80
FFC0
F1E0
E0E0
E0E0
F0E0
71E0
3FC0
1F80
ENDCHAR
STARTCHAR seven.dnom
ENCODING -1
SWIDTH 372 0
DWIDTH 12 0
BBX 11 15 1 0
BITMAP
FFE0
FFE0
FFE0
01C0
0380
0380
0700
0700
0E00
0E00
1E00
1C00
1C00
1C00
3C00
ENDCHAR
STARTCHAR eight.dnom
ENCODING -1
SWIDTH 429 0
DWIDTH 14 0
BBX 12 15 1 0
BITMAP
0F00
3FC0
79E0
70E0
70E0
70E0
7FC0
3F80
7FE0
F0E0
E070
E0F0
F0E0
7FE0
3F80
ENDCHAR
STARTCHAR nine.dnom
ENCODING -1
SWIDTH 411 0
DWIDTH 13 0
BBX 11 15 1 0
BITMAP
0C00
3F80
7FC0
F1E0
E0E0
E0E0
E1E0
FFE0
7FE0
1CE0
00E0
E0E0
F1C0
7FC0
3F00
ENDCHAR
STARTCHAR zero.numr
ENCODING -1
SWIDTH 402 0
DWIDTH 13 0
BBX 11 15 1 8
BITMAP
3F00
7F80
71C0
E1E0
E0E0
E0E0
E0E0
E0E0
E0E0
E0E0
E0E0
71C0
7FC0
3F80
0400
ENDCHAR
STARTCHAR one.numr
ENCODING -1
SWIDTH 256 0
DWIDTH 8 0
BBX 5 14 1 9
BITMAP
18
38
F8
F8
38
38
38
38
38
38
38
38
38
38
ENDCHAR
STARTCHAR two.numr
ENCODING -1
SWIDTH 392 0
DWIDTH 13 0
BBX 11 14 1 9
BITMAP
3F80
7FC0
F1C0
E1E0
E1E0
01C0
07C0
1F80
3E00
7800
F000
E000
FFE0
FFE0
ENDCHAR
STARTCHAR three.numr
ENCODING -1
SWIDTH 425 0
DWIDTH 14 0
BBX 12 15 1 8
BITMAP
3FC0
7FE0
F1E0
E0E0
00E0
03E0
0F80
0FC0
01E0
00F0
E0F0
F0E0
7FE0
3FC0
0400
ENDCHAR
STARTCHAR four.numr
ENCODING -1
SWIDTH 410 0
DWIDTH 13 0
BBX 11 14 1 9
BITMAP
0380
0780
0F80
0F80
1F80
3B80
7380
6380
E380
FFE0
FFE0
0380
0380
0380
ENDCHAR
STARTCHAR five.numr
ENCODING -1
SWIDTH 421 0
DWIDTH 13 0
BBX 12 15 1 8
BITMAP
7FE0
7FE0
7000
7000
7000
6F80
7FE0
79E0
00F0
00F0
60F0
F0E0
7FE0
3FC0
0F00
ENDCHAR
STARTCHAR six.numr
ENCODING -1
SWIDTH 412 0
DWIDTH 13 0
BBX 11 15 1 8
BITMAP
1F80
3FC0
79E0
F0E0
E000
E700
FFC0
FFE0
F0E0
E0E0
E0E0
70E0
7FC0
3FC0
0600
ENDCHAR
STARTCHAR seven.numr
ENCODING -1
SWIDTH 372 0
DWIDTH 12 0
BBX 11 14 1 9
BITMAP
FFE0
FFE0
01C0
01C0
0380
0780
0700
0F00
0E00
1E00
1C00
1C00
1C00
3C00
ENDCHAR
STARTCHAR eight.numr
ENCODING -1
SWIDTH 429 0
DWIDTH 14 0
BBX 12 15 1 8
BITMAP
1F80
7FC0
70E0
70E0
70E0
79E0
3FC0
7FC0
71E0
E0F0
E070
F0F0
7FE0
3FC0
0600
ENDCHAR
STARTCHAR nine.numr
ENCODING -1
SWIDTH 411 0
DWIDTH 13 0
BBX 11 15 1 8
BITMAP
3F00
7FC0
F1C0
E0E0
E0E0
E0E0
F1E0
7FE0
3EE0
00E0
E0E0
E1C0
7FC0
3F80
0C00
ENDCHAR
STARTCHAR period.tf
ENCODING -1
SWIDTH 300 0
DWIDTH 10 0
BBX 5 5 2 0
BITMAP
F8
F8
F8
F8
F8
ENDCHAR
STARTCHAR comma.tf
ENCODING -1
SWIDTH 300 0
DWIDTH 10 0
BBX 5 9 2 -4
BITMAP
78
78
78
78
78
38
30
60
E0
ENDCHAR
STARTCHAR emdash.alt
ENCODING -1
SWIDTH 788 0
DWIDTH 25 0
BBX 25 4 0 6
BITMAP
FFFFFF80
FFFFFF80
FFFFFF80
FFFFFF80
ENDCHAR
STARTCHAR cent.tf
ENCODING -1
SWIDTH 700 0
DWIDTH 22 0
BBX 15 23 4 0
BITMAP
0380
0380
0380
0FF0
3FF8
3FFC
7C7C
F83E
F81E
F000
F000
F000
F000
F000
F81E
7C3C
7FFC
3FF8
1FF0
03C0
0380
0380
0380
ENDCHAR
STARTCHAR colonmonetary.tf
ENCODING -1
SWIDTH 700 0
DWIDTH 22 0
BBX 20 27 1 -2
BITMAP
003300
003300
03FF00
0FFF80
1FFFC0
3FFFE0
3E67E0
7C67F0
7C6FF0
FC6DF0
F8CC00
F8CC00
F8CC00
F8DC00
F8D800
F9D800
F99800
7D99F0
7D99F0
7FB3E0
3FB7E0
3FFFE0
1FFFC0
07FF80
03FE00
036000
066000
ENDCHAR
STARTCHAR dollar.tf
ENCODING -1
SWIDTH 700 0
DWIDTH 22 0
BBX 19 29 2 -3
BITMAP
00F000
00F000
00F000
07FC00
1FFF00
3FFF80
7F1F80
7C07C0
7C07C0
7C07C0
7C0000
7F0000
7FF000
3FFE00
1FFF00
07FF80
007FC0
000FC0
0007C0
F807E0
F807C0
FC07C0
7FBFC0
7FFF80
1FFF00
07FC00
00F000
00F000
00F000
ENDCHAR
STARTCHAR dong.tf
ENCODING -1
SWIDTH 700 0
DWIDTH 22 0
BBX 15 23 4 0
BITMAP
0078
0078
07FE
07FE
0078
1F78
3FF8
7FF8
F078
F078
F078
F078
F078
F078
F078
F078
7DF8
7FF8
1E78
0000
0000
FFF8
FFF8
ENDCHAR
STARTCHAR Euro.tf
ENCODING -1
SWIDTH 700 0
DWIDTH 22 0
BBX 20 23 1 0
BITMAP
00FF80
01FFE0
03FFF0
07F3E0
0FC0C0
0F8000
1F8000
1F8000
FFFC00
FFFC00
1F0000
1F0000
1F0000
FFFC00
FFFC00
1F8000
0F8000
0FC040
07E0C0
07FFE0
03FFF0
01FFC0
007F80
ENDCHAR
STARTCHAR florin.tf
ENCODING -1
SWIDTH 700 0
DWIDTH 22 0
BBX 17 28 2 -5
BITMAP
001F80
007F80
007F80
00F800
00F800
00F000
07FF00
07FF00
07FE00
0FFE00
01F000
01E000
01E000
03E000
03E000
03E000
03E000
03C000
03C000
07C000
07C000
07C000
07C000
078000
0F8000
7F8000
7F0000
FE0000
ENDCHAR
STARTCHAR franc.tf
ENCODING -1
SWIDTH 700 0
DWIDTH 22 0
BBX 19 23 2 0
BITMAP
3FFFE0
3FFFE0
3FFFE0
3FFFE0
3F0000
3F0000
3F0000
3F0000
3F0000
3F0000
3FFF00
3FFF00
3FFF00
3FFF00
3F0000
3F0000
3F0000
FFF800
FFF800
3F0000
3F0000
3F0000
3F0000
ENDCHAR
STARTCHAR lira.tf
ENCODING -1
SWIDTH 700 0
DWIDTH 22 0
BBX 19 23 2 0
BITMAP
07FC00
0FFE00
1FFF00
1F8F80
3F0700
3F0000
3F0000
1F0000
FFF800
FFF800
FF0000
1F8000
1F8000
FFF800
FFF800
0F8000
0F0000
1F03E0
1E07C0
FFFFC0
FFFF80
FFFF00
FFFC00
ENDCHAR
STARTCHAR uni20BA.tf
ENCODING -1
SWIDTH 700 0
DWIDTH 22 0
BBX 20 23 1 0
BITMAP
0F8000
0F8000
0F8000
0F8000
0F8000
0F9C00
0FFC00
0FF800
1FE000
FF8000
7F8C00
4FFC00
0FFE00
1FE000
7F80C0
7F81F0
6F81F0
0F83E0
0F87C0
0FFFC0
0FFF80
0FFE00
0FF800
ENDCHAR
STARTCHAR uni20B9.tf
ENCODING -1
SWIDTH 700 0
DWIDTH 22 0
BBX 19 23 2 0
BITMAP
FFFFE0
FFFFE0
00FE00
003F00
003F00
FFFFE0
FFFFE0
003F00
003F00
FFFE00
FFFC00
FFF800
FFF000
01F000
01F800
00F800
00F800
00FC00
007C00
007E00
007E00
003E00
003F00
ENDCHAR
STARTCHAR sterling.tf
ENCODING -1
SWIDTH 700 0
DWIDTH 22 0
BBX 19 23 2 0
BITMAP
03FC00
0FFE00
1FFF00
1F9F80
3F0700
3F0000
3F0000
1F0000
1F0000
1F0000
FFF800
FFF800
1F8000
1F8000
0F8000
0F8000
0F0000
1F03E0
1E07C0
FFFFC0
FFFF80
FFFF00
FFFC00
ENDCHAR
STARTCHAR yen.tf
ENCODING -1
SWIDTH 700 0
DWIDTH 22 0
BBX 22 23 0 0
BITMAP
FE007C
7E00F8
3F00F0
1F81F0
1F83E0
0FC3C0
0FC7C0
07E780
03EF80
03FF00
01FE00
00FE00
0FFFE0
0FFFE0
007C00
007C00
007C00
0FFFE0
0FFFE0
007C00
007C00
007C00
007C00
ENDCHAR
STARTCHAR uni030C.alt
ENCODING -1
SWIDTH 0 0
DWIDTH 0 0
BBX 3 7 2 16
BITMAP
E0
E0
E0
E0
60
C0
C0
ENDCHAR
STARTCHAR gravecomb.narrow
ENCODING -1
SWIDTH 0 0
DWIDTH 0 0
BBX 7 5 0 18
BITMAP
F8
3C
3C
1E
08
ENDCHAR
STARTCHAR acutecomb.narrow
ENCODING -1
SWIDTH 0 0
DWIDTH 0 0
BBX 7 5 0 18
BITMAP
3E
3C
78
70
F0
ENDCHAR
STARTCHAR uni03060301
ENCODING -1
SWIDTH 0 0
DWIDTH 0 0
BBX 12 10 0 18
BITMAP
01E0
01C0
0380
0700
0600
E070
70E0
7FE0
1FC0
0600
ENDCHAR
STARTCHAR uni03060300
ENCODING -1
SWIDTH 0 0
DWIDTH 0 0
BBX 12 10 0 18
BITMAP
7800
3C00
1C00
0E00
0700
E070
70E0
7FE0
1FC0
0600
ENDCHAR
STARTCHAR uni03060309
ENCODING -1
SWIDTH 0 0
DWIDTH 0 0
BBX 12 11 0 18
BITMAP
0C00
1F00
0F00
0300
0300
0700
E270
70E0
7FE0
1FC0
0600
ENDCHAR
STARTCHAR uni03060303
ENCODING -1
SWIDTH 0 0
DWIDTH 0 0
BBX 12 10 0 18
BITMAP
3C20
7FE0
7FF0
41C0
0000
E070
70E0
7FE0
1FC0
0600
ENDCHAR
STARTCHAR uni03020301
ENCODING -1
SWIDTH 0 0
DWIDTH 0 0
BBX 16 9 0 18
BITMAP
000F
000E
001C
0038
0F30
1F80
3FC0
79E0
F0F0
ENDCHAR
STARTCHAR uni03020300
ENCODING -1
SWIDTH 0 0
DWIDTH 0 0
BBX 14 9 0 18
BITMAP
01E0
00F0
0070
0038
0F1C
1F80
3FC0
79E0
F0F0
ENDCHAR
STARTCHAR uni03020309
ENCODING -1
SWIDTH 0 0
DWIDTH 0 0
BBX 13 10 0 18
BITMAP
01E0
00F0
0038
0018
0038
0F30
1F80
3FC0
79E0
F0F0
ENDCHAR
STARTCHAR uni03020303
ENCODING -1
SWIDTH 0 0
DWIDTH 0 0
BBX 12 10 0 18
BITMAP
3C20
7FE0
7FF0
41C0
0000
0F00
1F80
3FC0
79E0
F0F0
ENDCHAR
ENDFONT
